<svg width="220" height="212" viewBox="0 0 220 212" fill="none" xmlns="http://www.w3.org/2000/svg">
<ellipse cx="110" cy="181.349" rx="110" ry="28" fill="#EFF5FF"/>
<path d="M32.1416 185.733L37.4328 179.56L39.5395 160.6C39.1312 159.718 38.3147 157.337 38.3147 154.868C38.3147 151.781 40.5193 122.68 41.4012 112.538C42.2831 102.397 45.3696 97.9874 46.6924 92.6962C47.7507 88.4633 47.1334 85.6413 46.6924 84.7594L45.3696 75.9408L42.724 66.6811L39.6375 61.8309C39.0496 62.7127 37.2564 63.9473 34.7872 61.8309C31.7007 59.1853 32.1416 53.0122 32.5825 45.0754C32.9353 38.7259 39.4905 36.2567 42.724 35.8158C44.1938 36.2567 48.0152 36.874 51.5427 35.8158C55.0702 34.7575 63.5949 34.493 67.4163 34.493C74.9122 34.199 90.4331 33.7875 92.5495 34.493C116.184 29.2018 126.501 36.6976 128.706 41.107V63.1537L124.738 67.563L119.446 68.8858C118.712 70.6496 117.065 74.8825 116.36 77.7045C115.654 80.5265 118.124 83.5836 119.446 84.7594L135.761 104.601L141.493 119.152C141.934 120.916 142.816 124.708 142.816 125.766C171.389 118.006 185.881 131.939 189.555 139.876C188.379 146.49 185.939 160.247 185.587 162.364C185.234 164.48 173.681 168.243 167.949 169.86L165.304 168.978L167.949 158.836C167.361 158.689 165.656 158.043 163.54 156.632C161.423 155.221 161.776 158.101 162.217 159.718C161.041 163.099 157.984 170.742 155.162 174.269C151.635 178.678 131.352 185.733 128.706 185.733C126.59 185.733 124.591 184.851 123.856 184.41C119.3 185.733 109.57 188.202 107.1 187.497C104.631 186.792 99.8984 187.203 97.8407 187.497L88.1402 190.584C87.1114 190.29 84.5245 189.437 82.4081 188.379C80.2916 187.321 84.4657 184.117 86.8174 182.647L89.9039 179.56C89.9039 177.502 89.7276 173.034 89.0221 171.623C88.3166 170.212 84.3188 169.86 82.4081 169.86C79.7625 171.329 73.9421 174.798 71.8256 176.915C71.8256 189.966 49.485 192.935 38.3147 192.788L33.4644 190.584L32.1416 185.733Z" fill="white"/>
<path d="M71.4727 32.5886C78.5327 32.3968 85.4531 31.5226 92.3605 32.6927C92.6724 32.7458 93.1061 32.8205 93.3127 32.6609C96.8146 29.9863 100.963 30.8373 104.832 30.7554C109.263 30.6654 113.715 31.1672 118.142 31.5927C120.412 31.81 122.602 32.5477 124.671 33.5876C128.82 35.6801 130.035 39.5127 130.883 43.6641C131.588 47.109 131.394 50.5916 131.219 54.0093C130.992 58.4856 130.572 63.0293 128.433 67.1489C127.267 69.3968 125.335 70.3974 122.84 70.0208C122.396 69.9545 121.959 69.8436 121.535 69.7544C120.816 70.4586 120.767 71.3375 120.568 72.1392C120.295 73.2247 119.615 73.7032 118.555 73.5221C117.378 73.3227 116.944 72.4923 117.042 71.3673C117.143 70.1734 117.721 69.1407 118.313 68.1446C117.334 66.9546 115.901 66.6781 114.764 65.9351C111.489 63.8037 109.518 60.4903 106.912 57.7628C105.465 56.2503 104.019 54.7377 102.518 53.2852C101.584 52.3794 100.886 51.4446 101.887 50.2491C102.859 49.088 104.059 49.4596 105.053 50.2097C107.627 52.1528 109.895 54.49 111.741 57.0739C114.557 61.0123 118.303 63.5564 122.532 65.6112C123.853 66.2503 124.592 65.847 125.178 64.6137C126.178 62.5066 126.575 60.2435 126.843 57.9824C127.405 53.2366 127.673 48.4597 126.859 43.7195C125.996 38.6857 123.283 36.3781 117.961 35.4928C113.29 34.7151 108.594 34.7697 103.894 34.5781C101.725 34.4892 99.5906 34.4832 97.4546 34.7769C96.0889 34.966 94.7552 35.2287 93.8143 36.4215C93.331 37.0337 92.6172 37.2555 91.8623 37.0222C85.4624 35.0193 78.9014 35.9552 72.4676 36.4302C70.3632 36.5848 68.4792 35.7259 66.3964 36.1425C65.2474 36.3734 64.6651 34.9052 64.561 33.7421C64.4714 32.7507 64.9018 31.8448 65.922 31.6128C67.3524 31.2834 68.3262 31.9514 68.5904 33.4232C69.5991 33.1276 70.4615 32.875 71.4727 32.5886Z" fill="#246BEB"/>
<path d="M126.463 94.8999C123.616 91.9074 120.854 89.0304 118.081 86.1589C117.284 85.3326 116.695 84.3708 117.676 83.429C118.683 82.4647 119.885 82.6805 120.834 83.647C126.005 88.9228 131.222 94.1262 135.005 100.606C137.343 104.614 140.031 108.411 141.738 112.771C142.801 115.489 143.148 118.345 143.592 121.191C143.701 121.889 143.614 122.643 144.194 123.44C146.207 123.046 148.349 122.798 150.386 122.193C154.888 120.856 159.51 120.777 164.009 121.455C173.377 122.868 182.09 125.936 188.097 133.92C189.854 136.259 190.566 139.144 190.774 142.028C190.948 144.424 189.684 153.965 188.616 156.267C188.171 157.223 187.724 158.272 188.249 159.47C188.678 160.453 187.908 161.148 187.302 161.868C186.006 163.401 184.589 164.757 182.529 165.082C181.377 165.261 180.183 165.058 179.878 163.668C179.571 162.263 180.448 161.693 181.724 161.442C182.924 161.205 183.533 160.711 183.361 159.148C183.184 157.555 184.312 156.07 184.948 154.584C186.675 150.55 188.097 141.22 184.662 136.347C180.411 130.315 174.078 127.746 167.137 126.103C160.725 124.585 154.458 124.758 148.169 126.536C147.206 126.81 146.367 127.127 145.635 127.893C144.566 129.016 143.039 129.139 141.609 129.034C140.184 128.929 139.907 127.753 139.976 126.555C140.137 123.712 139.639 120.932 139.134 118.17C138.325 113.775 136.131 109.939 133.832 106.197C131.503 102.408 128.978 98.7379 126.463 94.8999Z" fill="#246BEB"/>
<path d="M42.9079 37.4792C40.1826 38.2384 37.9783 39.6139 36.1225 41.5242C33.8122 43.9043 33.8203 47.0951 33.726 50.0195C33.6279 53.1235 34.3289 56.2534 35.5958 59.1804C36.0457 60.2185 36.6118 60.6123 37.7064 59.8987C38.8567 59.1522 40.0837 58.5387 41.0708 57.5434C45.6627 52.9254 50.8091 48.8566 54.8096 43.6486C55.6749 42.5236 56.8584 41.7189 58.1601 42.8067C59.433 43.872 58.6387 45.1268 57.8564 46.1064C55.0072 49.6744 51.9213 53.0195 48.4759 56.0331C46.1201 58.0929 44.0528 60.4714 41.5733 62.3265C42.5739 64.3123 46.5563 64.5785 44.5603 68.1723C46.3692 68.7602 46.4508 70.1169 46.2852 71.6611C46.1224 73.2084 45.4845 74.8916 47.1932 76.1036C47.3922 76.2465 47.5197 76.7662 47.4222 77.0127C46.4769 79.4347 47.7969 81.447 48.554 83.5545C48.783 84.1907 48.9447 84.7962 48.6747 85.4561C48.4115 86.1014 48.0177 86.6105 47.2899 86.7056C46.5772 86.7984 45.9141 86.5312 45.6282 85.8949C44.4194 83.22 43.1111 80.5576 43.2577 77.4982C43.2793 77.0496 43.5728 76.5079 43.1426 76.2055C41.9589 75.373 42.0731 74.2189 42.2929 73.0525C39.698 72.4186 39.0632 71.6372 39.8557 69.4857C40.4434 67.8987 40.8809 66.5914 39.1892 65.4522C38.9231 65.2727 38.8826 64.7547 38.7458 64.4054C33.8115 64.4919 31.7676 62.7217 30.6297 57.2771C29.7386 53.0184 29.5703 48.7573 30.4871 44.4477C31.5576 39.412 37.1686 34.1992 42.3227 33.822C43.6052 33.7273 44.9177 33.9612 46.2068 34.1308C49.1034 34.5114 51.9558 34.2779 54.7914 33.6387C55.9481 33.3782 57.1505 33.3241 57.5063 34.7649C57.8551 36.1693 56.8024 36.8313 55.6719 37.1052C51.5112 38.1246 47.3 38.4215 42.9079 37.4792Z" fill="#246BEB"/>
<path d="M123.512 186.444C122.865 186.228 122.379 186.001 121.868 185.913C119.396 185.496 118.424 184.426 118.26 181.946C117.678 173.081 116.576 164.25 116.524 155.347C116.5 151.292 116.366 147.237 116.255 143.18C116.224 142.048 116.545 141.118 117.513 140.469C118.117 140.064 118.767 140.067 119.376 140.403C120.004 140.753 120.257 141.333 120.196 142.058C119.792 146.816 120.188 151.569 120.347 156.322C120.59 163.504 121.298 170.658 121.964 177.813C122.093 179.194 122.167 180.628 122.998 181.873C123.607 181.496 123.35 180.978 123.451 180.563C123.769 179.25 124.707 178.761 125.929 178.792C127.189 178.822 127.468 179.701 127.56 180.813C127.792 183.587 128.131 183.749 130.843 182.618C130.843 181.976 130.22 181.84 129.89 181.474C129.231 180.742 128.747 179.945 129.404 179.016C130.116 178.002 131.092 178.2 132.034 178.68C133.145 179.251 134.121 179.982 134.575 181.233C136.712 179.653 137.158 177.92 136.095 175.814C135.654 174.935 135.441 174.057 136.272 173.296C137.077 172.557 137.94 172.737 138.806 173.24C140.616 174.293 141.187 175.634 140.662 177.674C138.946 184.36 135.836 186.768 128.458 187.075C126.832 187.144 125.169 187.449 123.512 186.444Z" fill="#246BEB"/>
<path d="M32.5648 172.621C33.6724 171.725 34.8471 171.738 36.1461 171.944C36.8975 169.998 36.3398 168.081 36.3137 166.26C36.218 159.58 36.654 152.935 37.1592 146.288C37.2434 145.189 36.9062 144.064 37.3914 142.981C37.7981 142.071 38.326 141.356 39.4478 141.568C40.4746 141.762 40.6946 142.563 40.8006 143.474C41.0424 145.574 40.6523 147.658 40.5388 149.73C40.0382 158.811 40.209 167.897 40.02 176.981C39.995 178.203 39.9921 179.516 38.8064 180.36C38.7535 180.396 38.669 180.46 38.673 180.497C39.1765 183.565 36.42 184.238 34.8353 185.798C33.3392 187.272 33.6615 188.723 35.5524 189.729C36.3419 190.15 37.1949 190.125 38.0396 190.195C39.1947 190.291 39.8934 190.893 39.88 192.068C39.8666 193.243 39.0526 193.816 38.0018 194.004C34.647 194.597 30.3835 191.416 30.0171 187.98C29.847 186.379 29.363 185.087 28.2694 183.813C25.5944 180.701 25.9418 177.973 29.0864 175.087C30.1064 174.147 31.2293 173.354 32.5648 172.621ZM34.185 179.114C36.4705 177.845 36.6461 177.375 35.5627 175.205C33.8038 175.894 32.2693 176.865 30.7957 178.914C32.2408 178.261 33.0272 178.958 34.185 179.114Z" fill="#246BEB"/>
<path d="M147.445 135.839C154.54 135.936 158.084 140.692 160.761 146.458C161.89 148.889 163.179 151.294 163.362 154.15C163.472 155.909 165.131 155.46 166.182 155.7C170.038 156.577 171.346 158.97 169.986 162.942C169.565 164.166 168.983 165.331 168.468 166.519C168.307 166.884 168.117 167.235 167.989 167.495C168.11 168.126 168.547 168.194 168.872 168.394C169.585 168.836 169.836 169.509 169.666 170.32C169.499 171.121 168.977 171.63 168.226 171.868C166.724 172.345 165.513 171.685 164.448 170.712C163.497 169.847 163.505 168.666 163.792 167.475C164.153 165.981 165.079 164.778 165.737 163.438C166.007 162.887 166.254 162.323 166.454 161.74C166.81 160.716 166.767 159.8 165.575 159.446C164.33 159.076 163.858 159.923 163.758 160.973C163.047 168.534 157.852 172.949 153.056 177.618C152.413 178.243 151.45 178.533 150.608 178.901C149.585 179.348 148.576 179.264 148.106 178.101C147.658 176.983 147.954 175.953 149.032 175.271C153.064 172.721 155.973 169.045 158.453 164.939C159.538 163.142 160.042 161.162 159.977 159.063C159.788 153.037 157.722 147.747 154.173 143.063C152.624 141.018 150.62 139.896 148.118 139.743C147.661 139.715 147.191 139.699 146.754 139.578C145.46 139.218 143.999 138.805 144.287 136.995C144.589 135.092 146.057 135.606 147.445 135.839Z" fill="#246BEB"/>
<path d="M67.5233 172.584C67.846 164.617 68.9816 156.916 70.0873 149.214C70.272 147.923 70.0969 146.576 70.6829 145.348C71.1541 144.355 71.7249 143.405 73.0402 143.807C74.3023 144.194 74.4087 145.208 74.2136 146.36C73.0002 153.457 72.1862 160.597 71.8249 167.792C71.7205 169.861 71.0292 171.916 71.8737 174.289C73.3342 173.191 74.693 172.141 76.0825 171.134C78.1681 169.626 80.3715 168.377 83.0206 168.186C83.9599 168.118 84.8561 168.233 85.6404 168.804C86.292 169.28 86.5291 169.932 86.3248 170.706C86.1428 171.401 85.6299 172.005 84.9619 171.939C80.6496 171.511 77.8992 174.37 75.0277 176.759C73.4632 178.058 71.5582 177.912 69.8807 178.648C68.5813 179.215 67.8931 177.765 67.7624 176.484C67.6351 175.25 67.6045 174.004 67.5233 172.584Z" fill="#246BEB"/>
<path d="M88.9028 180.502C87.9314 177.163 87.2858 173.787 87.6427 170.284C87.8062 168.667 87.0803 167.194 86.728 165.691C85.1123 158.841 86.0305 151.881 85.5566 144.988C85.4941 144.103 85.6679 143.285 86.3239 142.64C86.8436 142.129 87.4762 142.023 88.1387 142.299C89.0884 142.696 89.1412 143.538 89.1975 144.426C89.5751 150.285 88.8117 156.228 90.0695 162.003C91.2001 167.198 91.3871 172.486 92.1774 177.707C92.5426 180.126 91.7676 180.863 89.0491 180.514C88.8915 180.49 88.9028 180.502 88.9028 180.502Z" fill="#246BEB"/>
<path d="M36.8048 138.515C36.6528 133.954 37.5314 129.631 38.0636 125.282C38.8636 118.726 39.8008 112.184 40.7111 105.64C40.8901 104.343 41.5804 103.346 43.0269 103.488C44.4255 103.628 44.4821 104.675 44.3277 105.85C43.5936 111.423 42.8863 116.998 42.2116 122.58C41.6239 127.45 41.0899 132.327 40.5349 137.202C40.4197 138.209 40.2212 139.205 39.1523 139.615C38.1415 140.003 37.3669 139.583 36.8048 138.515Z" fill="#246BEB"/>
<path d="M80.2802 89.4816C82.7581 90.8288 83.218 91.9575 82.6777 95.0883C82.7657 95.177 82.8396 95.307 82.9454 95.3458C83.7338 95.6229 85.1114 95.1616 85.0867 96.4886C85.0604 97.9534 83.6985 97.471 82.7958 97.5835C81.3496 97.7651 79.9412 97.6939 78.5324 97.2479C77.0557 96.7802 75.7127 97.4862 74.3489 97.9152C74.0987 97.9945 73.8521 98.1159 73.5964 98.1318C72.5191 98.2017 71.0419 99.3322 70.4839 97.8054C69.8944 96.1959 71.9767 96.6638 72.6445 95.9688C70.6888 91.6037 73.3312 88.5791 78.618 89.0637C79.1314 89.1068 79.634 89.2903 80.2802 89.4816Z" fill="#246BEB"/>
<path d="M88.8828 180.483C89.8694 182.615 89.7077 183.158 87.7525 184.257C87.6967 184.289 87.627 184.304 87.5767 184.346C86.564 185.208 84.7653 185.856 85.1238 187.303C85.4578 188.649 87.2357 188.489 88.5333 188.557C89.846 188.623 90.9426 189.133 90.9652 190.579C90.9883 192.074 89.7646 192.244 88.5916 192.308C84.9887 192.504 81.574 190.743 80.9197 188.347C80.3198 186.161 82.883 182.395 85.9323 181.029C86.7654 180.655 87.6321 180.325 88.7421 180.479C88.9027 180.502 88.8914 180.49 88.8828 180.483Z" fill="#246BEB"/>
<path d="M126.492 145.318C128.946 142.94 131.216 140.593 132.795 137.663C133.285 136.752 134.098 136.377 135.121 136.75C136.176 137.135 136.355 138.023 136.287 138.997C136.23 139.819 135.77 140.501 135.284 141.101C132.683 144.305 130.024 147.461 126.889 150.176C125.96 150.983 125.01 151.135 124.082 150.28C123.135 149.407 123.532 148.457 124.199 147.66C124.873 146.86 125.666 146.166 126.492 145.318Z" fill="#246BEB"/>
<path d="M74.1225 132.646C75.8374 133.034 75.3489 134.561 75.8295 135.531C78.7186 134.79 78.8672 134.924 79.2082 138.004C79.2786 138.635 79.6235 139.236 79.854 139.845C80.1653 140.674 80.0435 141.42 79.3246 141.954C78.6122 142.478 77.8426 142.46 77.1682 141.854C76.7309 141.461 76.3974 140.981 75.6745 141.151C73.6972 141.612 72.9334 140.284 72.4616 138.771C72.0334 137.392 71.9818 135.926 72.1084 134.491C72.2036 133.411 72.7497 132.637 74.1225 132.646Z" fill="#246BEB"/>
<path d="M51.5078 192.954C49.9216 192.954 48.7912 192.406 48.8915 190.85C48.9919 189.29 50.1665 189.195 51.5736 189.072C53.8756 188.868 56.223 188.493 58.3721 187.522C59.5836 186.974 60.7349 186.428 61.5478 187.954C62.1296 189.047 61.0303 190.777 59.4705 191.171C56.8861 191.821 54.2718 192.362 51.5078 192.954Z" fill="#246BEB"/>
<path d="M43.2298 189.913C42.6753 189.142 42.4361 189.731 42.1357 190.015C41.4053 190.703 40.574 190.772 39.8473 190.135C38.8143 189.233 38.6318 188.021 39.0167 186.743C39.2807 185.864 39.8407 185.22 40.8316 185.251C42.46 185.301 42.6844 186.405 42.4725 188.027C42.8169 187.104 42.9818 186.448 43.2981 185.874C43.7239 185.109 44.4522 184.84 45.3069 185.058C46.1054 185.261 46.4726 185.836 46.5126 186.638C46.5408 187.219 46.422 187.854 46.6186 188.371C47.0351 189.471 47.4817 190.568 46.1516 191.257C44.8092 191.951 43.9526 191.113 43.2298 189.913Z" fill="#246BEB"/>
<path d="M93.4034 185.802C94.5582 185.85 95.443 186.009 96.4359 185.236C97.4757 184.426 98.5809 184.943 98.9392 186.339C99.6163 188.976 99.4897 189.152 96.6836 190.017C96.5098 190.071 96.3554 190.206 96.2109 190.327C94.4247 191.842 93.5553 191.84 92.3167 190.312C91.1428 188.862 91.5085 187.113 93.4034 185.802Z" fill="#246BEB"/>
<path d="M101.428 187.237C101.854 186.301 102.533 185.834 103.363 186.014C105.36 186.448 107.242 185.93 109.15 185.525C110.239 185.294 111.355 185.238 111.809 186.474C112.305 187.818 111.35 188.599 110.277 189.026C107.978 189.946 105.561 190.057 103.156 189.565C102.092 189.345 101.218 188.715 101.428 187.237Z" fill="#246BEB"/>
<path d="M171.301 169.979C170.312 168.551 169.969 167.09 170.46 165.585C170.817 164.489 171.598 163.572 172.936 163.844C174.276 164.118 174.418 165.133 174.11 166.283C173.951 166.877 174.05 167.431 174.252 168.003C174.556 168.868 174.512 169.717 173.704 170.293C172.914 170.862 172.11 170.758 171.301 169.979Z" fill="#246BEB"/>
<path d="M48.3577 91.8945C48.0769 92.8596 47.9106 93.705 47.5688 94.4719C47.1481 95.4174 46.3204 95.8038 45.3079 95.5114C44.39 95.2452 44.1745 94.4718 44.3042 93.6364C44.4308 92.8037 44.6261 91.9748 44.877 91.173C45.2012 90.1263 45.7377 89.1452 47.0373 89.3424C48.3906 89.5424 48.5148 90.6137 48.3577 91.8945Z" fill="#246BEB"/>
<path d="M60.0697 36.4735C60.0964 35.3295 60.1975 34.3606 60.6602 33.4684C61.1766 32.4712 61.9877 32.0059 63.0748 32.3593C64.1735 32.7194 64.233 33.6582 64.0548 34.6109C63.9359 35.2491 63.7162 35.8667 63.5705 36.5004C63.3581 37.4213 63.1087 38.3612 61.9743 38.4339C60.7796 38.5124 60.2565 37.7161 60.0697 36.4735Z" fill="#246BEB"/>
<path d="M174.623 166.257C174.952 164.848 175.698 163.941 176.995 164.57C178.195 165.151 179.363 166.103 179.1 167.737C178.868 169.17 177.169 169.44 175.598 168.382C174.878 167.899 174.516 167.285 174.623 166.257Z" fill="#246BEB"/>
<path d="M119.221 76.0475C119.277 76.5723 119.383 76.9859 119.271 77.3336C118.905 78.4829 118.161 79.2488 116.871 79.22C116.092 79.2014 115.462 78.831 115.28 78.0325C114.991 76.7482 115.791 75.8865 116.709 75.2831C117.616 74.6942 118.583 74.7802 119.221 76.0475Z" fill="#246BEB"/>
<ellipse cx="63.7748" cy="73.0418" rx="4.14791" ry="5.33303" transform="rotate(13.4441 63.7748 73.0418)" fill="#246BEB"/>
<ellipse cx="94.588" cy="73.0418" rx="4.14791" ry="5.33302" transform="rotate(-5.30946 94.588 73.0418)" fill="#246BEB"/>
</svg>
