<svg width="48" height="48" viewBox="0 0 48 48" fill="none" xmlns="http://www.w3.org/2000/svg">
<g filter="url(#filter0_d_735_6370)">
<path fill-rule="evenodd" clip-rule="evenodd" d="M24 4C14.0589 4 6 12.1023 6 22.0434C6 30.6383 12.024 37.8587 20.0802 39.6567L22.0688 42.8461C23.0258 44.3809 25.2604 44.3809 26.2174 42.8461L28.2546 39.5785C36.1424 37.6577 42 30.5188 42 22.0434C42 12.1023 33.9411 4 24 4Z" fill="#90CF2A"/>
<path d="M20.0802 39.6567L20.5045 39.3921L20.3936 39.2143L20.1891 39.1687L20.0802 39.6567ZM22.0688 42.8461L22.4931 42.5815L22.0688 42.8461ZM26.2174 42.8461L25.7931 42.5815L26.2174 42.8461ZM28.2546 39.5785L28.1363 39.0927L27.9382 39.141L27.8304 39.314L28.2546 39.5785ZM6.5 22.0434C6.5 12.3769 14.3366 4.5 24 4.5V3.5C13.7812 3.5 5.5 11.8277 5.5 22.0434H6.5ZM20.1891 39.1687C12.3573 37.4208 6.5 30.4 6.5 22.0434H5.5C5.5 30.8767 11.6907 38.2966 19.9713 40.1447L20.1891 39.1687ZM22.4931 42.5815L20.5045 39.3921L19.6559 39.9212L21.6445 43.1106L22.4931 42.5815ZM25.7931 42.5815C25.0318 43.8024 23.2543 43.8024 22.4931 42.5815L21.6445 43.1106C22.7972 44.9594 25.4889 44.9594 26.6416 43.1106L25.7931 42.5815ZM27.8304 39.314L25.7931 42.5815L26.6416 43.1106L28.6789 39.8431L27.8304 39.314ZM41.5 22.0434C41.5 30.2837 35.8045 37.2253 28.1363 39.0927L28.3729 40.0643C36.4802 38.09 42.5 30.754 42.5 22.0434H41.5ZM24 4.5C33.6634 4.5 41.5 12.3769 41.5 22.0434H42.5C42.5 11.8277 34.2188 3.5 24 3.5V4.5Z" fill="#75B521"/>
</g>
<path d="M16.5 21C15.8 21 15.2083 20.7583 14.725 20.275C14.2417 19.7917 14 19.2 14 18.5C14 17.8 14.2417 17.2083 14.725 16.725C15.2083 16.2417 15.8 16 16.5 16C17.2 16 17.7917 16.2417 18.275 16.725C18.7583 17.2083 19 17.8 19 18.5C19 19.2 18.7583 19.7917 18.275 20.275C17.7917 20.7583 17.2 21 16.5 21ZM21 17C20.3 17 19.7083 16.7583 19.225 16.275C18.7417 15.7917 18.5 15.2 18.5 14.5C18.5 13.8 18.7417 13.2083 19.225 12.725C19.7083 12.2417 20.3 12 21 12C21.7 12 22.2917 12.2417 22.775 12.725C23.2583 13.2083 23.5 13.8 23.5 14.5C23.5 15.2 23.2583 15.7917 22.775 16.275C22.2917 16.7583 21.7 17 21 17ZM27 17C26.3 17 25.7083 16.7583 25.225 16.275C24.7417 15.7917 24.5 15.2 24.5 14.5C24.5 13.8 24.7417 13.2083 25.225 12.725C25.7083 12.2417 26.3 12 27 12C27.7 12 28.2917 12.2417 28.775 12.725C29.2583 13.2083 29.5 13.8 29.5 14.5C29.5 15.2 29.2583 15.7917 28.775 16.275C28.2917 16.7583 27.7 17 27 17ZM31.5 21C30.8 21 30.2083 20.7583 29.725 20.275C29.2417 19.7917 29 19.2 29 18.5C29 17.8 29.2417 17.2083 29.725 16.725C30.2083 16.2417 30.8 16 31.5 16C32.2 16 32.7917 16.2417 33.275 16.725C33.7583 17.2083 34 17.8 34 18.5C34 19.2 33.7583 19.7917 33.275 20.275C32.7917 20.7583 32.2 21 31.5 21ZM18.65 31C17.9 31 17.2708 30.7125 16.7625 30.1375C16.2542 29.5625 16 28.8833 16 28.1C16 27.2333 16.2958 26.475 16.8875 25.825C17.4792 25.175 18.0667 24.5333 18.65 23.9C19.1333 23.3833 19.55 22.8208 19.9 22.2125C20.25 21.6042 20.6667 21.0333 21.15 20.5C21.5167 20.0667 21.9417 19.7083 22.425 19.425C22.9083 19.1417 23.4333 19 24 19C24.5667 19 25.0917 19.1333 25.575 19.4C26.0583 19.6667 26.4833 20.0167 26.85 20.45C27.3167 20.9833 27.7292 21.5583 28.0875 22.175C28.4458 22.7917 28.8667 23.3667 29.35 23.9C29.9333 24.5333 30.5208 25.175 31.1125 25.825C31.7042 26.475 32 27.2333 32 28.1C32 28.8833 31.7458 29.5625 31.2375 30.1375C30.7292 30.7125 30.1 31 29.35 31C28.45 31 27.5583 30.925 26.675 30.775C25.7917 30.625 24.9 30.55 24 30.55C23.1 30.55 22.2083 30.625 21.325 30.775C20.4417 30.925 19.55 31 18.65 31Z" fill="white"/>
<defs>
<filter id="filter0_d_735_6370" x="3.05556" y="1.05556" width="41.8889" height="45.8869" filterUnits="userSpaceOnUse" color-interpolation-filters="sRGB">
<feFlood flood-opacity="0" result="BackgroundImageFix"/>
<feColorMatrix in="SourceAlpha" type="matrix" values="0 0 0 0 0 0 0 0 0 0 0 0 0 0 0 0 0 0 127 0" result="hardAlpha"/>
<feOffset/>
<feGaussianBlur stdDeviation="1.22222"/>
<feColorMatrix type="matrix" values="0 0 0 0 0 0 0 0 0 0 0 0 0 0 0 0 0 0 0.2 0"/>
<feBlend mode="normal" in2="BackgroundImageFix" result="effect1_dropShadow_735_6370"/>
<feBlend mode="normal" in="SourceGraphic" in2="effect1_dropShadow_735_6370" result="shape"/>
</filter>
</defs>
</svg>
