<svg width="42" height="46" viewBox="0 0 42 46" fill="none" xmlns="http://www.w3.org/2000/svg">
<g filter="url(#filter0_d_757_9021)">
<path fill-rule="evenodd" clip-rule="evenodd" d="M21 3C11.0589 3 3 11.1023 3 21.0434C3 29.6383 9.024 36.8587 17.0802 38.6567L19.0688 41.8461C20.0258 43.3809 22.2604 43.3809 23.2174 41.8461L25.2546 38.5785C33.1424 36.6577 39 29.5188 39 21.0434C39 11.1023 30.9411 3 21 3Z" fill="#246BEB"/>
<path d="M17.0802 38.6567L17.5045 38.3921L17.3936 38.2143L17.1891 38.1687L17.0802 38.6567ZM19.0688 41.8461L19.4931 41.5815L19.4931 41.5815L19.0688 41.8461ZM23.2174 41.8461L22.7931 41.5815L22.7931 41.5815L23.2174 41.8461ZM25.2546 38.5785L25.1363 38.0927L24.9382 38.141L24.8304 38.314L25.2546 38.5785ZM3.5 21.0434C3.5 11.3769 11.3366 3.5 21 3.5V2.5C10.7812 2.5 2.5 10.8277 2.5 21.0434H3.5ZM17.1891 38.1687C9.35734 36.4208 3.5 29.3999 3.5 21.0434H2.5C2.5 29.8767 8.69065 37.2966 16.9713 39.1447L17.1891 38.1687ZM19.4931 41.5815L17.5045 38.3921L16.6559 38.9212L18.6445 42.1106L19.4931 41.5815ZM22.7931 41.5815C22.0318 42.8024 20.2543 42.8024 19.4931 41.5815L18.6445 42.1106C19.7972 43.9594 22.4889 43.9594 23.6416 42.1106L22.7931 41.5815ZM24.8304 38.314L22.7931 41.5815L23.6416 42.1106L25.6789 38.8431L24.8304 38.314ZM38.5 21.0434C38.5 29.2837 32.8045 36.2253 25.1363 38.0927L25.3729 39.0643C33.4802 37.09 39.5 29.754 39.5 21.0434H38.5ZM21 3.5C30.6634 3.5 38.5 11.3769 38.5 21.0434H39.5C39.5 10.8277 31.2188 2.5 21 2.5V3.5Z" fill="#1D56BC"/>
</g>
<path d="M13.5 20C12.8 20 12.2083 19.7583 11.725 19.275C11.2417 18.7917 11 18.2 11 17.5C11 16.8 11.2417 16.2083 11.725 15.725C12.2083 15.2417 12.8 15 13.5 15C14.2 15 14.7917 15.2417 15.275 15.725C15.7583 16.2083 16 16.8 16 17.5C16 18.2 15.7583 18.7917 15.275 19.275C14.7917 19.7583 14.2 20 13.5 20ZM18 16C17.3 16 16.7083 15.7583 16.225 15.275C15.7417 14.7917 15.5 14.2 15.5 13.5C15.5 12.8 15.7417 12.2083 16.225 11.725C16.7083 11.2417 17.3 11 18 11C18.7 11 19.2917 11.2417 19.775 11.725C20.2583 12.2083 20.5 12.8 20.5 13.5C20.5 14.2 20.2583 14.7917 19.775 15.275C19.2917 15.7583 18.7 16 18 16ZM24 16C23.3 16 22.7083 15.7583 22.225 15.275C21.7417 14.7917 21.5 14.2 21.5 13.5C21.5 12.8 21.7417 12.2083 22.225 11.725C22.7083 11.2417 23.3 11 24 11C24.7 11 25.2917 11.2417 25.775 11.725C26.2583 12.2083 26.5 12.8 26.5 13.5C26.5 14.2 26.2583 14.7917 25.775 15.275C25.2917 15.7583 24.7 16 24 16ZM28.5 20C27.8 20 27.2083 19.7583 26.725 19.275C26.2417 18.7917 26 18.2 26 17.5C26 16.8 26.2417 16.2083 26.725 15.725C27.2083 15.2417 27.8 15 28.5 15C29.2 15 29.7917 15.2417 30.275 15.725C30.7583 16.2083 31 16.8 31 17.5C31 18.2 30.7583 18.7917 30.275 19.275C29.7917 19.7583 29.2 20 28.5 20ZM15.65 30C14.9 30 14.2708 29.7125 13.7625 29.1375C13.2542 28.5625 13 27.8833 13 27.1C13 26.2333 13.2958 25.475 13.8875 24.825C14.4792 24.175 15.0667 23.5333 15.65 22.9C16.1333 22.3833 16.55 21.8208 16.9 21.2125C17.25 20.6042 17.6667 20.0333 18.15 19.5C18.5167 19.0667 18.9417 18.7083 19.425 18.425C19.9083 18.1417 20.4333 18 21 18C21.5667 18 22.0917 18.1333 22.575 18.4C23.0583 18.6667 23.4833 19.0167 23.85 19.45C24.3167 19.9833 24.7292 20.5583 25.0875 21.175C25.4458 21.7917 25.8667 22.3667 26.35 22.9C26.9333 23.5333 27.5208 24.175 28.1125 24.825C28.7042 25.475 29 26.2333 29 27.1C29 27.8833 28.7458 28.5625 28.2375 29.1375C27.7292 29.7125 27.1 30 26.35 30C25.45 30 24.5583 29.925 23.675 29.775C22.7917 29.625 21.9 29.55 21 29.55C20.1 29.55 19.2083 29.625 18.325 29.775C17.4417 29.925 16.55 30 15.65 30Z" fill="white"/>
<defs>
<filter id="filter0_d_757_9021" x="0.0555556" y="0.0555556" width="41.8889" height="45.8869" filterUnits="userSpaceOnUse" color-interpolation-filters="sRGB">
<feFlood flood-opacity="0" result="BackgroundImageFix"/>
<feColorMatrix in="SourceAlpha" type="matrix" values="0 0 0 0 0 0 0 0 0 0 0 0 0 0 0 0 0 0 127 0" result="hardAlpha"/>
<feOffset/>
<feGaussianBlur stdDeviation="1.22222"/>
<feColorMatrix type="matrix" values="0 0 0 0 0 0 0 0 0 0 0 0 0 0 0 0 0 0 0.2 0"/>
<feBlend mode="normal" in2="BackgroundImageFix" result="effect1_dropShadow_757_9021"/>
<feBlend mode="normal" in="SourceGraphic" in2="effect1_dropShadow_757_9021" result="shape"/>
</filter>
</defs>
</svg>
