<svg width="242" height="72" viewBox="0 0 242 72" fill="none" xmlns="http://www.w3.org/2000/svg">
<path d="M2.94922 7.08594H6.81641V4.33203H8.26172V12.418H1.50391V4.33203H2.94922V7.08594ZM6.81641 11.1484V8.31641H2.94922V11.1484H6.81641ZM15.4492 13.6484H13.9844V3.23828H15.4492V13.6484ZM14.4531 9.01953H11.1133V7.75H14.4531V9.01953ZM11.6797 13.5508H10.2344V3.57031H11.6797V13.5508ZM15.4492 20.582H13.9453V15.9727H3.75V14.7031H15.4492V20.582ZM30.9375 5.62109H19.9805V4.35156H30.9375V5.62109ZM33.8086 13.082H17.9883V11.8125H33.8086V13.082ZM26.6406 20.6211H25.0977V12.6523H26.6406V20.6211ZM31.7188 5.875C31.7188 6.69531 31.709 7.40495 31.6895 8.00391C31.6699 8.60286 31.6113 9.29297 31.5137 10.0742C31.416 10.8555 31.263 11.7018 31.0547 12.6133L29.5312 12.418C29.7396 11.5456 29.8926 10.7285 29.9902 9.9668C30.0879 9.20508 30.1465 8.53125 30.166 7.94531C30.1855 7.35938 30.1953 6.66927 30.1953 5.875V4.35156H31.7188V5.875ZM48.8477 13.7266H47.3242V3.23828H48.8477V13.7266ZM51.4844 8.88281H48.3594V7.59375H51.4844V8.88281ZM37.4023 11.4219C39.1081 11.4219 40.5729 11.3828 41.7969 11.3047C43.0208 11.2266 44.2839 11.0768 45.5859 10.8555L45.7422 12.1445C44.4271 12.3659 43.1445 12.5156 41.8945 12.5938C40.6445 12.6719 39.1471 12.7109 37.4023 12.7109H36.0547V11.4219H37.4023ZM43.8867 9H37.5586V12.2812H36.0547V7.78906H42.3828V5.58203H36.0156V4.3125H43.8867V9ZM43.2812 14.2539C44.4531 14.2539 45.4688 14.3776 46.3281 14.625C47.1875 14.8724 47.8483 15.2337 48.3105 15.709C48.7728 16.1842 49.0039 16.7539 49.0039 17.418C49.0039 18.069 48.776 18.6289 48.3203 19.0977C47.8646 19.5664 47.207 19.9245 46.3477 20.1719C45.4883 20.4193 44.4661 20.543 43.2812 20.543C42.0833 20.543 41.0547 20.4193 40.1953 20.1719C39.3359 19.9245 38.6751 19.5664 38.2129 19.0977C37.7507 18.6289 37.5195 18.069 37.5195 17.418C37.5195 16.7539 37.7507 16.1842 38.2129 15.709C38.6751 15.2337 39.3392 14.8724 40.2051 14.625C41.071 14.3776 42.0964 14.2539 43.2812 14.2539ZM43.2812 15.4648C42.4089 15.4648 41.6504 15.543 41.0059 15.6992C40.3613 15.8555 39.8698 16.0801 39.5312 16.373C39.1927 16.666 39.0234 17.0143 39.0234 17.418C39.0234 17.8086 39.1927 18.1504 39.5312 18.4434C39.8698 18.7363 40.3613 18.9609 41.0059 19.1172C41.6504 19.2734 42.4089 19.3516 43.2812 19.3516C44.1536 19.3516 44.9089 19.2734 45.5469 19.1172C46.1849 18.9609 46.6732 18.7396 47.0117 18.4531C47.3503 18.1667 47.5195 17.8216 47.5195 17.418C47.5195 17.0143 47.3503 16.666 47.0117 16.373C46.6732 16.0801 46.1849 15.8555 45.5469 15.6992C44.9089 15.543 44.1536 15.4648 43.2812 15.4648ZM71.8945 13.6875H70.3711V3.21875H71.8945V13.6875ZM74.5117 9.15625H71.4648V7.84766H74.5117V9.15625ZM71.8945 20.3477H60.9375V14.6836H71.8945V20.3477ZM62.4414 19.0977H70.3711V15.9141H62.4414V19.0977ZM68.7109 6.34375H58.3594V5.07422H68.7109V6.34375ZM63.5352 7.20312C64.3685 7.20312 65.0977 7.33008 65.7227 7.58398C66.3477 7.83789 66.8359 8.19922 67.1875 8.66797C67.5391 9.13672 67.7148 9.67708 67.7148 10.2891C67.7148 10.9141 67.5391 11.4609 67.1875 11.9297C66.8359 12.3984 66.3477 12.7598 65.7227 13.0137C65.0977 13.2676 64.3685 13.3945 63.5352 13.3945C62.7018 13.3945 61.9694 13.2676 61.3379 13.0137C60.7064 12.7598 60.2181 12.3984 59.873 11.9297C59.528 11.4609 59.3555 10.9141 59.3555 10.2891C59.3555 9.67708 59.528 9.13672 59.873 8.66797C60.2181 8.19922 60.7064 7.83789 61.3379 7.58398C61.9694 7.33008 62.7018 7.20312 63.5352 7.20312ZM63.5352 8.39453C63.0013 8.39453 62.526 8.47266 62.1094 8.62891C61.6927 8.78516 61.3737 9.00651 61.1523 9.29297C60.931 9.57943 60.8203 9.91146 60.8203 10.2891C60.8203 10.6797 60.931 11.0182 61.1523 11.3047C61.3737 11.5911 61.6895 11.8125 62.0996 11.9688C62.5098 12.125 62.9883 12.2096 63.5352 12.2227C64.082 12.2096 64.5605 12.125 64.9707 11.9688C65.3809 11.8125 65.6999 11.5911 65.9277 11.3047C66.1556 11.0182 66.2695 10.6797 66.2695 10.2891C66.2695 9.91146 66.1523 9.57943 65.918 9.29297C65.6836 9.00651 65.3613 8.78516 64.9512 8.62891C64.541 8.47266 64.069 8.39453 63.5352 8.39453ZM64.2969 5.71875H62.7734V3.08203H64.2969V5.71875ZM79.9219 5.32812C79.9219 6.70833 79.8372 8.02344 79.668 9.27344C79.4987 10.5234 79.1895 11.7669 78.7402 13.0039C78.291 14.2409 77.6628 15.3867 76.8555 16.4414L75.6445 15.7383C76.4258 14.7747 77.0312 13.7331 77.4609 12.6133C77.8906 11.4935 78.1901 10.3509 78.3594 9.18555C78.5286 8.02018 78.6133 6.77344 78.6133 5.44531V5.32812H79.9219ZM79.3555 6.59766H75.9961V5.32812H79.3555V6.59766ZM83.7695 5.32812C83.7695 6.8776 83.7044 8.31315 83.5742 9.63477C83.444 10.9564 83.1576 12.3203 82.7148 13.7266C82.2721 15.1328 81.6146 16.4219 80.7422 17.5938L79.5508 16.8711C80.3841 15.8034 81.0124 14.6217 81.4355 13.3262C81.8587 12.0306 82.1322 10.7643 82.2559 9.52734C82.3796 8.29036 82.4414 6.92969 82.4414 5.44531V5.32812H83.7695ZM83.2422 6.59766H80.4688V5.32812H83.2422V6.59766ZM90.5469 20.582H89.0625V3.21875H90.5469V20.582ZM86.1523 11.3242H82.9492V10.0547H86.1523V11.3242ZM87.2852 19.7031H85.8203V3.6875H87.2852V19.7031ZM100.898 6.46094H105.957V3.96094H107.48V11.5195H99.3945V3.96094H100.898V6.46094ZM105.957 10.2695V7.65234H100.898V10.2695H105.957ZM112.227 12.2031H110.703V3.21875H112.227V12.2031ZM114.844 8.27734H111.543V6.98828H114.844V8.27734ZM112.227 17.2227H102.695V19.8398H101.191V16.0508H110.703V14.2539H101.152V13.0234H112.227V17.2227ZM112.871 20.3867H101.191V19.1367H112.871V20.3867ZM129.961 12.6133H117.969V11.3633H129.961V12.6133ZM131.836 18.3945H115.938V17.1055H131.836V18.3945ZM124.59 17.6328H123.086V11.9102H124.59V17.6328ZM129.785 5.89453H119.512V11.9492H117.969V4.64453H129.785V5.89453ZM138.828 6.51953C138.828 7.5612 138.626 8.53776 138.223 9.44922C137.819 10.3607 137.249 11.1549 136.514 11.832C135.778 12.5091 134.922 13.0234 133.945 13.375L133.164 12.1445C134.023 11.8451 134.788 11.4121 135.459 10.8457C136.13 10.2793 136.654 9.62174 137.031 8.87305C137.409 8.12435 137.598 7.33984 137.598 6.51953V5.09375H138.828V6.51953ZM139.102 6.51953C139.102 7.26172 139.281 7.97461 139.639 8.6582C139.997 9.3418 140.495 9.94076 141.133 10.4551C141.771 10.9694 142.513 11.3698 143.359 11.6562L142.637 12.8672C141.673 12.5417 140.833 12.0664 140.117 11.4414C139.401 10.8164 138.844 10.0807 138.447 9.23438C138.05 8.38802 137.852 7.48307 137.852 6.51953V5.09375H139.102V6.51953ZM143.008 5.77734H133.633V4.50781H143.008V5.77734ZM146.797 13.707H145.273V3.21875H146.797V13.707ZM149.414 8.94141H146.367V7.65234H149.414V8.94141ZM141.23 14.1758C142.415 14.1758 143.438 14.2995 144.297 14.5469C145.156 14.7943 145.814 15.1556 146.27 15.6309C146.725 16.1061 146.953 16.6758 146.953 17.3398C146.953 18.0039 146.725 18.5768 146.27 19.0586C145.814 19.5404 145.156 19.9082 144.297 20.1621C143.438 20.416 142.415 20.543 141.23 20.543C140.046 20.543 139.02 20.416 138.154 20.1621C137.288 19.9082 136.624 19.5404 136.162 19.0586C135.7 18.5768 135.469 18.0039 135.469 17.3398C135.469 16.6758 135.7 16.1061 136.162 15.6309C136.624 15.1556 137.288 14.7943 138.154 14.5469C139.02 14.2995 140.046 14.1758 141.23 14.1758ZM141.23 15.4062C140.371 15.4062 139.622 15.4811 138.984 15.6309C138.346 15.7806 137.858 16.002 137.52 16.2949C137.181 16.5879 137.012 16.9362 137.012 17.3398C137.012 17.7435 137.181 18.0951 137.52 18.3945C137.858 18.694 138.343 18.9219 138.975 19.0781C139.606 19.2344 140.358 19.3125 141.23 19.3125C142.116 19.3125 142.874 19.2344 143.506 19.0781C144.137 18.9219 144.622 18.694 144.961 18.3945C145.299 18.0951 145.469 17.7435 145.469 17.3398C145.469 16.9362 145.299 16.5879 144.961 16.2949C144.622 16.002 144.134 15.7806 143.496 15.6309C142.858 15.4811 142.103 15.4062 141.23 15.4062ZM158.418 3.53125C159.707 3.53125 160.811 3.64518 161.729 3.87305C162.646 4.10091 163.346 4.43945 163.828 4.88867C164.31 5.33789 164.551 5.88151 164.551 6.51953C164.551 7.17057 164.31 7.7207 163.828 8.16992C163.346 8.61914 162.646 8.96094 161.729 9.19531C160.811 9.42969 159.707 9.55339 158.418 9.56641C157.129 9.55339 156.025 9.42969 155.107 9.19531C154.189 8.96094 153.486 8.61914 152.998 8.16992C152.51 7.7207 152.266 7.17057 152.266 6.51953C152.266 5.88151 152.51 5.33789 152.998 4.88867C153.486 4.43945 154.189 4.10091 155.107 3.87305C156.025 3.64518 157.129 3.53125 158.418 3.53125ZM158.418 4.68359C157.467 4.68359 156.65 4.75521 155.967 4.89844C155.283 5.04167 154.762 5.25326 154.404 5.5332C154.046 5.81315 153.867 6.14193 153.867 6.51953C153.867 6.92318 154.043 7.26497 154.395 7.54492C154.746 7.82487 155.264 8.03646 155.947 8.17969C156.631 8.32292 157.454 8.39453 158.418 8.39453C159.382 8.39453 160.205 8.32292 160.889 8.17969C161.572 8.03646 162.093 7.82161 162.451 7.53516C162.809 7.2487 162.988 6.91016 162.988 6.51953C162.988 6.14193 162.806 5.81641 162.441 5.54297C162.077 5.26953 161.553 5.05794 160.869 4.9082C160.186 4.75846 159.368 4.68359 158.418 4.68359ZM166.328 11.9883H150.508V10.7383H166.328V11.9883ZM164.297 17.3789H153.984V19.4883H152.461V16.2461H162.793V14.6641H152.422V13.4922H164.297V17.3789ZM164.824 20.3867H152.461V19.1758H164.824V20.3867ZM187.129 13.043H185.605V3.23828H187.129V13.043ZM189.766 8.51172H186.738V7.22266H189.766V8.51172ZM187.129 20.3477H176.133V14H187.129V20.3477ZM177.637 19.0977H185.645V15.2109H177.637V19.0977ZM175.938 11.0508H174.395V4.11719H175.938V11.0508ZM175.781 10.4258C177.122 10.4258 178.447 10.3639 179.756 10.2402C181.064 10.1165 182.402 9.91797 183.77 9.64453L183.965 10.9336C182.559 11.207 181.191 11.4056 179.863 11.5293C178.535 11.653 177.174 11.7148 175.781 11.7148H174.395V10.4258H175.781ZM199.648 5.11328C199.648 6.80599 199.378 8.40104 198.838 9.89844C198.298 11.3958 197.435 12.776 196.25 14.0391C195.065 15.3021 193.535 16.3893 191.66 17.3008L190.859 16.0508C192.513 15.2565 193.88 14.319 194.961 13.2383C196.042 12.1576 196.842 10.9564 197.363 9.63477C197.884 8.31315 198.145 6.88411 198.145 5.34766V5.11328H199.648ZM198.906 6.36328H191.621V5.11328H198.906V6.36328ZM205.215 20.582H203.691V3.19922H205.215V20.582ZM204.004 9.25391H199.004V8.00391H204.004V9.25391ZM203.828 13.9023H198.789V12.6328H203.828V13.9023ZM210.605 7.32031H216.25V4.66406H217.773V12.4766H209.082V4.66406H210.605V7.32031ZM216.25 11.2266V8.51172H210.605V11.2266H216.25ZM214.199 16.0898H212.656V12.0273H214.199V16.0898ZM221.543 20.582H220.02V3.21875H221.543V20.582ZM224.375 11.8125H221.133V10.5234H224.375V11.8125ZM209.18 15.7188C211.224 15.6927 213.014 15.6471 214.551 15.582C216.087 15.5169 217.539 15.3932 218.906 15.2109L219.004 16.3633C217.871 16.5456 216.68 16.6823 215.43 16.7734C214.18 16.8646 212.988 16.9264 211.855 16.959C210.723 16.9915 209.492 17.0143 208.164 17.0273L207.91 15.7188H209.18ZM230.859 17.3789H229.355V12.1836H230.859V17.3789ZM237.363 17.3789H235.82V12.1836H237.363V17.3789ZM241.309 18.3555H225.41V17.0664H241.309V18.3555ZM233.32 4.3125C234.557 4.3125 235.654 4.49805 236.611 4.86914C237.568 5.24023 238.317 5.76432 238.857 6.44141C239.398 7.11849 239.668 7.89974 239.668 8.78516C239.668 9.67057 239.398 10.4486 238.857 11.1191C238.317 11.7897 237.568 12.3105 236.611 12.6816C235.654 13.0527 234.557 13.2383 233.32 13.2383C232.096 13.2383 231.003 13.0527 230.039 12.6816C229.076 12.3105 228.324 11.7897 227.783 11.1191C227.243 10.4486 226.973 9.67057 226.973 8.78516C226.973 7.89974 227.243 7.11849 227.783 6.44141C228.324 5.76432 229.076 5.24023 230.039 4.86914C231.003 4.49805 232.096 4.3125 233.32 4.3125ZM233.32 5.58203C232.383 5.56901 231.546 5.69596 230.811 5.96289C230.075 6.22982 229.499 6.60742 229.082 7.0957C228.665 7.58398 228.457 8.14714 228.457 8.78516C228.457 9.42318 228.665 9.98633 229.082 10.4746C229.499 10.9629 230.075 11.3438 230.811 11.6172C231.546 11.8906 232.383 12.0273 233.32 12.0273C234.258 12.0273 235.094 11.8906 235.83 11.6172C236.566 11.3438 237.142 10.9629 237.559 10.4746C237.975 9.98633 238.184 9.42318 238.184 8.78516C238.184 8.14714 237.975 7.58398 237.559 7.0957C237.142 6.60742 236.566 6.22982 235.83 5.96289C235.094 5.69596 234.258 5.56901 233.32 5.58203Z" fill="#1D1D1D"/>
<path fill-rule="evenodd" clip-rule="evenodd" d="M26.7516 50.1099C26.7516 42.8695 20.9869 37 13.8758 37C6.76468 37 1 42.8695 1 50.1099C1 51.7382 1.29155 53.2971 1.82439 54.7356C4.22317 62.89 13.9434 71.3354 13.9434 71.3354C13.9434 71.3354 25.3655 61.4114 26.5019 52.6918C26.6657 51.857 26.7516 50.9937 26.7516 50.1099ZM13.875 45.1157C16.584 45.1157 18.7801 47.3517 18.7801 50.1099C18.7801 52.8682 16.584 55.1042 13.875 55.1042C11.166 55.1042 8.96995 52.8682 8.96995 50.1099C8.96995 47.3517 11.166 45.1157 13.875 45.1157Z" fill="#246BEB"/>
<path d="M46.0583 70.8225H40.6763V43.6267C39.6977 43.7083 38.7599 43.7762 37.8629 43.8306C36.9659 43.8578 36.1232 43.8985 35.335 43.9529V39.0601C36.8028 39.0057 38.4609 38.9106 40.3093 38.7747C42.1849 38.6116 44.1012 38.4213 46.0583 38.2039V70.8225Z" fill="#246BEB"/>
<path d="M52.5951 48.5195C52.5951 46.8886 52.867 45.4207 53.4106 44.116C53.9814 42.8113 54.7561 41.7104 55.7347 40.8134C56.7132 39.9163 57.8685 39.2232 59.2004 38.7339C60.5595 38.2446 62.0138 38 63.5632 38C65.1125 38 66.5532 38.2446 67.8851 38.7339C69.2442 39.2232 70.4131 39.9163 71.3916 40.8134C72.3702 41.7104 73.1313 42.8113 73.6749 44.116C74.2458 45.4207 74.5312 46.8886 74.5312 48.5195V60.9146C74.5312 62.5455 74.2458 64.0134 73.6749 65.3181C73.1313 66.6229 72.3702 67.7237 71.3916 68.6208C70.4131 69.5178 69.2442 70.2109 67.8851 70.7002C66.5532 71.1895 65.1125 71.4341 63.5632 71.4341C62.0138 71.4341 60.5595 71.1895 59.2004 70.7002C57.8685 70.2109 56.7132 69.5178 55.7347 68.6208C54.7561 67.7237 53.9814 66.6229 53.4106 65.3181C52.867 64.0134 52.5951 62.5455 52.5951 60.9146V48.5195ZM57.9772 60.9146C57.9772 62.7086 58.4801 64.0949 59.4858 65.0735C60.4916 66.052 61.8507 66.5413 63.5632 66.5413C65.2756 66.5413 66.6347 66.052 67.6405 65.0735C68.6462 64.0949 69.1491 62.7086 69.1491 60.9146V48.5195C69.1491 46.7255 68.6462 45.3392 67.6405 44.3606C66.6347 43.3821 65.2756 42.8928 63.5632 42.8928C61.8507 42.8928 60.4916 43.3821 59.4858 44.3606C58.4801 45.3392 57.9772 46.7255 57.9772 48.5195V60.9146Z" fill="#246BEB"/>
<path d="M89.9925 54.1462C91.5963 54.1462 92.9146 53.6434 93.9476 52.6376C94.9805 51.6319 95.4969 50.2592 95.4969 48.5195C95.4969 46.7255 94.9805 45.3392 93.9476 44.3606C92.9146 43.3821 91.5963 42.8928 89.9925 42.8928C88.3888 42.8928 87.0704 43.3821 86.0375 44.3606C85.0046 45.3392 84.4881 46.7255 84.4881 48.5195C84.4881 50.2592 85.0046 51.6319 86.0375 52.6376C87.0704 53.6434 88.3888 54.1462 89.9925 54.1462ZM84.6512 61.6893C84.7871 63.2115 85.3036 64.4075 86.2006 65.2773C87.0976 66.1472 88.3208 66.5821 89.8702 66.5821C91.5011 66.5821 92.8195 66.12 93.8252 65.1958C94.8582 64.2444 95.3746 62.8309 95.3746 60.9554V56.4703C94.5863 57.2314 93.6485 57.8158 92.5613 58.2236C91.5012 58.6041 90.2372 58.7944 88.7693 58.7944C87.6005 58.7944 86.4317 58.5905 85.2628 58.1828C84.1212 57.7479 83.0883 57.1091 82.1641 56.2664C81.267 55.3966 80.5331 54.3229 79.9623 53.0454C79.3915 51.7678 79.1061 50.2592 79.1061 48.5195C79.1061 47.106 79.3235 45.7605 79.7584 44.483C80.2205 43.2054 80.9001 42.0909 81.7971 41.1395C82.6941 40.1882 83.8222 39.4271 85.1813 38.8562C86.5404 38.2854 88.1306 38 89.9518 38C91.5011 38 92.9418 38.2446 94.2737 38.7339C95.6057 39.2232 96.7609 39.9299 97.7395 40.8541C98.718 41.7511 99.4791 42.852 100.023 44.1568C100.594 45.4343 100.879 46.8886 100.879 48.5195V60.9554C100.879 62.5863 100.594 64.0541 100.023 65.3589C99.4791 66.6365 98.718 67.7237 97.7395 68.6208C96.7609 69.5178 95.5921 70.2109 94.233 70.7002C92.901 71.1895 91.4468 71.4341 89.8702 71.4341C88.4296 71.4341 87.0704 71.2167 85.7929 70.7817C84.5153 70.3468 83.3873 69.708 82.4087 68.8654C81.4301 68.0228 80.6419 67.0034 80.0439 65.8074C79.4458 64.6114 79.1061 63.2387 79.0245 61.6893H84.6512Z" fill="#246BEB"/>
<path d="M137.943 41.5832H112.198V37.9808H137.943V41.5832ZM137.736 49.6935H112.443V46.0721H137.736V49.6935ZM121.459 48.4298H116.649V39.3765H121.459V48.4298ZM133.492 48.4298H128.664V39.3765H133.492V48.4298ZM140.773 55.2575H109.463V51.4853H140.773V55.2575ZM136.944 65.7065H117.819V68.9505H113.085V62.4246H132.191V60.6706H113.066V57.219H136.944V65.7065ZM137.849 71.1196H113.085V67.5926H137.849V71.1196Z" fill="#246BEB"/>
<path d="M146.223 59.3503C148.751 59.3503 150.926 59.2937 152.749 59.1805C154.585 59.0674 156.496 58.8348 158.483 58.4827L158.898 62.3869C156.861 62.7641 154.912 63.0093 153.051 63.1225C151.19 63.2357 148.914 63.2985 146.223 63.3111H143.79V59.3503H146.223ZM155.937 53.4845H148.43V60.9346H143.79V49.6746H151.316V44.2803H143.753V40.4516H155.937V53.4845ZM172.497 71.3648H167.97V37H172.497V71.3648ZM162.859 52.6358H157.389V48.7504H162.859V52.6358ZM165.405 69.705H160.897V37.6601H165.405V69.705Z" fill="#246BEB"/>
<path d="M204.957 71.4591H200.072V37H204.957V71.4591ZM186.303 39.4331C188.026 39.4331 189.572 39.936 190.943 40.942C192.326 41.9479 193.401 43.375 194.168 45.2234C194.948 47.0718 195.338 49.2219 195.338 51.6739C195.338 54.1384 194.948 56.2948 194.168 58.1432C193.401 59.9916 192.326 61.4187 190.943 62.4246C189.572 63.418 188.026 63.9147 186.303 63.9147C184.555 63.9147 182.99 63.418 181.607 62.4246C180.236 61.4187 179.161 59.9916 178.382 58.1432C177.602 56.2948 177.212 54.1384 177.212 51.6739C177.212 49.2219 177.602 47.0718 178.382 45.2234C179.161 43.375 180.236 41.9479 181.607 40.942C182.99 39.936 184.555 39.4331 186.303 39.4331ZM186.303 43.79C185.423 43.7774 184.643 44.0792 183.964 44.6953C183.298 45.2988 182.782 46.1979 182.418 47.3924C182.066 48.5744 181.89 50.0015 181.89 51.6739C181.89 53.3462 182.066 54.7734 182.418 55.9553C182.782 57.1373 183.298 58.0363 183.964 58.6524C184.643 59.256 185.423 59.5578 186.303 59.5578C187.171 59.5578 187.938 59.256 188.604 58.6524C189.271 58.0363 189.786 57.1373 190.151 55.9553C190.515 54.7734 190.698 53.3462 190.698 51.6739C190.698 50.0015 190.515 48.5744 190.151 47.3924C189.786 46.1979 189.271 45.2988 188.604 44.6953C187.95 44.0792 187.183 43.7774 186.303 43.79Z" fill="#246BEB"/>
<path d="M226.76 41.5455C226.76 44.0352 226.175 46.3676 225.006 48.5429C223.837 50.7182 222.17 52.5792 220.008 54.1258C217.858 55.6598 215.336 56.716 212.444 57.2944L210.389 53.2959C212.853 52.8307 215.003 51.9945 216.839 50.7874C218.687 49.5803 220.096 48.1657 221.064 46.5437C222.045 44.9216 222.535 43.2556 222.535 41.5455V39.0936H226.76V41.5455ZM227.646 41.5455C227.646 43.2681 228.131 44.9468 229.099 46.5814C230.08 48.216 231.494 49.6369 233.342 50.844C235.203 52.0385 237.379 52.8558 239.868 53.2959L237.756 57.2944C234.889 56.716 232.374 55.6661 230.212 54.1447C228.061 52.6232 226.408 50.7748 225.251 48.5995C224.094 46.4242 223.516 44.0729 223.516 41.5455V39.0936H227.646V41.5455ZM241 67.1588H209.615V63.2168H241V67.1588Z" fill="#246BEB"/>
</svg>
