<svg xmlns="http://www.w3.org/2000/svg"><style>:root svg:not(:target){display:none}</style><svg viewBox="0 0 24 24" fill="none" id="Close"><path fill-rule="evenodd" clip-rule="evenodd" d="M5.28033 4.21967C4.98744 3.92678 4.51256 3.92678 4.21967 4.21967C3.92678 4.51256 3.92678 4.98744 4.21967 5.28033L10.9371 11.9977L4.21967 18.7151C3.92678 19.008 3.92678 19.4829 4.21967 19.7758C4.51256 20.0687 4.98744 20.0687 5.28033 19.7758L11.9977 13.0584L18.7151 19.7758C19.008 20.0687 19.4829 20.0687 19.7758 19.7758C20.0687 19.4829 20.0687 19.008 19.7758 18.7151L13.0584 11.9977L19.7758 5.28034C20.0687 4.98745 20.0687 4.51258 19.7758 4.21968C19.4829 3.92679 19.008 3.92679 18.7151 4.21968L11.9977 10.9371L5.28033 4.21967Z" fill="black"></path></svg><svg viewBox="0 0 40 40" fill="none" id="icon24_photo"><rect width="40" height="40" rx="20" fill="#EFF5FF"></rect><path d="M20 11L19.9197 28.9998" stroke="#246BEB" stroke-width="2" stroke-linecap="round"></path><path d="M29 20L11.0002 20.0803" stroke="#246BEB" stroke-width="2" stroke-linecap="round"></path></svg><svg viewBox="0 0 32 32" fill="none" id="icon_3dot_menu"><path fill-rule="evenodd" clip-rule="evenodd" d="M17.5 9.5C17.5 10.3284 16.8284 11 16 11C15.1716 11 14.5 10.3284 14.5 9.5C14.5 8.67157 15.1716 8 16 8C16.8284 8 17.5 8.67157 17.5 9.5ZM16 17.5C16.8284 17.5 17.5 16.8284 17.5 16C17.5 15.1716 16.8284 14.5 16 14.5C15.1716 14.5 14.5 15.1716 14.5 16C14.5 16.8284 15.1716 17.5 16 17.5ZM16 24C16.8284 24 17.5 23.3284 17.5 22.5C17.5 21.6716 16.8284 21 16 21C15.1716 21 14.5 21.6716 14.5 22.5C14.5 23.3284 15.1716 24 16 24Z" fill="#C6C6C6"></path></svg><svg viewBox="0 0 25 24" fill="none" id="icon_call"><path d="M20.6961 16.1175L17.4403 13.5975C17.2831 13.4762 17.087 13.4163 16.8888 13.4291C16.6906 13.4419 16.5039 13.5265 16.3635 13.667L14.6354 15.3958C14.5067 15.5259 14.3379 15.6086 14.1563 15.6307C13.9747 15.6529 13.7909 15.6131 13.6348 15.5178C13.0784 15.1766 12.1472 14.5155 10.9821 13.3496C9.8169 12.1853 9.15577 11.2534 8.81457 10.6979C8.71913 10.5418 8.67932 10.3581 8.7016 10.1766C8.72389 9.99503 8.80696 9.82638 8.9373 9.69806L10.6654 7.96925C10.8062 7.82901 10.8908 7.64218 10.9035 7.44389C10.9161 7.24561 10.8559 7.04953 10.7341 6.89253L8.21481 3.63618C7.64205 2.89737 6.56198 2.78037 5.85831 3.3981C4.93125 4.21136 3.81764 5.42963 3.49363 6.7968C2.90696 9.25952 3.83401 12.3498 7.90879 16.4243C11.9836 20.498 15.074 21.4258 17.5361 20.84C18.9033 20.5144 20.1225 19.4 20.9358 18.4738C21.5528 17.7702 21.4357 16.6902 20.6961 16.1175" stroke="#2D2D2D" stroke-width="1.5"></path></svg><svg viewBox="0 0 11 12" fill="none" id="icon_call2"><path fill-rule="evenodd" clip-rule="evenodd" d="M9.12974 7.69993L7.52197 6.4555C7.44432 6.39558 7.3475 6.36601 7.24962 6.37233C7.15174 6.37866 7.05952 6.42043 6.99023 6.48984L6.13684 7.34357C6.07328 7.40778 5.98991 7.44865 5.90022 7.45957C5.81054 7.4705 5.71979 7.45084 5.64267 7.40377C5.36791 7.23529 4.90809 6.90883 4.3327 6.33307C3.75731 5.75813 3.43083 5.29793 3.26234 5.02359C3.21521 4.94653 3.19555 4.8558 3.20655 4.76615C3.21756 4.6765 3.25858 4.59322 3.32294 4.52985L4.17633 3.67612C4.24584 3.60686 4.28765 3.5146 4.2939 3.41668C4.30015 3.31876 4.27041 3.22193 4.21027 3.1444L2.96616 1.53633C2.68331 1.17149 2.14995 1.11371 1.80245 1.41876C1.34465 1.82037 0.794719 2.42198 0.63471 3.09713C0.344996 4.31329 0.8028 5.83934 2.81504 7.85145C4.82727 9.86316 6.35342 10.3213 7.56925 10.032C8.24444 9.87124 8.84649 9.32094 9.24813 8.86356C9.5528 8.51609 9.49502 7.98276 9.12974 7.69993" fill="#C6C6C6"></path></svg><svg viewBox="0 0 36 36" fill="none" id="icon_camera"><g filter="url(#icon_camera_0)"><rect x="2" width="32" height="32" rx="16" fill="white" shape-rendering="crispEdges"></rect><path fill-rule="evenodd" clip-rule="evenodd" d="M13 11.8333H12.1667C11.2462 11.8333 10.5 12.5794 10.5 13.4999V20.9999C10.5 21.9204 11.2462 22.6666 12.1667 22.6666H23.8333C24.7538 22.6666 25.5 21.9204 25.5 20.9999V13.4999C25.5 12.5794 24.7538 11.8333 23.8333 11.8333H23C22.0795 11.8333 21.3333 11.0871 21.3333 10.1666C21.3333 9.70635 20.9602 9.33325 20.5 9.33325H15.5C15.0398 9.33325 14.6667 9.70635 14.6667 10.1666C14.6667 11.0871 13.9205 11.8333 13 11.8333ZM18 19.3333C19.3807 19.3333 20.5 18.214 20.5 16.8333C20.5 15.4526 19.3807 14.3333 18 14.3333C16.6193 14.3333 15.5 15.4526 15.5 16.8333C15.5 18.214 16.6193 19.3333 18 19.3333Z" fill="#1D1D1D"></path></g><defs><filter id="icon_camera_0" x="0" y="0" width="36" height="36" filterUnits="userSpaceOnUse" color-interpolation-filters="sRGB"><feFlood flood-opacity="0" result="BackgroundImageFix"></feFlood><feColorMatrix in="SourceAlpha" type="matrix" values="0 0 0 0 0 0 0 0 0 0 0 0 0 0 0 0 0 0 127 0" result="hardAlpha"></feColorMatrix><feOffset dy="2"></feOffset><feGaussianBlur stdDeviation="1"></feGaussianBlur><feComposite in2="hardAlpha" operator="out"></feComposite><feColorMatrix type="matrix" values="0 0 0 0 0 0 0 0 0 0 0 0 0 0 0 0 0 0 0.12 0"></feColorMatrix><feBlend mode="normal" in2="BackgroundImageFix" result="effect1_dropShadow_304_16459"></feBlend><feBlend mode="normal" in="SourceGraphic" in2="effect1_dropShadow_304_16459" result="shape"></feBlend></filter></defs></svg><svg viewBox="0 0 16 16" fill="none" id="icon_check"><path d="M4 8L7.63158 11.5L12.5 4" stroke="#246BEB" stroke-width="1.8" stroke-linecap="round"></path></svg><svg viewBox="0 0 11 11" fill="none" id="icon_clock"><path fill-rule="evenodd" clip-rule="evenodd" d="M5.77777 5.56044C5.77777 5.57511 5.77066 5.588 5.76932 5.60222C5.76682 5.63233 5.7607 5.66202 5.7511 5.69067C5.73501 5.74381 5.70875 5.79332 5.67377 5.83644C5.65421 5.86 5.63377 5.88089 5.60977 5.90044C5.59866 5.90933 5.59199 5.92222 5.57999 5.93022L3.47955 7.33022C3.38146 7.39314 3.2626 7.41502 3.14854 7.39116C3.03448 7.36729 2.93436 7.29958 2.86973 7.20262C2.80511 7.10565 2.78115 6.98718 2.80302 6.87273C2.82489 6.75827 2.89084 6.65698 2.98666 6.59067L4.88888 5.32267V3.24711C4.88888 3.12924 4.9357 3.01619 5.01905 2.93284C5.1024 2.84949 5.21545 2.80267 5.33332 2.80267C5.4512 2.80267 5.56424 2.84949 5.64759 2.93284C5.73094 3.01619 5.77777 3.12924 5.77777 3.24711V5.56044V5.56044ZM5.33332 1C2.75599 1 0.666656 3.08933 0.666656 5.66667C0.666656 8.244 2.75599 10.3333 5.33332 10.3333C7.91066 10.3333 9.99999 8.244 9.99999 5.66667C9.99999 3.08933 7.91066 1 5.33332 1Z" fill="#C6C6C6"></path></svg><svg viewBox="0 0 24 24" fill="none" id="icon_navigation_bookmark_after"><path d="M13.4081 3.22231L13.4083 3.2229L15.3326 8.07166L15.3344 8.07619L15.3344 8.07619C15.3376 8.08454 15.3413 8.08961 15.3437 8.09232L15.3493 8.09274L20.3587 8.51558C20.3589 8.5156 20.3591 8.51562 20.3594 8.51564L20.3601 8.5157L20.297 9.26304C20.4472 9.27544 20.5906 9.3346 20.709 9.43316C20.8274 9.53173 20.9156 9.6652 20.9624 9.81675C21.0091 9.9683 21.0124 10.1311 20.9717 10.2846C20.9311 10.4381 20.8483 10.5755 20.7339 10.6792L13.4081 3.22231ZM13.4081 3.22231C13.2969 2.94292 13.1077 2.69798 12.858 2.52258C12.6076 2.34666 12.3091 2.25 12 2.25C11.6909 2.25 11.3924 2.34666 11.142 2.52258C10.8923 2.69802 10.7031 2.94299 10.592 3.22231L10.5917 3.2229L8.66739 8.07166L8.66737 8.07165L8.66561 8.07619C8.66236 8.08454 8.65868 8.08961 8.65627 8.09232L13.4081 3.22231ZM12.0045 18.7687L16.2823 21.5078L3.64134 8.51558L3.70303 9.26303L3.63994 8.5157L3.64069 8.51564C3.3337 8.54111 3.04531 8.66185 2.81119 8.8567C2.57766 9.05108 2.40926 9.30945 2.32096 9.59565C2.23277 9.88154 2.22668 10.1875 2.30328 10.4767C2.3799 10.7659 2.53741 11.0308 2.76217 11.2347L2.7658 11.238L6.57731 14.6507L6.57729 14.6508L6.58208 14.655C6.58416 14.6568 6.59055 14.6637 6.59502 14.6779C6.59947 14.692 6.60031 14.7084 6.59693 14.7239C6.5969 14.724 6.59687 14.7241 6.59684 14.7243L5.43562 19.8349C5.43553 19.8353 5.43544 19.8357 5.43535 19.8361C5.36837 20.1284 5.38486 20.4352 5.48365 20.7189C5.58267 21.0034 5.76176 21.2566 6.00449 21.4425C6.24791 21.6288 6.54322 21.7376 6.85302 21.749C7.16112 21.7604 7.46219 21.6746 7.71777 21.5077L11.9955 18.7687C11.9958 18.7686 11.996 18.7684 11.9963 18.7682C12.0002 18.7659 12.0014 18.7664 12 18.7664C11.9986 18.7664 11.9998 18.7659 12.0037 18.7682C12.004 18.7684 12.0042 18.7686 12.0045 18.7687Z" fill="white" stroke="#246BEB" stroke-width="1.5" stroke-linecap="round" stroke-linejoin="round"></path></svg><svg viewBox="0 0 24 24" fill="none" id="icon_navigation_bookmark_before"><mask id="icon_navigation_bookmark_before_0" maskUnits="userSpaceOnUse" x="1" y="1" width="22" height="22" fill="black"><rect fill="white" x="1" y="1" width="22" height="22"></rect><path d="M12.7112 3.49956L14.6355 8.34832C14.6894 8.48667 14.779 8.60616 14.8941 8.69313C15.0092 8.7801 15.1451 8.83104 15.2863 8.84008L20.297 9.26304C20.4472 9.27544 20.5906 9.3346 20.709 9.43316C20.8274 9.53173 20.9156 9.6652 20.9624 9.81675C21.0091 9.9683 21.0124 10.1311 20.9717 10.2846C20.9311 10.4381 20.8483 10.5755 20.7339 10.6792L16.9224 14.092C16.8146 14.1869 16.734 14.3118 16.6896 14.4525C16.6453 14.5933 16.639 14.7444 16.6714 14.8887L17.8334 20.0029C17.8692 20.1586 17.8604 20.322 17.8081 20.4723C17.7557 20.6226 17.6623 20.753 17.5396 20.8469C17.417 20.9408 17.2706 20.9939 17.1193 20.9995C16.968 21.0051 16.8186 20.9629 16.69 20.8783L12.4044 18.1342C12.2821 18.0571 12.1424 18.0164 12 18.0164C11.8576 18.0164 11.7179 18.0571 11.5956 18.1342L7.31001 20.8783C7.18146 20.9629 7.032 21.0051 6.88069 20.9995C6.72937 20.9939 6.58305 20.9408 6.46038 20.8469C6.33772 20.753 6.24428 20.6226 6.19194 20.4723C6.13961 20.322 6.13077 20.1586 6.16655 20.0029L7.3286 14.8887C7.36103 14.7444 7.3547 14.5933 7.31035 14.4525C7.26601 14.3118 7.18541 14.1869 7.0776 14.092L3.2661 10.6792C3.15171 10.5755 3.06893 10.4381 3.02827 10.2846C2.98761 10.1311 2.99088 9.9683 3.03763 9.81675C3.08439 9.6652 3.17255 9.53173 3.29098 9.43316C3.40941 9.3346 3.5528 9.27544 3.70303 9.26304L8.71374 8.84008C8.85491 8.83104 8.99084 8.7801 9.10593 8.69313C9.22102 8.60616 9.31063 8.48667 9.3645 8.34832L11.2888 3.49956C11.3478 3.35148 11.4466 3.22514 11.5731 3.13627C11.6996 3.04739 11.8481 3 12 3C12.1519 3 12.3004 3.04739 12.4269 3.13627C12.5534 3.22514 12.6523 3.35148 12.7112 3.49956Z"></path></mask><path d="M12.7112 3.49956L14.6355 8.34832C14.6894 8.48667 14.779 8.60616 14.8941 8.69313C15.0092 8.7801 15.1451 8.83104 15.2863 8.84008L20.297 9.26304C20.4472 9.27544 20.5906 9.3346 20.709 9.43316C20.8274 9.53173 20.9156 9.6652 20.9624 9.81675C21.0091 9.9683 21.0124 10.1311 20.9717 10.2846C20.9311 10.4381 20.8483 10.5755 20.7339 10.6792L16.9224 14.092C16.8146 14.1869 16.734 14.3118 16.6896 14.4525C16.6453 14.5933 16.639 14.7444 16.6714 14.8887L17.8334 20.0029C17.8692 20.1586 17.8604 20.322 17.8081 20.4723C17.7557 20.6226 17.6623 20.753 17.5396 20.8469C17.417 20.9408 17.2706 20.9939 17.1193 20.9995C16.968 21.0051 16.8186 20.9629 16.69 20.8783L12.4044 18.1342C12.2821 18.0571 12.1424 18.0164 12 18.0164C11.8576 18.0164 11.7179 18.0571 11.5956 18.1342L7.31001 20.8783C7.18146 20.9629 7.032 21.0051 6.88069 20.9995C6.72937 20.9939 6.58305 20.9408 6.46038 20.8469C6.33772 20.753 6.24428 20.6226 6.19194 20.4723C6.13961 20.322 6.13077 20.1586 6.16655 20.0029L7.3286 14.8887C7.36103 14.7444 7.3547 14.5933 7.31035 14.4525C7.26601 14.3118 7.18541 14.1869 7.0776 14.092L3.2661 10.6792C3.15171 10.5755 3.06893 10.4381 3.02827 10.2846C2.98761 10.1311 2.99088 9.9683 3.03763 9.81675C3.08439 9.6652 3.17255 9.53173 3.29098 9.43316C3.40941 9.3346 3.5528 9.27544 3.70303 9.26304L8.71374 8.84008C8.85491 8.83104 8.99084 8.7801 9.10593 8.69313C9.22102 8.60616 9.31063 8.48667 9.3645 8.34832L11.2888 3.49956C11.3478 3.35148 11.4466 3.22514 11.5731 3.13627C11.6996 3.04739 11.8481 3 12 3C12.1519 3 12.3004 3.04739 12.4269 3.13627C12.5534 3.22514 12.6523 3.35148 12.7112 3.49956Z" fill="white"></path><path d="M12.7112 3.49956L14.1054 2.94624L14.1049 2.94507L12.7112 3.49956ZM14.6355 8.34832L16.0333 7.80405L16.0297 7.795L14.6355 8.34832ZM15.2863 8.84008L15.4124 7.3454C15.4023 7.34454 15.3922 7.34379 15.3821 7.34315L15.2863 8.84008ZM20.297 9.26304L20.1708 10.7577L20.1736 10.758L20.297 9.26304ZM20.7339 10.6792L21.7345 11.7968L21.7418 11.7902L20.7339 10.6792ZM16.9224 14.092L17.9135 15.218L17.923 15.2095L16.9224 14.092ZM16.6714 14.8887L15.2079 15.2175L15.2087 15.2211L16.6714 14.8887ZM17.8334 20.0029L16.3707 20.3353L16.3716 20.339L17.8334 20.0029ZM16.69 20.8783L17.5148 19.6254C17.5095 19.6219 17.5042 19.6184 17.4989 19.615L16.69 20.8783ZM12.4044 18.1342L13.2132 16.8709L13.2041 16.8652L12.4044 18.1342ZM12 18.0164V19.5164V18.0164ZM11.5956 18.1342L10.7958 16.8652L10.7868 16.871L11.5956 18.1342ZM7.31001 20.8783L6.50117 19.615C6.49583 19.6184 6.49051 19.6219 6.48521 19.6254L7.31001 20.8783ZM6.16655 20.0029L7.62843 20.339L7.62927 20.3353L6.16655 20.0029ZM7.3286 14.8887L8.79132 15.2211L8.79211 15.2175L7.3286 14.8887ZM7.0776 14.092L6.07697 15.2095L6.08655 15.218L7.0776 14.092ZM3.2661 10.6792L2.25823 11.7902L2.26551 11.7967L3.2661 10.6792ZM3.70303 9.26304L3.8264 10.758L3.8292 10.7577L3.70303 9.26304ZM8.71374 8.84008L8.61787 7.34315C8.60777 7.34379 8.59766 7.34454 8.58757 7.3454L8.71374 8.84008ZM9.3645 8.34832L7.97025 7.79499L7.96672 7.80407L9.3645 8.34832ZM11.2888 3.49956L9.89509 2.94507L9.89463 2.94623L11.2888 3.49956ZM12 3V4.5V3ZM11.317 4.05288L13.2413 8.90164L16.0297 7.795L14.1054 2.94624L11.317 4.05288ZM13.2377 8.89258C13.3894 9.28203 13.6462 9.63027 13.9897 9.88986L15.7984 7.4964C15.9118 7.58205 15.9894 7.69131 16.0333 7.80407L13.2377 8.89258ZM13.9897 9.88986C14.3341 10.1501 14.75 10.3088 15.1904 10.337L15.3821 7.34315C15.5402 7.35327 15.6842 7.41008 15.7984 7.4964L13.9897 9.88986ZM15.1601 10.3348L20.1708 10.7577L20.4231 7.76836L15.4124 7.3454L15.1601 10.3348ZM20.1736 10.758C20.0098 10.7444 19.8627 10.6804 19.7494 10.5861L21.6686 8.28024C21.3185 7.98883 20.8846 7.80644 20.4203 7.76813L20.1736 10.758ZM19.7494 10.5861C19.6377 10.493 19.5654 10.3767 19.529 10.2589L22.3957 9.37455C22.2659 8.9537 22.0172 8.57042 21.6686 8.28024L19.7494 10.5861ZM19.529 10.2589C19.4929 10.1418 19.4905 10.0183 19.5217 9.90051L22.4217 10.6687C22.5343 10.2439 22.5253 9.79478 22.3957 9.37455L19.529 10.2589ZM19.5217 9.90051C19.553 9.7825 19.6197 9.66478 19.7261 9.56828L21.7418 11.7902C22.0769 11.4862 22.3091 11.0937 22.4217 10.6687L19.5217 9.90051ZM19.7333 9.56174L15.9218 12.9745L17.923 15.2095L21.7345 11.7967L19.7333 9.56174ZM15.9314 12.966C15.6122 13.2469 15.3831 13.6077 15.259 14.0018L18.1203 14.9033C18.0849 15.0158 18.017 15.1269 17.9135 15.218L15.9314 12.966ZM15.259 14.0018C15.1349 14.3955 15.1176 14.8156 15.2079 15.2175L18.1349 14.5599C18.1604 14.6731 18.1557 14.791 18.1203 14.9033L15.259 14.0018ZM15.2087 15.2211L16.3707 20.3353L19.2962 19.6706L18.1341 14.5563L15.2087 15.2211ZM16.3716 20.339C16.3443 20.2205 16.3506 20.0965 16.3915 19.9791L19.2247 20.9655C19.3702 20.5476 19.3941 20.0966 19.2953 19.6668L16.3716 20.339ZM16.3915 19.9791C16.4325 19.8612 16.5104 19.7458 16.6278 19.6558L18.4514 22.038C18.8142 21.7603 19.0789 21.3841 19.2247 20.9655L16.3915 19.9791ZM16.6278 19.6558C16.7467 19.5649 16.8983 19.5066 17.064 19.5005L17.1746 22.4985C17.6429 22.4812 18.0872 22.3168 18.4514 22.038L16.6278 19.6558ZM17.064 19.5005C17.23 19.4944 17.3874 19.5415 17.5148 19.6254L15.8652 22.1311C16.2498 22.3843 16.706 22.5158 17.1746 22.4985L17.064 19.5005ZM17.4989 19.615L13.2132 16.871L11.5956 19.3975L15.8812 22.1415L17.4989 19.615ZM13.2041 16.8652C12.8463 16.6397 12.4301 16.5164 12 16.5164V19.5164C11.8547 19.5164 11.7178 19.4746 11.6046 19.4032L13.2041 16.8652ZM12 16.5164C11.5699 16.5164 11.1537 16.6397 10.7959 16.8652L12.3954 19.4032C12.2822 19.4746 12.1453 19.5164 12 19.5164V16.5164ZM10.7868 16.871L6.50117 19.615L8.11885 22.1415L12.4045 19.3975L10.7868 16.871ZM6.48521 19.6254C6.61269 19.5414 6.77003 19.4944 6.93601 19.5005L6.82536 22.4985C7.29397 22.5158 7.75023 22.3843 8.13481 22.1311L6.48521 19.6254ZM6.93601 19.5005C7.10167 19.5066 7.25332 19.5649 7.37216 19.6558L5.5486 22.038C5.91277 22.3168 6.35708 22.4812 6.82536 22.4985L6.93601 19.5005ZM7.37216 19.6558C7.48964 19.7458 7.56749 19.8612 7.60854 19.9791L4.77535 20.9655C4.92106 21.3841 5.1858 21.7603 5.5486 22.038L7.37216 19.6558ZM7.60854 19.9791C7.64939 20.0965 7.65567 20.2205 7.62842 20.339L4.70468 19.6668C4.60588 20.0966 4.62983 20.5476 4.77535 20.9655L7.60854 19.9791ZM7.62927 20.3353L8.79131 15.2211L5.86588 14.5563L4.70384 19.6706L7.62927 20.3353ZM8.79211 15.2175C8.88242 14.8156 8.86508 14.3955 8.74102 14.0018L5.87969 14.9033C5.84432 14.791 5.83963 14.6731 5.86508 14.5599L8.79211 15.2175ZM8.74102 14.0018C8.61692 13.6079 8.38791 13.247 8.06866 12.966L6.08655 15.218C5.98291 15.1267 5.91509 15.0157 5.87969 14.9033L8.74102 14.0018ZM8.0782 12.9745L4.26669 9.56174L2.26551 11.7967L6.07701 15.2095L8.0782 12.9745ZM4.27395 9.56828C4.38032 9.66478 4.447 9.7825 4.47826 9.90051L1.57828 10.6687C1.69087 11.0937 1.9231 11.4862 2.25825 11.7902L4.27395 9.56828ZM4.47826 9.90051C4.50947 10.0183 4.50711 10.1418 4.47097 10.2589L1.60429 9.37455C1.47465 9.79478 1.46575 10.2439 1.57828 10.6687L4.47826 9.90051ZM4.47097 10.2589C4.43465 10.3767 4.36234 10.493 4.25055 10.5861L2.33141 8.28024C1.98276 8.57042 1.73413 8.9537 1.60429 9.37455L4.47097 10.2589ZM4.25055 10.5861C4.13727 10.6804 3.99018 10.7444 3.8264 10.758L3.57965 7.76813C3.11542 7.80644 2.68154 7.98883 2.33141 8.28024L4.25055 10.5861ZM3.8292 10.7577L8.83991 10.3348L8.58757 7.3454L3.57686 7.76836L3.8292 10.7577ZM8.80961 10.337C9.25002 10.3088 9.66587 10.1501 10.0103 9.88986L8.20158 7.4964C8.31581 7.41008 8.45981 7.35327 8.61787 7.34315L8.80961 10.337ZM10.0103 9.88986C10.3538 9.63027 10.6106 9.28204 10.7623 8.89258L7.96672 7.80407C8.01062 7.69131 8.08825 7.58204 8.20158 7.4964L10.0103 9.88986ZM10.7587 8.90165L12.6831 4.05289L9.89463 2.94623L7.97028 7.795L10.7587 8.90165ZM12.6826 4.05405C12.6371 4.16846 12.5554 4.27939 12.4354 4.36364L10.7108 1.90889C10.3379 2.1709 10.0584 2.5345 9.89509 2.94507L12.6826 4.05405ZM12.4354 4.36364C12.3142 4.44884 12.1625 4.5 12 4.5V1.5C11.5337 1.5 11.0851 1.64593 10.7108 1.90889L12.4354 4.36364ZM12 4.5C11.8375 4.5 11.6858 4.44884 11.5646 4.36364L13.2892 1.90889C12.9149 1.64593 12.4663 1.5 12 1.5V4.5ZM11.5646 4.36364C11.4448 4.27947 11.363 4.16861 11.3174 4.05405L14.1049 2.94507C13.9415 2.53435 13.662 2.17081 13.2892 1.90889L11.5646 4.36364Z" fill="#8E8E8E" mask="url(#icon_navigation_bookmark_before_0)"></path></svg><svg viewBox="0 0 24 24" fill="none" id="icon_navigation_home_after"><path d="M10.9571 3.63733L3.9571 7.91511C3.36259 8.27842 3 8.92494 3 9.62167V19.5C3 20.6046 3.89543 21.5 5 21.5H7.66667C8.40305 21.5 9 20.903 9 20.1667V16.5C9 14.8431 10.3431 13.5 12 13.5C13.6569 13.5 15 14.8431 15 16.5V20.1667C15 20.903 15.597 21.5 16.3333 21.5H19C20.1046 21.5 21 20.6046 21 19.5V9.62167C21 8.92494 20.6374 8.27842 20.0429 7.91511L13.0429 3.63733C12.4027 3.24608 11.5973 3.24608 10.9571 3.63733Z" stroke="#246BEB" stroke-width="1.5"></path></svg><svg viewBox="0 0 24 24" fill="none" id="icon_navigation_home_before"><path d="M10.9571 3.63733L3.9571 7.91511C3.36259 8.27842 3 8.92494 3 9.62167V19.5C3 20.6046 3.89543 21.5 5 21.5H7.66667C8.40305 21.5 9 20.903 9 20.1667V16.5C9 14.8431 10.3431 13.5 12 13.5C13.6569 13.5 15 14.8431 15 16.5V20.1667C15 20.903 15.597 21.5 16.3333 21.5H19C20.1046 21.5 21 20.6046 21 19.5V9.62167C21 8.92494 20.6374 8.27842 20.0429 7.91511L13.0429 3.63733C12.4027 3.24608 11.5973 3.24608 10.9571 3.63733Z" stroke="#8E8E8E" stroke-width="1.5"></path></svg><svg viewBox="0 0 24 24" fill="none" id="icon_navigation_profile_after"><circle cx="12" cy="8" r="5.25" stroke="#246BEB" stroke-width="1.5"></circle><path d="M20 21.5C20 17.0817 16.4183 13.5 12 13.5C7.58172 13.5 4 17.0817 4 21.5" stroke="#246BEB" stroke-width="1.5" stroke-linecap="round"></path></svg><svg viewBox="0 0 24 24" fill="none" id="icon_navigation_profile_before"><circle cx="12" cy="8" r="5.25" stroke="#8E8E8E" stroke-width="1.5"></circle><path d="M20 21.5C20 17.0817 16.4183 13.5 12 13.5C7.58172 13.5 4 17.0817 4 21.5" stroke="#8E8E8E" stroke-width="1.5" stroke-linecap="round"></path></svg><svg viewBox="0 0 16 16" fill="none" id="icon_pencil"><path fill-rule="evenodd" clip-rule="evenodd" d="M8.27344 3.85322L2.6218 9.50486L1.85095 12.3799L1.34392 14.274C1.32983 14.3269 1.3299 14.3826 1.34412 14.4355C1.35834 14.4884 1.3862 14.5366 1.42492 14.5753C1.46364 14.614 1.51186 14.6419 1.56474 14.6561C1.61762 14.6703 1.67331 14.6704 1.72622 14.6563L3.61904 14.1487L6.49475 13.3778H6.49537L12.147 7.72617L8.27406 3.85322H8.27344ZM14.4839 4.50807L11.4928 1.51635C11.4349 1.45839 11.3662 1.4124 11.2905 1.38102C11.2149 1.34965 11.1338 1.3335 11.0519 1.3335C10.97 1.3335 10.8888 1.34965 10.8132 1.38102C10.7375 1.4124 10.6688 1.45839 10.6109 1.51635L9.06736 3.0593L12.9409 6.93287L14.4839 5.3893C14.5418 5.33144 14.5878 5.26271 14.6192 5.18705C14.6506 5.11139 14.6667 5.03028 14.6667 4.94837C14.6667 4.86647 14.6506 4.78536 14.6192 4.7097C14.5878 4.63404 14.5418 4.56531 14.4839 4.50744" fill="#246BEB"></path></svg><svg viewBox="0 0 11 11" fill="none" id="icon_pin"><g clip-path="url(#icon_pin_0)"><path fill-rule="evenodd" clip-rule="evenodd" d="M5.33334 5.66305C5.17302 5.66613 5.01369 5.63721 4.86468 5.57798C4.71567 5.51876 4.57996 5.43042 4.46549 5.31812C4.35102 5.20583 4.26009 5.07184 4.19801 4.92399C4.13594 4.77614 4.10397 4.6174 4.10397 4.45705C4.10397 4.2967 4.13594 4.13795 4.19801 3.9901C4.26009 3.84225 4.35102 3.70827 4.46549 3.59597C4.57996 3.48368 4.71567 3.39534 4.86468 3.33611C5.01369 3.27689 5.17302 3.24797 5.33334 3.25105C5.64919 3.25711 5.95004 3.38684 6.17127 3.61235C6.39249 3.83785 6.51641 4.14115 6.51641 4.45705C6.51641 4.77295 6.39249 5.07624 6.17127 5.30175C5.95004 5.52726 5.64919 5.65698 5.33334 5.66305M4.38934 0.460826C2.49157 0.884381 1.1609 2.6706 1.23557 4.61371C1.29423 6.13994 2.23068 7.50527 5.0169 10.1839C5.1929 10.3528 5.47468 10.3537 5.65112 10.1844C8.5329 7.41416 9.43601 6.04883 9.43601 4.45683C9.43601 1.88349 7.06579 -0.136507 4.38934 0.46127" fill="#C6C6C6"></path></g><defs><clipPath id="icon_pin_0"><rect width="10.6667" height="10.6667" fill="white"></rect></clipPath></defs></svg><svg viewBox="0 0 25 24" fill="none" id="icon_share"><path d="M10.6667 5H7.66669C6.56212 5 5.66669 5.89543 5.66669 7V17C5.66669 18.1046 6.56212 19 7.66669 19H17.6667C18.7713 19 19.6667 18.1046 19.6667 17V14" stroke="#2D2D2D" stroke-width="1.5" stroke-linecap="round" stroke-linejoin="round"></path><path d="M14.6667 5H19.6667V10" stroke="#2D2D2D" stroke-width="1.5" stroke-linecap="round" stroke-linejoin="round"></path><path d="M19.6672 5L12.6672 12" stroke="#2D2D2D" stroke-width="1.5" stroke-linecap="round" stroke-linejoin="round"></path></svg><svg viewBox="0 0 16 16" fill="none" id="icon_under_arrow"><path d="M4.25 6.125L8 10.25L11.75 6.125" stroke="#2D2D2D" stroke-linecap="round"></path></svg><svg viewBox="0 0 48 49" fill="none" id="maker_favorite"><g filter="url(#maker_favorite_0)"><path fill-rule="evenodd" clip-rule="evenodd" d="M24 3.5C14.0589 3.5 6 11.5589 6 21.5C6 30.0951 12.0243 37.2831 20.0808 39.0721L22.07 42.2548C23.0274 43.7867 25.2583 43.7867 26.2157 42.2548L28.2534 38.9945C36.1418 37.0834 42 29.9758 42 21.5C42 11.5589 33.9411 3.5 24 3.5Z" fill="#246BEB"></path><path d="M20.0808 39.0721L20.42 38.8601L20.3311 38.7179L20.1675 38.6816L20.0808 39.0721ZM22.07 42.2548L22.4092 42.0428L22.07 42.2548ZM26.2157 42.2548L26.5549 42.4668L26.2157 42.2548ZM28.2534 38.9945L28.1593 38.6058L28.0007 38.6442L27.9142 38.7825L28.2534 38.9945ZM6.4 21.5C6.4 11.7798 14.2798 3.9 24 3.9V3.1C13.838 3.1 5.6 11.338 5.6 21.5H6.4ZM20.1675 38.6816C12.2901 36.9324 6.4 29.9036 6.4 21.5H5.6C5.6 30.2866 11.7584 37.6339 19.9941 39.4626L20.1675 38.6816ZM22.4092 42.0428L20.42 38.8601L19.7416 39.2841L21.7308 42.4668L22.4092 42.0428ZM25.8765 42.0428C25.0758 43.324 23.2099 43.324 22.4092 42.0428L21.7308 42.4668C22.8448 44.2493 25.4409 44.2493 26.5549 42.4668L25.8765 42.0428ZM27.9142 38.7825L25.8765 42.0428L26.5549 42.4668L28.5926 39.2065L27.9142 38.7825ZM41.6 21.5C41.6 29.7869 35.8723 36.7371 28.1593 38.6058L28.3476 39.3833C36.4112 37.4297 42.4 30.1647 42.4 21.5H41.6ZM24 3.9C33.7202 3.9 41.6 11.7798 41.6 21.5H42.4C42.4 11.338 34.162 3.1 24 3.1V3.9Z" fill="#1D56BC"></path></g><path d="M25.3151 12.2593L25.3153 12.2598L27.2397 17.1086L27.2412 17.1125L27.2412 17.1125C27.2527 17.142 27.2698 17.1624 27.286 17.1745L26.8941 17.6931L27.286 17.1745C27.3017 17.1864 27.3163 17.1907 27.3278 17.1914L27.3409 17.1923L27.3409 17.1924L32.3504 17.6152C32.3507 17.6153 32.3509 17.6153 32.3511 17.6153L32.3516 17.6153L32.297 18.263C32.4472 18.2754 32.5906 18.3346 32.709 18.4332L33.1248 17.9336C33.343 18.1152 33.5007 18.3569 33.5835 18.6251C33.6662 18.8931 33.6719 19.18 33.6001 19.4511C33.5282 19.7222 33.3807 19.9701 33.1706 20.1607L33.1675 20.1635L29.356 23.5762L29.3519 23.5799L29.3519 23.5799C29.3356 23.5942 29.3194 23.6169 29.3096 23.6479L28.6896 23.4525L29.3096 23.6479C29.2998 23.6789 29.2983 23.7132 29.3055 23.7458C29.3055 23.746 29.3056 23.7461 29.3056 23.7462L30.4669 28.8573C30.467 28.8575 30.467 28.8577 30.4671 28.8578C30.53 29.1321 30.5146 29.42 30.4219 29.6861C30.3291 29.9526 30.1614 30.1895 29.9347 30.363L29.5396 29.8469L29.9347 30.3631C29.7074 30.5371 29.432 30.6384 29.1433 30.6491C28.856 30.6597 28.5752 30.5797 28.3365 30.4238L24.0578 27.6841C24.0574 27.6839 24.0571 27.6836 24.0567 27.6834C24.0368 27.6712 24.0174 27.6664 24 27.6664C23.9826 27.6664 23.9632 27.6712 23.9433 27.6834C23.9429 27.6836 23.9425 27.6839 23.9422 27.6841L19.6636 30.4237C19.4249 30.5797 19.144 30.6597 18.8567 30.6491C18.568 30.6384 18.2926 30.5371 18.0653 30.3631L18.4604 29.8469L18.0653 30.363C17.8386 30.1895 17.6709 29.9526 17.5781 29.6861L18.1919 29.4723L17.5781 29.6861C17.4855 29.42 17.47 29.1323 17.5329 28.8581C17.533 28.8578 17.533 28.8575 17.5331 28.8573L18.6944 23.7462C18.6944 23.746 18.6945 23.7459 18.6945 23.7457C18.7017 23.7131 18.7001 23.6788 18.6904 23.6479C18.6806 23.6168 18.6643 23.5942 18.6481 23.5799L18.644 23.5763L18.644 23.5762L14.8325 20.1635L14.8294 20.1607C14.6193 19.9701 14.4718 19.7222 14.3999 19.4511C14.3281 19.18 14.3338 18.8931 14.4165 18.6251C14.4993 18.3569 14.657 18.1152 14.8752 17.9336C15.0938 17.7516 15.3628 17.6391 15.6489 17.6153L15.6484 17.6153L15.703 18.263L15.6496 17.6152L25.3151 12.2593ZM25.3151 12.2593C25.211 11.9974 25.0338 11.7683 24.8005 11.6044C24.5666 11.4401 24.2881 11.35 24 11.35C23.7119 11.35 23.4334 11.4401 23.1995 11.6044L23.5731 12.1363L25.3151 12.2593Z" fill="white" stroke="white" stroke-width="1.3" stroke-linecap="round" stroke-linejoin="round"></path><defs><filter id="maker_favorite_0" x="3.15565" y="0.655531" width="41.6887" height="45.5926" filterUnits="userSpaceOnUse" color-interpolation-filters="sRGB"><feFlood flood-opacity="0" result="BackgroundImageFix"></feFlood><feColorMatrix in="SourceAlpha" type="matrix" values="0 0 0 0 0 0 0 0 0 0 0 0 0 0 0 0 0 0 127 0" result="hardAlpha"></feColorMatrix><feOffset></feOffset><feGaussianBlur stdDeviation="1.22222"></feGaussianBlur><feColorMatrix type="matrix" values="0 0 0 0 0 0 0 0 0 0 0 0 0 0 0 0 0 0 0.2 0"></feColorMatrix><feBlend mode="normal" in2="BackgroundImageFix" result="effect1_dropShadow_185_6364"></feBlend><feBlend mode="normal" in="SourceGraphic" in2="effect1_dropShadow_185_6364" result="shape"></feBlend></filter></defs></svg><svg viewBox="0 0 48 49" fill="none" id="maker_review"><g filter="url(#maker_review_0)"><path fill-rule="evenodd" clip-rule="evenodd" d="M24 3.5C14.0589 3.5 6 11.5589 6 21.5C6 30.0951 12.0243 37.2831 20.0808 39.0721L22.07 42.2548C23.0274 43.7867 25.2583 43.7867 26.2157 42.2548L28.2534 38.9945C36.1418 37.0834 42 29.9758 42 21.5C42 11.5589 33.9411 3.5 24 3.5Z" fill="#246BEB"></path><path d="M20.0808 39.0721L20.42 38.8601L20.3311 38.7179L20.1675 38.6816L20.0808 39.0721ZM22.07 42.2548L22.4092 42.0428L22.07 42.2548ZM26.2157 42.2548L26.5549 42.4668L26.2157 42.2548ZM28.2534 38.9945L28.1593 38.6058L28.0007 38.6442L27.9142 38.7825L28.2534 38.9945ZM6.4 21.5C6.4 11.7798 14.2798 3.9 24 3.9V3.1C13.838 3.1 5.6 11.338 5.6 21.5H6.4ZM20.1675 38.6816C12.2901 36.9324 6.4 29.9036 6.4 21.5H5.6C5.6 30.2866 11.7584 37.6339 19.9941 39.4626L20.1675 38.6816ZM22.4092 42.0428L20.42 38.8601L19.7416 39.2841L21.7308 42.4668L22.4092 42.0428ZM25.8765 42.0428C25.0758 43.324 23.2099 43.324 22.4092 42.0428L21.7308 42.4668C22.8448 44.2493 25.4409 44.2493 26.5549 42.4668L25.8765 42.0428ZM27.9142 38.7825L25.8765 42.0428L26.5549 42.4668L28.5926 39.2065L27.9142 38.7825ZM41.6 21.5C41.6 29.7869 35.8723 36.7371 28.1593 38.6058L28.3476 39.3833C36.4112 37.4297 42.4 30.1647 42.4 21.5H41.6ZM24 3.9C33.7202 3.9 41.6 11.7798 41.6 21.5H42.4C42.4 11.338 34.162 3.1 24 3.1V3.9Z" fill="#1D56BC"></path></g><path fill-rule="evenodd" clip-rule="evenodd" d="M24 32C30.0751 32 35 27.0751 35 21C35 14.9249 30.0751 10 24 10C17.9249 10 13 14.9249 13 21C13 27.0751 17.9249 32 24 32ZM19.5 18V20C19.5 20.55 19.95 21 20.5 21C21.05 21 21.5 20.55 21.5 20V18C21.5 17.45 21.05 17 20.5 17C19.95 17 19.5 17.45 19.5 18ZM24 27C25.55 27 26.935 26.295 27.85 25.19C28.24 24.715 27.88 24 27.27 24H27.2C26.99 24 26.8 24.1 26.665 24.26C26.025 25.02 25.065 25.5 24 25.5C22.935 25.5 21.975 25.015 21.335 24.26C21.2 24.105 21.01 24 20.8 24H20.73C20.12 24 19.76 24.72 20.15 25.19C21.065 26.295 22.45 27 24 27ZM27.5 21C28.05 21 28.5 20.55 28.5 20V18C28.5 17.45 28.05 17 27.5 17C26.95 17 26.5 17.45 26.5 18V20C26.5 20.55 26.95 21 27.5 21Z" fill="white"></path><defs><filter id="maker_review_0" x="3.15565" y="0.655531" width="41.6887" height="45.5926" filterUnits="userSpaceOnUse" color-interpolation-filters="sRGB"><feFlood flood-opacity="0" result="BackgroundImageFix"></feFlood><feColorMatrix in="SourceAlpha" type="matrix" values="0 0 0 0 0 0 0 0 0 0 0 0 0 0 0 0 0 0 127 0" result="hardAlpha"></feColorMatrix><feOffset></feOffset><feGaussianBlur stdDeviation="1.22222"></feGaussianBlur><feColorMatrix type="matrix" values="0 0 0 0 0 0 0 0 0 0 0 0 0 0 0 0 0 0 0.2 0"></feColorMatrix><feBlend mode="normal" in2="BackgroundImageFix" result="effect1_dropShadow_185_6448"></feBlend><feBlend mode="normal" in="SourceGraphic" in2="effect1_dropShadow_185_6448" result="shape"></feBlend></filter></defs></svg><svg viewBox="0 0 24 24" fill="none" id="save"><mask id="save_0" maskUnits="userSpaceOnUse" x="1" y="1" width="22" height="22" fill="black"><rect fill="white" x="1" y="1" width="22" height="22"></rect><path d="M12.7112 3.49956L14.6355 8.34832C14.6894 8.48667 14.779 8.60616 14.8941 8.69313C15.0092 8.7801 15.1451 8.83104 15.2863 8.84008L20.297 9.26304C20.4472 9.27544 20.5906 9.3346 20.709 9.43316C20.8274 9.53173 20.9156 9.6652 20.9624 9.81675C21.0091 9.9683 21.0124 10.1311 20.9717 10.2846C20.9311 10.4381 20.8483 10.5755 20.7339 10.6792L16.9224 14.092C16.8146 14.1869 16.734 14.3118 16.6896 14.4525C16.6453 14.5933 16.639 14.7444 16.6714 14.8887L17.8334 20.0029C17.8692 20.1586 17.8604 20.322 17.8081 20.4723C17.7557 20.6226 17.6623 20.753 17.5396 20.8469C17.417 20.9408 17.2706 20.9939 17.1193 20.9995C16.968 21.0051 16.8186 20.9629 16.69 20.8783L12.4044 18.1342C12.2821 18.0571 12.1424 18.0164 12 18.0164C11.8576 18.0164 11.7179 18.0571 11.5956 18.1342L7.31001 20.8783C7.18146 20.9629 7.032 21.0051 6.88069 20.9995C6.72937 20.9939 6.58305 20.9408 6.46038 20.8469C6.33772 20.753 6.24428 20.6226 6.19194 20.4723C6.13961 20.322 6.13077 20.1586 6.16655 20.0029L7.3286 14.8887C7.36103 14.7444 7.3547 14.5933 7.31035 14.4525C7.26601 14.3118 7.18541 14.1869 7.0776 14.092L3.2661 10.6792C3.15171 10.5755 3.06893 10.4381 3.02827 10.2846C2.98761 10.1311 2.99088 9.9683 3.03763 9.81675C3.08439 9.6652 3.17255 9.53173 3.29098 9.43316C3.40941 9.3346 3.5528 9.27544 3.70303 9.26304L8.71374 8.84008C8.85491 8.83104 8.99084 8.7801 9.10593 8.69313C9.22102 8.60616 9.31063 8.48667 9.3645 8.34832L11.2888 3.49956C11.3478 3.35148 11.4466 3.22514 11.5731 3.13627C11.6996 3.04739 11.8481 3 12 3C12.1519 3 12.3004 3.04739 12.4269 3.13627C12.5534 3.22514 12.6523 3.35148 12.7112 3.49956Z"></path></mask><path d="M12.7112 3.49956L14.1054 2.94624L14.1049 2.94507L12.7112 3.49956ZM14.6355 8.34832L16.0333 7.80405L16.0297 7.795L14.6355 8.34832ZM15.2863 8.84008L15.4124 7.3454C15.4023 7.34454 15.3922 7.34379 15.3821 7.34315L15.2863 8.84008ZM20.297 9.26304L20.1708 10.7577L20.1736 10.758L20.297 9.26304ZM20.7339 10.6792L21.7345 11.7968L21.7418 11.7902L20.7339 10.6792ZM16.9224 14.092L17.9135 15.218L17.923 15.2095L16.9224 14.092ZM16.6714 14.8887L15.2079 15.2175L15.2087 15.2211L16.6714 14.8887ZM17.8334 20.0029L16.3707 20.3353L16.3716 20.339L17.8334 20.0029ZM16.69 20.8783L17.5148 19.6254C17.5095 19.6219 17.5042 19.6184 17.4989 19.615L16.69 20.8783ZM12.4044 18.1342L13.2132 16.8709L13.2041 16.8652L12.4044 18.1342ZM12 18.0164V19.5164V18.0164ZM11.5956 18.1342L10.7958 16.8652L10.7868 16.871L11.5956 18.1342ZM7.31001 20.8783L6.50117 19.615C6.49583 19.6184 6.49051 19.6219 6.48521 19.6254L7.31001 20.8783ZM6.16655 20.0029L7.62843 20.339L7.62927 20.3353L6.16655 20.0029ZM7.3286 14.8887L8.79132 15.2211L8.79211 15.2175L7.3286 14.8887ZM7.0776 14.092L6.07697 15.2095L6.08655 15.218L7.0776 14.092ZM3.2661 10.6792L2.25823 11.7902L2.26551 11.7967L3.2661 10.6792ZM3.70303 9.26304L3.8264 10.758L3.8292 10.7577L3.70303 9.26304ZM8.71374 8.84008L8.61787 7.34315C8.60777 7.34379 8.59766 7.34454 8.58757 7.3454L8.71374 8.84008ZM9.3645 8.34832L7.97025 7.79499L7.96672 7.80407L9.3645 8.34832ZM11.2888 3.49956L9.89509 2.94507L9.89463 2.94623L11.2888 3.49956ZM12 3V4.5V3ZM11.317 4.05288L13.2413 8.90164L16.0297 7.795L14.1054 2.94624L11.317 4.05288ZM13.2377 8.89258C13.3894 9.28203 13.6462 9.63027 13.9897 9.88986L15.7984 7.4964C15.9118 7.58205 15.9894 7.69131 16.0333 7.80407L13.2377 8.89258ZM13.9897 9.88986C14.3341 10.1501 14.75 10.3088 15.1904 10.337L15.3821 7.34315C15.5402 7.35327 15.6842 7.41008 15.7984 7.4964L13.9897 9.88986ZM15.1601 10.3348L20.1708 10.7577L20.4231 7.76836L15.4124 7.3454L15.1601 10.3348ZM20.1736 10.758C20.0098 10.7444 19.8627 10.6804 19.7494 10.5861L21.6686 8.28024C21.3185 7.98883 20.8846 7.80644 20.4203 7.76813L20.1736 10.758ZM19.7494 10.5861C19.6377 10.493 19.5654 10.3767 19.529 10.2589L22.3957 9.37455C22.2659 8.9537 22.0172 8.57042 21.6686 8.28024L19.7494 10.5861ZM19.529 10.2589C19.4929 10.1418 19.4905 10.0183 19.5217 9.90051L22.4217 10.6687C22.5343 10.2439 22.5253 9.79478 22.3957 9.37455L19.529 10.2589ZM19.5217 9.90051C19.553 9.7825 19.6197 9.66478 19.7261 9.56828L21.7418 11.7902C22.0769 11.4862 22.3091 11.0937 22.4217 10.6687L19.5217 9.90051ZM19.7333 9.56174L15.9218 12.9745L17.923 15.2095L21.7345 11.7967L19.7333 9.56174ZM15.9314 12.966C15.6122 13.2469 15.3831 13.6077 15.259 14.0018L18.1203 14.9033C18.0849 15.0158 18.017 15.1269 17.9135 15.218L15.9314 12.966ZM15.259 14.0018C15.1349 14.3955 15.1176 14.8156 15.2079 15.2175L18.1349 14.5599C18.1604 14.6731 18.1557 14.791 18.1203 14.9033L15.259 14.0018ZM15.2087 15.2211L16.3707 20.3353L19.2962 19.6706L18.1341 14.5563L15.2087 15.2211ZM16.3716 20.339C16.3443 20.2205 16.3506 20.0965 16.3915 19.9791L19.2247 20.9655C19.3702 20.5476 19.3941 20.0966 19.2953 19.6668L16.3716 20.339ZM16.3915 19.9791C16.4325 19.8612 16.5104 19.7458 16.6278 19.6558L18.4514 22.038C18.8142 21.7603 19.0789 21.3841 19.2247 20.9655L16.3915 19.9791ZM16.6278 19.6558C16.7467 19.5649 16.8983 19.5066 17.064 19.5005L17.1746 22.4985C17.6429 22.4812 18.0872 22.3168 18.4514 22.038L16.6278 19.6558ZM17.064 19.5005C17.23 19.4944 17.3874 19.5415 17.5148 19.6254L15.8652 22.1311C16.2498 22.3843 16.706 22.5158 17.1746 22.4985L17.064 19.5005ZM17.4989 19.615L13.2132 16.871L11.5956 19.3975L15.8812 22.1415L17.4989 19.615ZM13.2041 16.8652C12.8463 16.6397 12.4301 16.5164 12 16.5164V19.5164C11.8547 19.5164 11.7178 19.4746 11.6046 19.4032L13.2041 16.8652ZM12 16.5164C11.5699 16.5164 11.1537 16.6397 10.7959 16.8652L12.3954 19.4032C12.2822 19.4746 12.1453 19.5164 12 19.5164V16.5164ZM10.7868 16.871L6.50117 19.615L8.11885 22.1415L12.4045 19.3975L10.7868 16.871ZM6.48521 19.6254C6.61269 19.5414 6.77003 19.4944 6.93601 19.5005L6.82536 22.4985C7.29397 22.5158 7.75023 22.3843 8.13481 22.1311L6.48521 19.6254ZM6.93601 19.5005C7.10167 19.5066 7.25332 19.5649 7.37216 19.6558L5.5486 22.038C5.91277 22.3168 6.35708 22.4812 6.82536 22.4985L6.93601 19.5005ZM7.37216 19.6558C7.48964 19.7458 7.56749 19.8612 7.60854 19.9791L4.77535 20.9655C4.92106 21.3841 5.1858 21.7603 5.5486 22.038L7.37216 19.6558ZM7.60854 19.9791C7.64939 20.0965 7.65567 20.2205 7.62842 20.339L4.70468 19.6668C4.60588 20.0966 4.62983 20.5476 4.77535 20.9655L7.60854 19.9791ZM7.62927 20.3353L8.79131 15.2211L5.86588 14.5563L4.70384 19.6706L7.62927 20.3353ZM8.79211 15.2175C8.88242 14.8156 8.86508 14.3955 8.74102 14.0018L5.87969 14.9033C5.84432 14.791 5.83963 14.6731 5.86508 14.5599L8.79211 15.2175ZM8.74102 14.0018C8.61692 13.6079 8.38791 13.247 8.06866 12.966L6.08655 15.218C5.98291 15.1267 5.91509 15.0157 5.87969 14.9033L8.74102 14.0018ZM8.0782 12.9745L4.26669 9.56174L2.26551 11.7967L6.07701 15.2095L8.0782 12.9745ZM4.27395 9.56828C4.38032 9.66478 4.447 9.7825 4.47826 9.90051L1.57828 10.6687C1.69087 11.0937 1.9231 11.4862 2.25825 11.7902L4.27395 9.56828ZM4.47826 9.90051C4.50947 10.0183 4.50711 10.1418 4.47097 10.2589L1.60429 9.37455C1.47465 9.79478 1.46575 10.2439 1.57828 10.6687L4.47826 9.90051ZM4.47097 10.2589C4.43465 10.3767 4.36234 10.493 4.25055 10.5861L2.33141 8.28024C1.98276 8.57042 1.73413 8.9537 1.60429 9.37455L4.47097 10.2589ZM4.25055 10.5861C4.13727 10.6804 3.99018 10.7444 3.8264 10.758L3.57965 7.76813C3.11542 7.80644 2.68154 7.98883 2.33141 8.28024L4.25055 10.5861ZM3.8292 10.7577L8.83991 10.3348L8.58757 7.3454L3.57686 7.76836L3.8292 10.7577ZM8.80961 10.337C9.25002 10.3088 9.66587 10.1501 10.0103 9.88986L8.20158 7.4964C8.31581 7.41008 8.45981 7.35327 8.61787 7.34315L8.80961 10.337ZM10.0103 9.88986C10.3538 9.63027 10.6106 9.28204 10.7623 8.89258L7.96672 7.80407C8.01062 7.69131 8.08825 7.58204 8.20158 7.4964L10.0103 9.88986ZM10.7587 8.90165L12.6831 4.05289L9.89463 2.94623L7.97028 7.795L10.7587 8.90165ZM12.6826 4.05405C12.6371 4.16846 12.5554 4.27939 12.4354 4.36364L10.7108 1.90889C10.3379 2.1709 10.0584 2.5345 9.89509 2.94507L12.6826 4.05405ZM12.4354 4.36364C12.3142 4.44884 12.1625 4.5 12 4.5V1.5C11.5337 1.5 11.0851 1.64593 10.7108 1.90889L12.4354 4.36364ZM12 4.5C11.8375 4.5 11.6858 4.44884 11.5646 4.36364L13.2892 1.90889C12.9149 1.64593 12.4663 1.5 12 1.5V4.5ZM11.5646 4.36364C11.4448 4.27947 11.363 4.16861 11.3174 4.05405L14.1049 2.94507C13.9415 2.53435 13.662 2.17081 13.2892 1.90889L11.5646 4.36364Z" fill="#2D2D2D" mask="url(#save_0)"></path></svg><svg viewBox="0 0 40 40" fill="none" id="top_before_arrow"><path d="M17 20L23.5 13.5C23.7761 13.2239 23.7761 12.7761 23.5 12.5C23.2239 12.2239 22.7761 12.2239 22.5 12.5L15.7071 19.2929C15.3166 19.6834 15.3166 20.3166 15.7071 20.7071L22.5 27.5C22.7761 27.7761 23.2239 27.7761 23.5 27.5C23.7761 27.2239 23.7761 26.7761 23.5 26.5L17 20Z" fill="#1D1D1D"></path></svg><svg viewBox="0 0 32 32" fill="none" id="_button_swipe_left"><rect x="31.6" y="0.4" width="31.2" height="31.2" rx="15.6" transform="rotate(90 31.6 0.4)" fill="white" stroke="#D8D8D8" stroke-width="0.8"></rect><path d="M10.4 16L21.6 16" stroke="#1D1D1D" stroke-width="1.12" stroke-linecap="round" stroke-linejoin="round"></path><path d="M15.2 20.8L10.4 16" stroke="#1D1D1D" stroke-width="1.12" stroke-linecap="round" stroke-linejoin="round"></path><path d="M15.2 11.2001L10.4 16.0001" stroke="#1D1D1D" stroke-width="1.12" stroke-linecap="round" stroke-linejoin="round"></path></svg><svg viewBox="0 0 32 32" fill="none" id="_button_swipe_right"><rect x="31.6" y="0.4" width="31.2" height="31.2" rx="15.6" transform="rotate(90 31.6 0.4)" fill="white" stroke="#D8D8D8" stroke-width="0.8"></rect><path d="M21.6001 16L10.4001 16" stroke="#1D1D1D" stroke-width="1.12" stroke-linecap="round" stroke-linejoin="round"></path><path d="M16.8001 20.8L21.6001 16" stroke="#1D1D1D" stroke-width="1.12" stroke-linecap="round" stroke-linejoin="round"></path><path d="M16.8001 11.2001L21.6001 16.0001" stroke="#1D1D1D" stroke-width="1.12" stroke-linecap="round" stroke-linejoin="round"></path></svg><svg viewBox="0 0 40 40" fill="none" id="_button_top"><rect x="0.5" y="0.5" width="39" height="39" rx="19.5" fill="white" stroke="#D8D8D8"></rect><path d="M20 13V27" stroke="#1D1D1D" stroke-width="1.4" stroke-linecap="round" stroke-linejoin="round"></path><path d="M26 19L20 13" stroke="#1D1D1D" stroke-width="1.4" stroke-linecap="round" stroke-linejoin="round"></path><path d="M14 19L20 13" stroke="#1D1D1D" stroke-width="1.4" stroke-linecap="round" stroke-linejoin="round"></path></svg><svg viewBox="0 0 24 24" fill="none" id="_icon_search"><rect x="2.75" y="2.75" width="16" height="16" rx="8" stroke="#1D1D1D" stroke-width="1.5"></rect><path d="M17 17L21.4194 21.4194" stroke="#1D1D1D" stroke-width="1.5" stroke-linecap="round"></path></svg></svg>