<svg xmlns="http://www.w3.org/2000/svg">
  <style>:root svg:not(:target){display:none}</style>
  <svg viewBox="0 0 24 24" fill="none" id="Close">
    <path fill-rule="evenodd" clip-rule="evenodd"
      d="M5.28033 4.21967C4.98744 3.92678 4.51256 3.92678 4.21967 4.21967C3.92678 4.51256 3.92678 4.98744 4.21967 5.28033L10.9371 11.9977L4.21967 18.7151C3.92678 19.008 3.92678 19.4829 4.21967 19.7758C4.51256 20.0687 4.98744 20.0687 5.28033 19.7758L11.9977 13.0584L18.7151 19.7758C19.008 20.0687 19.4829 20.0687 19.7758 19.7758C20.0687 19.4829 20.0687 19.008 19.7758 18.7151L13.0584 11.9977L19.7758 5.28034C20.0687 4.98745 20.0687 4.51258 19.7758 4.21968C19.4829 3.92679 19.008 3.92679 18.7151 4.21968L11.9977 10.9371L5.28033 4.21967Z"
      fill="black"></path>
  </svg>
  <svg viewBox="0 0 52 26" fill="none" id="count">
    <rect width="52" height="26" rx="13" fill="black" fill-opacity="0.5"></rect>
  </svg>
  <svg viewBox="0 0 4 4" fill="none" id="Ellipse-5">
    <circle id="Ellipse-5_0" cx="2.1665" cy="2" r="1.5" fill="#D8D8D8"></circle>
  </svg>
  <svg viewBox="0 0 16 16" fill="none" id="icon16">
    <path d="M4 8L7.63158 11.5L12.5 4" stroke="#246BEB" stroke-width="1.8" stroke-linecap="round"></path>
  </svg>
  <svg viewBox="0 0 24 24" fill="none" id="icon24_delete">
    <rect opacity="0.8" x="2" y="2" width="20" height="20" rx="10" fill="black"></rect>
    <path fill-rule="evenodd" clip-rule="evenodd"
      d="M16.4857 8.53033C16.7785 8.23744 16.7785 7.76256 16.4857 7.46967C16.1928 7.17678 15.7179 7.17678 15.425 7.46967L11.9777 10.917L8.53033 7.46967C8.23744 7.17678 7.76256 7.17678 7.46967 7.46967C7.17678 7.76256 7.17678 8.23744 7.46967 8.53033L10.917 11.9777L7.47004 15.4246C7.17715 15.7175 7.17715 16.1924 7.47004 16.4853C7.76293 16.7782 8.23781 16.7782 8.5307 16.4853L11.9777 13.0383L15.4246 16.4853C15.7175 16.7782 16.1924 16.7782 16.4853 16.4853C16.7782 16.1924 16.7782 15.7175 16.4853 15.4246L13.0383 11.9777L16.4857 8.53033Z"
      fill="white"></path>
  </svg>
  <svg viewBox="0 0 40 40" fill="none" id="icon24_photo">
    <rect width="40" height="40" rx="20" fill="#EFF5FF"></rect>
    <path d="M20 11L19.9197 28.9998" stroke="#246BEB" stroke-width="2" stroke-linecap="round"></path>
    <path d="M29 20L11.0002 20.0803" stroke="#246BEB" stroke-width="2" stroke-linecap="round"></path>
  </svg>
  <svg viewBox="0 0 20 20" fill="none" id="icon_arrow_right">
    <path d="M7 15L12.5 10L7 5" stroke="#1D1D1D" stroke-width="1.5" stroke-linecap="round"></path>
  </svg>
  <svg viewBox="0 0 32 32" fill="none" id="icon_blog">
    <circle cx="16" cy="16" r="16" fill="#03C75A"></circle>
    <path
      d="M17.0777 14.5402C16.9824 14.5382 16.8877 14.556 16.7995 14.5924C16.7114 14.6287 16.6318 14.683 16.5656 14.7516C16.4994 14.8202 16.4481 14.9018 16.415 14.9912C16.3818 15.0806 16.3675 15.1759 16.373 15.2711C16.373 15.462 16.4488 15.6451 16.5838 15.7801C16.7188 15.9151 16.9019 15.991 17.0928 15.991C17.2837 15.991 17.4668 15.9151 17.6018 15.7801C17.7368 15.6451 17.8127 15.462 17.8127 15.2711C17.8176 15.1735 17.802 15.0759 17.7667 14.9847C17.7315 14.8935 17.6775 14.8107 17.6082 14.7418C17.5388 14.6728 17.4558 14.6192 17.3644 14.5845C17.273 14.5498 17.1753 14.5347 17.0777 14.5402Z"
      fill="white"></path>
    <path
      d="M24.1917 9.42354C23.8548 9.08556 23.4543 8.81761 23.0133 8.63514C22.5723 8.45267 22.0996 8.35928 21.6224 8.36036H10.3925C9.9154 8.35996 9.44286 8.45365 9.00196 8.63606C8.56106 8.81847 8.16046 9.08603 7.82307 9.42342C7.48568 9.76081 7.21812 10.1614 7.03571 10.6023C6.8533 11.0432 6.75961 11.5157 6.76001 11.9929V17.3974C6.75961 17.8745 6.8533 18.3471 7.03571 18.788C7.21812 19.2289 7.48568 19.6295 7.82307 19.9669C8.16046 20.3043 8.56106 20.5718 9.00196 20.7542C9.44286 20.9366 9.9154 21.0303 10.3925 21.0299H14.5345L15.7306 23.4623C15.75 23.5204 15.7872 23.5709 15.8369 23.6066C15.8866 23.6424 15.9462 23.6616 16.0075 23.6616C16.0687 23.6616 16.1283 23.6424 16.178 23.6066C16.2277 23.5709 16.2649 23.5204 16.2843 23.4623L17.4804 21.0259H21.6224C22.0992 21.0263 22.5714 20.9327 23.012 20.7506C23.4527 20.5684 23.8531 20.3012 24.1904 19.9643C24.5278 19.6273 24.7954 19.2272 24.9781 18.7867C25.1607 18.3463 25.2548 17.8742 25.2549 17.3974V11.9929C25.256 11.5157 25.1626 11.0429 24.9801 10.6019C24.7977 10.161 24.5297 9.76048 24.1917 9.42354V9.42354ZM10.8355 17.0188C10.6505 17.0268 10.4665 16.9886 10.2999 16.9077C10.1333 16.8269 9.98935 16.7059 9.88109 16.5557H9.86095V16.9101H8.73132V12.1479H9.88109V13.9602C10.0038 13.8242 10.1544 13.7163 10.3226 13.6437C10.4907 13.571 10.6725 13.5355 10.8557 13.5393C11.0739 13.5463 11.2884 13.5971 11.4866 13.6885C11.6848 13.78 11.8626 13.9104 12.0095 14.0719C12.1564 14.2334 12.2693 14.4228 12.3416 14.6288C12.4139 14.8348 12.444 15.0532 12.4303 15.271C12.443 15.4911 12.4116 15.7115 12.3379 15.9193C12.2642 16.1271 12.1497 16.318 12.0011 16.4809C11.8525 16.6437 11.6728 16.7752 11.4727 16.8676C11.2725 16.96 11.0559 17.0114 10.8355 17.0188V17.0188ZM14.4459 16.9081H13.3384V14.1636C13.3384 13.6541 13.2498 13.2111 12.8068 13.1447V12.0372C13.7814 12.0372 14.4459 12.742 14.4459 13.9421V16.9081ZM17.1039 16.9967C16.8624 17.0184 16.619 16.9897 16.3892 16.9122C16.1595 16.8347 15.9484 16.7102 15.7694 16.5466C15.5904 16.383 15.4475 16.184 15.3497 15.9621C15.2519 15.7402 15.2014 15.5004 15.2014 15.2579C15.2014 15.0155 15.2519 14.7757 15.3497 14.5538C15.4475 14.3319 15.5904 14.1328 15.7694 13.9693C15.9484 13.8057 16.1595 13.6812 16.3892 13.6037C16.619 13.5262 16.8624 13.4974 17.1039 13.5192C17.3455 13.5017 17.5881 13.5339 17.8169 13.6136C18.0456 13.6934 18.2556 13.819 18.434 13.9829C18.6124 14.1468 18.7554 14.3454 18.8543 14.5666C18.9531 14.7878 19.0057 15.0268 19.0087 15.269C19.0074 15.5109 18.9558 15.7499 18.8572 15.9707C18.7587 16.1916 18.6153 16.3897 18.4362 16.5523C18.2572 16.7149 18.0463 16.8385 17.8169 16.9154C17.5876 16.9922 17.3448 17.0206 17.1039 16.9987V16.9967ZM23.2172 16.6201C23.2172 17.9934 22.5305 18.6801 21.3344 18.6801H21.1129V17.641H21.3344C21.9325 17.641 22.1097 17.2645 22.1097 16.7108V16.5557C21.9852 16.6969 21.8317 16.8095 21.6596 16.886C21.4876 16.9624 21.3012 17.0009 21.1129 16.9987C20.9004 16.9966 20.6906 16.9514 20.4961 16.8657C20.3016 16.7801 20.1266 16.6558 19.9816 16.5005C19.8366 16.3451 19.7247 16.1619 19.6526 15.962C19.5806 15.7621 19.5499 15.5496 19.5625 15.3375C19.5477 15.1139 19.5783 14.8897 19.6524 14.6783C19.7265 14.4669 19.8425 14.2726 19.9935 14.1071C20.1445 13.9416 20.3274 13.8083 20.5312 13.7153C20.735 13.6222 20.9554 13.5713 21.1794 13.5655C21.3596 13.5516 21.5404 13.5851 21.7036 13.6629C21.8669 13.7406 22.0069 13.8598 22.1097 14.0085H22.1318V13.6541L23.2172 13.6763V16.6201Z"
      fill="white"></path>
    <path
      d="M21.4452 14.5175C21.3479 14.5126 21.2507 14.5281 21.1598 14.5631C21.0689 14.5981 20.9863 14.6518 20.9174 14.7207C20.8485 14.7895 20.7949 14.8721 20.7599 14.963C20.7249 15.0539 20.7093 15.1511 20.7143 15.2484C20.7076 15.3461 20.7219 15.4442 20.7562 15.5359C20.7906 15.6276 20.8442 15.7109 20.9135 15.7802C20.9827 15.8494 21.066 15.903 21.1577 15.9374C21.2495 15.9717 21.3475 15.9861 21.4452 15.9794C21.5415 15.985 21.6379 15.9698 21.7277 15.9347C21.8176 15.8996 21.8988 15.8455 21.9657 15.776C22.0327 15.7066 22.0838 15.6235 22.1156 15.5324C22.1474 15.4413 22.1591 15.3444 22.15 15.2484C22.1573 15.1528 22.1443 15.0567 22.1118 14.9665C22.0793 14.8762 22.0281 14.7939 21.9616 14.7248C21.895 14.6558 21.8146 14.6016 21.7256 14.5659C21.6366 14.5302 21.541 14.5137 21.4452 14.5175Z"
      fill="white"></path>
    <path
      d="M10.5697 16.0019C10.9734 16.0019 11.3006 15.6747 11.3006 15.271C11.3006 14.8673 10.9734 14.54 10.5697 14.54C10.166 14.54 9.83875 14.8673 9.83875 15.271C9.83875 15.6747 10.166 16.0019 10.5697 16.0019Z"
      fill="white"></path>
  </svg>
  <svg viewBox="0 0 24 24" fill="none" id="icon_bookmark_after">
    <mask id="icon_bookmark_after_0" maskUnits="userSpaceOnUse" x="1" y="1" width="22" height="22"
      fill="black">
      <rect fill="white" x="1" y="1" width="22" height="22"></rect>
      <path
        d="M12.7112 3.49956L14.6355 8.34832C14.6894 8.48667 14.779 8.60616 14.8941 8.69313C15.0092 8.7801 15.1451 8.83104 15.2863 8.84008L20.297 9.26304C20.4472 9.27544 20.5906 9.3346 20.709 9.43316C20.8275 9.53173 20.9156 9.6652 20.9624 9.81675C21.0091 9.9683 21.0124 10.1311 20.9717 10.2846C20.9311 10.4381 20.8483 10.5755 20.7339 10.6792L16.9224 14.092C16.8146 14.1869 16.734 14.3118 16.6896 14.4525C16.6453 14.5933 16.639 14.7444 16.6714 14.8887L17.8334 20.0029C17.8692 20.1586 17.8604 20.322 17.8081 20.4723C17.7557 20.6226 17.6623 20.753 17.5396 20.8469C17.417 20.9408 17.2706 20.9939 17.1193 20.9995C16.968 21.0051 16.8186 20.9629 16.69 20.8783L12.4044 18.1342C12.2821 18.0571 12.1424 18.0164 12 18.0164C11.8576 18.0164 11.7179 18.0571 11.5956 18.1342L7.31001 20.8783C7.18146 20.9629 7.032 21.0051 6.88069 20.9995C6.72937 20.9939 6.58304 20.9408 6.46038 20.8469C6.33772 20.753 6.24428 20.6226 6.19194 20.4723C6.13961 20.322 6.13077 20.1586 6.16655 20.0029L7.3286 14.8887C7.36103 14.7444 7.3547 14.5933 7.31035 14.4525C7.26601 14.3118 7.18541 14.1869 7.0776 14.092L3.2661 10.6792C3.15171 10.5755 3.06893 10.4381 3.02827 10.2846C2.98761 10.1311 2.99088 9.9683 3.03763 9.81675C3.08439 9.6652 3.17255 9.53173 3.29098 9.43316C3.40941 9.3346 3.5528 9.27544 3.70303 9.26304L8.71374 8.84008C8.85491 8.83104 8.99084 8.7801 9.10593 8.69313C9.22102 8.60616 9.31063 8.48667 9.3645 8.34832L11.2888 3.49956C11.3478 3.35148 11.4466 3.22514 11.5731 3.13627C11.6996 3.04739 11.8481 3 12 3C12.1519 3 12.3004 3.04739 12.4269 3.13627C12.5534 3.22514 12.6523 3.35148 12.7112 3.49956Z"></path>
    </mask>
    <path
      d="M12.7112 3.49956L14.6355 8.34832C14.6894 8.48667 14.779 8.60616 14.8941 8.69313C15.0092 8.7801 15.1451 8.83104 15.2863 8.84008L20.297 9.26304C20.4472 9.27544 20.5906 9.3346 20.709 9.43316C20.8275 9.53173 20.9156 9.6652 20.9624 9.81675C21.0091 9.9683 21.0124 10.1311 20.9717 10.2846C20.9311 10.4381 20.8483 10.5755 20.7339 10.6792L16.9224 14.092C16.8146 14.1869 16.734 14.3118 16.6896 14.4525C16.6453 14.5933 16.639 14.7444 16.6714 14.8887L17.8334 20.0029C17.8692 20.1586 17.8604 20.322 17.8081 20.4723C17.7557 20.6226 17.6623 20.753 17.5396 20.8469C17.417 20.9408 17.2706 20.9939 17.1193 20.9995C16.968 21.0051 16.8186 20.9629 16.69 20.8783L12.4044 18.1342C12.2821 18.0571 12.1424 18.0164 12 18.0164C11.8576 18.0164 11.7179 18.0571 11.5956 18.1342L7.31001 20.8783C7.18146 20.9629 7.032 21.0051 6.88069 20.9995C6.72937 20.9939 6.58304 20.9408 6.46038 20.8469C6.33772 20.753 6.24428 20.6226 6.19194 20.4723C6.13961 20.322 6.13077 20.1586 6.16655 20.0029L7.3286 14.8887C7.36103 14.7444 7.3547 14.5933 7.31035 14.4525C7.26601 14.3118 7.18541 14.1869 7.0776 14.092L3.2661 10.6792C3.15171 10.5755 3.06893 10.4381 3.02827 10.2846C2.98761 10.1311 2.99088 9.9683 3.03763 9.81675C3.08439 9.6652 3.17255 9.53173 3.29098 9.43316C3.40941 9.3346 3.5528 9.27544 3.70303 9.26304L8.71374 8.84008C8.85491 8.83104 8.99084 8.7801 9.10593 8.69313C9.22102 8.60616 9.31063 8.48667 9.3645 8.34832L11.2888 3.49956C11.3478 3.35148 11.4466 3.22514 11.5731 3.13627C11.6996 3.04739 11.8481 3 12 3C12.1519 3 12.3004 3.04739 12.4269 3.13627C12.5534 3.22514 12.6523 3.35148 12.7112 3.49956Z"
      fill="#246BEB"></path>
    <path
      d="M12.7112 3.49956L14.6355 8.34832C14.6894 8.48667 14.779 8.60616 14.8941 8.69313C15.0092 8.7801 15.1451 8.83104 15.2863 8.84008L20.297 9.26304C20.4472 9.27544 20.5906 9.3346 20.709 9.43316C20.8275 9.53173 20.9156 9.6652 20.9624 9.81675C21.0091 9.9683 21.0124 10.1311 20.9717 10.2846C20.9311 10.4381 20.8483 10.5755 20.7339 10.6792L16.9224 14.092C16.8146 14.1869 16.734 14.3118 16.6896 14.4525C16.6453 14.5933 16.639 14.7444 16.6714 14.8887L17.8334 20.0029C17.8692 20.1586 17.8604 20.322 17.8081 20.4723C17.7557 20.6226 17.6623 20.753 17.5396 20.8469C17.417 20.9408 17.2706 20.9939 17.1193 20.9995C16.968 21.0051 16.8186 20.9629 16.69 20.8783L12.4044 18.1342C12.2821 18.0571 12.1424 18.0164 12 18.0164C11.8576 18.0164 11.7179 18.0571 11.5956 18.1342L7.31001 20.8783C7.18146 20.9629 7.032 21.0051 6.88069 20.9995C6.72937 20.9939 6.58304 20.9408 6.46038 20.8469C6.33772 20.753 6.24428 20.6226 6.19194 20.4723C6.13961 20.322 6.13077 20.1586 6.16655 20.0029L7.3286 14.8887C7.36103 14.7444 7.3547 14.5933 7.31035 14.4525C7.26601 14.3118 7.18541 14.1869 7.0776 14.092L3.2661 10.6792C3.15171 10.5755 3.06893 10.4381 3.02827 10.2846C2.98761 10.1311 2.99088 9.9683 3.03763 9.81675C3.08439 9.6652 3.17255 9.53173 3.29098 9.43316C3.40941 9.3346 3.5528 9.27544 3.70303 9.26304L8.71374 8.84008C8.85491 8.83104 8.99084 8.7801 9.10593 8.69313C9.22102 8.60616 9.31063 8.48667 9.3645 8.34832L11.2888 3.49956C11.3478 3.35148 11.4466 3.22514 11.5731 3.13627C11.6996 3.04739 11.8481 3 12 3C12.1519 3 12.3004 3.04739 12.4269 3.13627C12.5534 3.22514 12.6523 3.35148 12.7112 3.49956Z"
      stroke="#246BEB" stroke-width="3" stroke-linecap="round" stroke-linejoin="round"
      mask="url(#icon_bookmark_after_0)"></path>
  </svg>
  <svg viewBox="0 0 24 24" fill="none" id="icon_bookmark_before">
    <mask id="icon_bookmark_before_0" maskUnits="userSpaceOnUse" x="1" y="1" width="22" height="22"
      fill="black">
      <rect fill="white" x="1" y="1" width="22" height="22"></rect>
      <path
        d="M12.7112 3.49956L14.6355 8.34832C14.6894 8.48667 14.779 8.60616 14.8941 8.69313C15.0092 8.7801 15.1451 8.83104 15.2863 8.84008L20.297 9.26304C20.4472 9.27544 20.5906 9.3346 20.709 9.43316C20.8275 9.53173 20.9156 9.6652 20.9624 9.81675C21.0091 9.9683 21.0124 10.1311 20.9717 10.2846C20.9311 10.4381 20.8483 10.5755 20.7339 10.6792L16.9224 14.092C16.8146 14.1869 16.734 14.3118 16.6896 14.4525C16.6453 14.5933 16.639 14.7444 16.6714 14.8887L17.8334 20.0029C17.8692 20.1586 17.8604 20.322 17.8081 20.4723C17.7557 20.6226 17.6623 20.753 17.5396 20.8469C17.417 20.9408 17.2706 20.9939 17.1193 20.9995C16.968 21.0051 16.8186 20.9629 16.69 20.8783L12.4044 18.1342C12.2821 18.0571 12.1424 18.0164 12 18.0164C11.8576 18.0164 11.7179 18.0571 11.5956 18.1342L7.31001 20.8783C7.18146 20.9629 7.032 21.0051 6.88069 20.9995C6.72937 20.9939 6.58304 20.9408 6.46038 20.8469C6.33772 20.753 6.24428 20.6226 6.19194 20.4723C6.13961 20.322 6.13077 20.1586 6.16655 20.0029L7.3286 14.8887C7.36103 14.7444 7.3547 14.5933 7.31035 14.4525C7.26601 14.3118 7.18541 14.1869 7.0776 14.092L3.2661 10.6792C3.15171 10.5755 3.06893 10.4381 3.02827 10.2846C2.98761 10.1311 2.99088 9.9683 3.03763 9.81675C3.08439 9.6652 3.17255 9.53173 3.29098 9.43316C3.40941 9.3346 3.5528 9.27544 3.70303 9.26304L8.71374 8.84008C8.85491 8.83104 8.99084 8.7801 9.10593 8.69313C9.22102 8.60616 9.31063 8.48667 9.3645 8.34832L11.2888 3.49956C11.3478 3.35148 11.4466 3.22514 11.5731 3.13627C11.6996 3.04739 11.8481 3 12 3C12.1519 3 12.3004 3.04739 12.4269 3.13627C12.5534 3.22514 12.6523 3.35148 12.7112 3.49956Z"></path>
    </mask>
    <path
      d="M12.7112 3.49956L14.6355 8.34832C14.6894 8.48667 14.779 8.60616 14.8941 8.69313C15.0092 8.7801 15.1451 8.83104 15.2863 8.84008L20.297 9.26304C20.4472 9.27544 20.5906 9.3346 20.709 9.43316C20.8275 9.53173 20.9156 9.6652 20.9624 9.81675C21.0091 9.9683 21.0124 10.1311 20.9717 10.2846C20.9311 10.4381 20.8483 10.5755 20.7339 10.6792L16.9224 14.092C16.8146 14.1869 16.734 14.3118 16.6896 14.4525C16.6453 14.5933 16.639 14.7444 16.6714 14.8887L17.8334 20.0029C17.8692 20.1586 17.8604 20.322 17.8081 20.4723C17.7557 20.6226 17.6623 20.753 17.5396 20.8469C17.417 20.9408 17.2706 20.9939 17.1193 20.9995C16.968 21.0051 16.8186 20.9629 16.69 20.8783L12.4044 18.1342C12.2821 18.0571 12.1424 18.0164 12 18.0164C11.8576 18.0164 11.7179 18.0571 11.5956 18.1342L7.31001 20.8783C7.18146 20.9629 7.032 21.0051 6.88069 20.9995C6.72937 20.9939 6.58304 20.9408 6.46038 20.8469C6.33772 20.753 6.24428 20.6226 6.19194 20.4723C6.13961 20.322 6.13077 20.1586 6.16655 20.0029L7.3286 14.8887C7.36103 14.7444 7.3547 14.5933 7.31035 14.4525C7.26601 14.3118 7.18541 14.1869 7.0776 14.092L3.2661 10.6792C3.15171 10.5755 3.06893 10.4381 3.02827 10.2846C2.98761 10.1311 2.99088 9.9683 3.03763 9.81675C3.08439 9.6652 3.17255 9.53173 3.29098 9.43316C3.40941 9.3346 3.5528 9.27544 3.70303 9.26304L8.71374 8.84008C8.85491 8.83104 8.99084 8.7801 9.10593 8.69313C9.22102 8.60616 9.31063 8.48667 9.3645 8.34832L11.2888 3.49956C11.3478 3.35148 11.4466 3.22514 11.5731 3.13627C11.6996 3.04739 11.8481 3 12 3C12.1519 3 12.3004 3.04739 12.4269 3.13627C12.5534 3.22514 12.6523 3.35148 12.7112 3.49956Z"
      fill="white"></path>
    <path
      d="M12.7112 3.49956L14.6355 8.34832C14.6894 8.48667 14.779 8.60616 14.8941 8.69313C15.0092 8.7801 15.1451 8.83104 15.2863 8.84008L20.297 9.26304C20.4472 9.27544 20.5906 9.3346 20.709 9.43316C20.8275 9.53173 20.9156 9.6652 20.9624 9.81675C21.0091 9.9683 21.0124 10.1311 20.9717 10.2846C20.9311 10.4381 20.8483 10.5755 20.7339 10.6792L16.9224 14.092C16.8146 14.1869 16.734 14.3118 16.6896 14.4525C16.6453 14.5933 16.639 14.7444 16.6714 14.8887L17.8334 20.0029C17.8692 20.1586 17.8604 20.322 17.8081 20.4723C17.7557 20.6226 17.6623 20.753 17.5396 20.8469C17.417 20.9408 17.2706 20.9939 17.1193 20.9995C16.968 21.0051 16.8186 20.9629 16.69 20.8783L12.4044 18.1342C12.2821 18.0571 12.1424 18.0164 12 18.0164C11.8576 18.0164 11.7179 18.0571 11.5956 18.1342L7.31001 20.8783C7.18146 20.9629 7.032 21.0051 6.88069 20.9995C6.72937 20.9939 6.58304 20.9408 6.46038 20.8469C6.33772 20.753 6.24428 20.6226 6.19194 20.4723C6.13961 20.322 6.13077 20.1586 6.16655 20.0029L7.3286 14.8887C7.36103 14.7444 7.3547 14.5933 7.31035 14.4525C7.26601 14.3118 7.18541 14.1869 7.0776 14.092L3.2661 10.6792C3.15171 10.5755 3.06893 10.4381 3.02827 10.2846C2.98761 10.1311 2.99088 9.9683 3.03763 9.81675C3.08439 9.6652 3.17255 9.53173 3.29098 9.43316C3.40941 9.3346 3.5528 9.27544 3.70303 9.26304L8.71374 8.84008C8.85491 8.83104 8.99084 8.7801 9.10593 8.69313C9.22102 8.60616 9.31063 8.48667 9.3645 8.34832L11.2888 3.49956C11.3478 3.35148 11.4466 3.22514 11.5731 3.13627C11.6996 3.04739 11.8481 3 12 3C12.1519 3 12.3004 3.04739 12.4269 3.13627C12.5534 3.22514 12.6523 3.35148 12.7112 3.49956Z"
      stroke="#8E8E8E" stroke-width="3" stroke-linecap="round" stroke-linejoin="round"
      mask="url(#icon_bookmark_before_0)"></path>
  </svg>
  <svg viewBox="0 0 24 24" fill="none" id="icon_call">
    <path
      d="M20.3626 16.1177L17.1069 13.5977C16.9497 13.4764 16.7536 13.4165 16.5554 13.4293C16.3572 13.4421 16.1704 13.5267 16.0301 13.6673L14.302 15.3961C14.1733 15.5261 14.0045 15.6089 13.8229 15.631C13.6412 15.6531 13.4575 15.6133 13.3013 15.518C12.7449 15.1768 11.8138 14.5157 10.6486 13.3498C9.48346 12.1856 8.82233 11.2537 8.48113 10.6981C8.3857 10.5421 8.34588 10.3584 8.36817 10.1768C8.39045 9.99528 8.47353 9.82662 8.60387 9.6983L10.332 7.9695C10.4727 7.82926 10.5574 7.64242 10.5701 7.44414C10.5827 7.24585 10.5225 7.04977 10.4007 6.89277L7.88137 3.63643C7.30861 2.89761 6.22855 2.78062 5.52487 3.39834C4.59782 4.21161 3.48421 5.42987 3.16019 6.79705C2.57352 9.25976 3.50057 12.35 7.57535 16.4245C11.6501 20.4982 14.7406 21.4261 17.2026 20.8402C18.5699 20.5146 19.7891 19.4003 20.6024 18.4741C21.2193 17.7704 21.1023 16.6904 20.3626 16.1177"
      stroke="#2D2D2D" stroke-width="1.5"></path>
  </svg>
  <svg viewBox="0 0 11 12" fill="none" id="icon_call2">
    <g id="icon_call2_0">
      <path id="icon_call2_1" fill-rule="evenodd" clip-rule="evenodd"
        d="M9.1298 7.70055L7.52204 6.45611C7.44439 6.39619 7.34756 6.36662 7.24968 6.37295C7.1518 6.37927 7.05958 6.42104 6.99029 6.49045L6.1369 7.34418C6.07334 7.40839 5.98997 7.44926 5.90029 7.46018C5.8106 7.47111 5.71985 7.45145 5.64274 7.40439C5.36797 7.2359 4.90815 6.90944 4.33276 6.33368C3.75737 5.75874 3.43089 5.29854 3.2624 5.0242C3.21527 4.94714 3.19561 4.85641 3.20661 4.76676C3.21762 4.67711 3.25864 4.59383 3.32301 4.53046L4.17639 3.67673C4.2459 3.60747 4.28771 3.51521 4.29396 3.41729C4.30021 3.31937 4.27047 3.22254 4.21033 3.14501L2.96622 1.53694C2.68337 1.1721 2.15001 1.11432 1.80251 1.41937C1.34471 1.82098 0.79478 2.42259 0.634771 3.09774C0.345057 4.3139 0.802861 5.83995 2.8151 7.85206C4.82733 9.86377 6.35348 10.3219 7.56931 10.0327C8.2445 9.87185 8.84656 9.32155 9.24819 8.86417C9.55286 8.5167 9.49508 7.98337 9.1298 7.70055Z"
        fill="#C6C6C6"></path>
    </g>
  </svg>
  <svg viewBox="0 0 36 36" fill="none" id="icon_camera">
    <g filter="url(#icon_camera_0)">
      <rect x="2" width="32" height="32" rx="16" fill="white" shape-rendering="crispEdges"></rect>
      <path fill-rule="evenodd" clip-rule="evenodd"
        d="M13 11.833H12.1667C11.2462 11.833 10.5 12.5792 10.5 13.4997V20.9997C10.5 21.9201 11.2462 22.6663 12.1667 22.6663H23.8333C24.7538 22.6663 25.5 21.9201 25.5 20.9997V13.4997C25.5 12.5792 24.7538 11.833 23.8333 11.833H23C22.0795 11.833 21.3333 11.0868 21.3333 10.1663C21.3333 9.7061 20.9602 9.33301 20.5 9.33301H15.5C15.0398 9.33301 14.6667 9.7061 14.6667 10.1663C14.6667 11.0868 13.9205 11.833 13 11.833ZM18 19.333C19.3807 19.333 20.5 18.2137 20.5 16.833C20.5 15.4523 19.3807 14.333 18 14.333C16.6193 14.333 15.5 15.4523 15.5 16.833C15.5 18.2137 16.6193 19.333 18 19.333Z"
        fill="#1D1D1D"></path>
    </g>
    <defs>
      <filter id="icon_camera_0" x="0" y="0" width="36" height="36" filterUnits="userSpaceOnUse"
        color-interpolation-filters="sRGB">
        <feFlood flood-opacity="0" result="BackgroundImageFix"></feFlood>
        <feColorMatrix in="SourceAlpha" type="matrix"
          values="0 0 0 0 0 0 0 0 0 0 0 0 0 0 0 0 0 0 127 0" result="hardAlpha"></feColorMatrix>
        <feOffset dy="2"></feOffset>
        <feGaussianBlur stdDeviation="1"></feGaussianBlur>
        <feComposite in2="hardAlpha" operator="out"></feComposite>
        <feColorMatrix type="matrix" values="0 0 0 0 0 0 0 0 0 0 0 0 0 0 0 0 0 0 0.12 0"></feColorMatrix>
        <feBlend mode="normal" in2="BackgroundImageFix" result="effect1_dropShadow_2012_9092"></feBlend>
        <feBlend mode="normal" in="SourceGraphic" in2="effect1_dropShadow_2012_9092" result="shape"></feBlend>
      </filter>
    </defs>
  </svg>
  <svg viewBox="0 0 11 11" fill="none" id="icon_clock">
    <g id="icon_clock_0">
      <path id="icon_clock_1" fill-rule="evenodd" clip-rule="evenodd"
        d="M5.77762 5.56044C5.77762 5.57511 5.7705 5.588 5.76917 5.60222C5.76666 5.63233 5.76055 5.66202 5.75095 5.69067C5.73486 5.74381 5.7086 5.79332 5.67362 5.83644C5.65406 5.86 5.63362 5.88089 5.60962 5.90044C5.5985 5.90933 5.59184 5.92222 5.57984 5.93022L3.47939 7.33022C3.38131 7.39314 3.26244 7.41502 3.14839 7.39116C3.03433 7.36729 2.93421 7.29958 2.86958 7.20262C2.80496 7.10565 2.781 6.98718 2.80287 6.87273C2.82474 6.75827 2.89068 6.65698 2.9865 6.59067L4.88873 5.32267V3.24711C4.88873 3.12924 4.93555 3.01619 5.0189 2.93284C5.10225 2.84949 5.2153 2.80267 5.33317 2.80267C5.45105 2.80267 5.56409 2.84949 5.64744 2.93284C5.73079 3.01619 5.77762 3.12924 5.77762 3.24711V5.56044ZM5.33317 1C2.75584 1 0.666504 3.08933 0.666504 5.66667C0.666504 8.244 2.75584 10.3333 5.33317 10.3333C7.9105 10.3333 9.99984 8.244 9.99984 5.66667C9.99984 3.08933 7.9105 1 5.33317 1Z"
        fill="#C6C6C6"></path>
    </g>
  </svg>
  <svg viewBox="0 0 20 20" fill="none" id="icon_delete_small">
    <rect x="2" y="2" width="16" height="16" rx="8" fill="#D8D8D8"></rect>
    <path d="M6.81787 6.81836L13.1818 13.1823" stroke="black" stroke-width="1.4"
      stroke-linecap="round"></path>
    <path d="M13.1821 6.81836L6.81817 13.1823" stroke="black" stroke-width="1.4"
      stroke-linecap="round"></path>
  </svg>
  <svg viewBox="0 0 32 32" fill="none" id="icon_facebook">
    <path
      d="M32 15.9949C32.0008 12.9371 31.1243 9.94324 29.4745 7.3681C27.8248 4.79297 25.4708 2.74457 22.6917 1.46571C19.9126 0.186856 16.8249 -0.268836 13.7945 0.152652C10.7642 0.574141 7.91832 1.85513 5.59422 3.8438C3.27011 5.83246 1.56525 8.44539 0.681697 11.3729C-0.201852 14.3004 -0.227035 17.4197 0.609133 20.3611C1.4453 23.3024 3.10776 25.9425 5.39945 27.9684C7.69115 29.9943 10.516 31.321 13.5391 31.7913V20.618H9.47991V15.9949H13.5391V12.479C13.5391 8.46437 15.8901 6.25845 19.5433 6.25845C20.7446 6.27529 21.943 6.37981 23.129 6.57117V10.5013H21.1501C20.8029 10.4543 20.4495 10.487 20.1168 10.5968C19.7841 10.7065 19.4808 10.8906 19.2298 11.1349C18.9788 11.3792 18.7867 11.6775 18.6682 12.007C18.5496 12.3365 18.5076 12.6887 18.5455 13.0368V16.0287H22.9767L22.2748 20.6518H18.5032V31.7913C22.2663 31.1956 25.6932 29.2773 28.1674 26.3816C30.6416 23.4858 32.0006 19.8028 32 15.9949Z"
      fill="#1977F3"></path>
  </svg>
  <svg viewBox="0 0 32 32" fill="none" id="icon_kakao">
    <circle cx="16" cy="16" r="16" fill="#FEE500"></circle>
    <path
      d="M15.9943 7.65234C10.9917 7.65234 6.95728 10.8754 6.95728 14.7883C6.95728 17.3281 8.63558 19.552 11.153 20.8219L10.301 24C10.2849 24.0476 10.2824 24.0987 10.2938 24.1477C10.3052 24.1966 10.3301 24.2414 10.3655 24.2771C10.4172 24.3226 10.4838 24.3478 10.5527 24.348C10.6099 24.3434 10.6641 24.3209 10.7076 24.2836L14.3741 21.8147C14.9153 21.8893 15.4609 21.928 16.0072 21.9307C21.0034 21.9307 25.0442 18.7076 25.0442 14.7883C25.0442 10.869 20.9905 7.65234 15.9943 7.65234Z"
      fill="#392020"></path>
  </svg>
  <svg viewBox="0 0 32 32" fill="none" id="icon_link">
    <circle cx="16" cy="16" r="16" fill="#F0F0F0"></circle>
    <g clip-path="url(#icon_link_0)">
      <path fill-rule="evenodd" clip-rule="evenodd"
        d="M23.7634 8.23623C22.8107 7.28575 21.5199 6.75195 20.1742 6.75195C18.8285 6.75195 17.5377 7.28575 16.585 8.23623L14.8742 9.94623C14.7125 10.1202 14.6246 10.3501 14.629 10.5876C14.6333 10.8251 14.7296 11.0516 14.8976 11.2195C15.0655 11.3875 15.292 11.4837 15.5295 11.4881C15.767 11.4925 15.9969 11.4046 16.1709 11.2429L17.8817 9.5329C18.4902 8.9258 19.3146 8.58486 20.1742 8.58486C21.0337 8.58486 21.8582 8.9258 22.4667 9.5329C22.7688 9.83321 23.0083 10.1905 23.1713 10.584C23.3344 10.9775 23.4178 11.3994 23.4167 11.8254C23.4178 12.2514 23.3345 12.6733 23.1714 13.0668C23.0083 13.4604 22.7688 13.8176 22.4667 14.1179L19.4659 17.1187C18.2417 18.3437 16.1059 18.3437 14.8809 17.1187C14.6781 16.9166 14.5029 16.6885 14.36 16.4404C14.2389 16.2295 14.039 16.0755 13.8043 16.012C13.5695 15.9486 13.3192 15.9809 13.1084 16.1021C12.8975 16.2232 12.7434 16.4231 12.68 16.6578C12.6165 16.8926 12.6489 17.1429 12.77 17.3537C12.9925 17.7396 13.2659 18.0971 13.5842 18.4154C14.0545 18.8881 14.6139 19.2629 15.2299 19.5181C15.846 19.7732 16.5065 19.9038 17.1734 19.9021C17.8402 19.9038 18.5008 19.7734 19.1168 19.5182C19.7329 19.263 20.2923 18.8882 20.7625 18.4154L23.7634 15.4154C24.2363 14.9449 24.6112 14.3852 24.8663 13.7689C25.1215 13.1525 25.2519 12.4917 25.25 11.8246C25.2518 11.1577 25.1213 10.4972 24.8661 9.88109C24.611 9.26501 24.2361 8.70566 23.7634 8.2354"
        fill="#8E8E8E"></path>
      <path fill-rule="evenodd" clip-rule="evenodd"
        d="M15.8292 20.7567L14.1183 22.4675C13.5096 23.0742 12.6853 23.4149 11.8258 23.4149C10.9664 23.4149 10.1421 23.0742 9.53335 22.4675C9.23146 22.1671 8.99208 21.8098 8.82902 21.4163C8.66597 21.0228 8.58247 20.6009 8.58335 20.175C8.58335 19.3092 8.92085 18.495 9.53335 17.8834L12.5342 14.8817C12.8867 14.53 13.3153 14.264 13.787 14.1045C14.2587 13.945 14.7608 13.8961 15.2544 13.9617C15.748 14.0273 16.2199 14.2055 16.6336 14.4827C17.0472 14.7598 17.3916 15.1285 17.64 15.56C17.7 15.6644 17.7799 15.756 17.8753 15.8295C17.9706 15.903 18.0795 15.957 18.1958 15.9884C18.312 16.0198 18.4333 16.0281 18.5527 16.0126C18.6721 15.9971 18.7873 15.9583 18.8917 15.8984C18.9961 15.8384 19.0877 15.7584 19.1612 15.6631C19.2347 15.5677 19.2887 15.4588 19.3201 15.3426C19.3515 15.2264 19.3597 15.1051 19.3443 14.9857C19.3288 14.8663 19.29 14.7511 19.23 14.6467C18.8409 13.9714 18.3018 13.3946 17.6542 12.961C17.0066 12.5274 16.268 12.2484 15.4955 12.1458C14.7229 12.0432 13.9371 12.1196 13.1987 12.3692C12.4604 12.6187 11.7894 13.0347 11.2375 13.585L8.23668 16.5859C7.76398 17.0562 7.3892 17.6155 7.13402 18.2316C6.87884 18.8477 6.74832 19.5082 6.75002 20.175C6.75002 21.5309 7.27835 22.8059 8.23668 23.7642C8.70754 24.236 9.26706 24.61 9.88304 24.8647C10.499 25.1194 11.1593 25.2498 11.8258 25.2484C13.1258 25.2484 14.425 24.7534 15.415 23.765L17.1258 22.0542C17.2875 21.8802 17.3754 21.6503 17.371 21.4128C17.3667 21.1754 17.2704 20.9488 17.1025 20.7809C16.9345 20.613 16.708 20.5167 16.4705 20.5123C16.2331 20.508 16.0032 20.5959 15.8292 20.7575"
        fill="#8E8E8E"></path>
    </g>
    <defs>
      <clipPath id="icon_link_0">
        <rect width="20" height="20" fill="white" transform="translate(6 6)"></rect>
      </clipPath>
    </defs>
  </svg>
  <svg viewBox="0 0 24 24" fill="none" id="icon_navigation_bookmark_after">
    <mask id="icon_navigation_bookmark_after_0" maskUnits="userSpaceOnUse" x="1" y="1" width="22"
      height="22" fill="black">
      <rect fill="white" x="1" y="1" width="22" height="22"></rect>
      <path
        d="M12.7112 3.49956L14.6355 8.34832C14.6894 8.48667 14.779 8.60616 14.8941 8.69313C15.0092 8.7801 15.1451 8.83104 15.2863 8.84008L20.297 9.26304C20.4472 9.27544 20.5906 9.3346 20.709 9.43316C20.8275 9.53173 20.9156 9.6652 20.9624 9.81675C21.0091 9.9683 21.0124 10.1311 20.9717 10.2846C20.9311 10.4381 20.8483 10.5755 20.7339 10.6792L16.9224 14.092C16.8146 14.1869 16.734 14.3118 16.6896 14.4525C16.6453 14.5933 16.639 14.7444 16.6714 14.8887L17.8334 20.0029C17.8692 20.1586 17.8604 20.322 17.8081 20.4723C17.7557 20.6226 17.6623 20.753 17.5396 20.8469C17.417 20.9408 17.2706 20.9939 17.1193 20.9995C16.968 21.0051 16.8186 20.9629 16.69 20.8783L12.4044 18.1342C12.2821 18.0571 12.1424 18.0164 12 18.0164C11.8576 18.0164 11.7179 18.0571 11.5956 18.1342L7.31001 20.8783C7.18146 20.9629 7.032 21.0051 6.88069 20.9995C6.72937 20.9939 6.58304 20.9408 6.46038 20.8469C6.33772 20.753 6.24428 20.6226 6.19194 20.4723C6.13961 20.322 6.13077 20.1586 6.16655 20.0029L7.3286 14.8887C7.36103 14.7444 7.3547 14.5933 7.31035 14.4525C7.26601 14.3118 7.18541 14.1869 7.0776 14.092L3.2661 10.6792C3.15171 10.5755 3.06893 10.4381 3.02827 10.2846C2.98761 10.1311 2.99088 9.9683 3.03763 9.81675C3.08439 9.6652 3.17255 9.53173 3.29098 9.43316C3.40941 9.3346 3.5528 9.27544 3.70303 9.26304L8.71374 8.84008C8.85491 8.83104 8.99084 8.7801 9.10593 8.69313C9.22102 8.60616 9.31063 8.48667 9.3645 8.34832L11.2888 3.49956C11.3478 3.35148 11.4466 3.22514 11.5731 3.13627C11.6996 3.04739 11.8481 3 12 3C12.1519 3 12.3004 3.04739 12.4269 3.13627C12.5534 3.22514 12.6523 3.35148 12.7112 3.49956Z"></path>
    </mask>
    <path
      d="M12.7112 3.49956L14.6355 8.34832C14.6894 8.48667 14.779 8.60616 14.8941 8.69313C15.0092 8.7801 15.1451 8.83104 15.2863 8.84008L20.297 9.26304C20.4472 9.27544 20.5906 9.3346 20.709 9.43316C20.8275 9.53173 20.9156 9.6652 20.9624 9.81675C21.0091 9.9683 21.0124 10.1311 20.9717 10.2846C20.9311 10.4381 20.8483 10.5755 20.7339 10.6792L16.9224 14.092C16.8146 14.1869 16.734 14.3118 16.6896 14.4525C16.6453 14.5933 16.639 14.7444 16.6714 14.8887L17.8334 20.0029C17.8692 20.1586 17.8604 20.322 17.8081 20.4723C17.7557 20.6226 17.6623 20.753 17.5396 20.8469C17.417 20.9408 17.2706 20.9939 17.1193 20.9995C16.968 21.0051 16.8186 20.9629 16.69 20.8783L12.4044 18.1342C12.2821 18.0571 12.1424 18.0164 12 18.0164C11.8576 18.0164 11.7179 18.0571 11.5956 18.1342L7.31001 20.8783C7.18146 20.9629 7.032 21.0051 6.88069 20.9995C6.72937 20.9939 6.58304 20.9408 6.46038 20.8469C6.33772 20.753 6.24428 20.6226 6.19194 20.4723C6.13961 20.322 6.13077 20.1586 6.16655 20.0029L7.3286 14.8887C7.36103 14.7444 7.3547 14.5933 7.31035 14.4525C7.26601 14.3118 7.18541 14.1869 7.0776 14.092L3.2661 10.6792C3.15171 10.5755 3.06893 10.4381 3.02827 10.2846C2.98761 10.1311 2.99088 9.9683 3.03763 9.81675C3.08439 9.6652 3.17255 9.53173 3.29098 9.43316C3.40941 9.3346 3.5528 9.27544 3.70303 9.26304L8.71374 8.84008C8.85491 8.83104 8.99084 8.7801 9.10593 8.69313C9.22102 8.60616 9.31063 8.48667 9.3645 8.34832L11.2888 3.49956C11.3478 3.35148 11.4466 3.22514 11.5731 3.13627C11.6996 3.04739 11.8481 3 12 3C12.1519 3 12.3004 3.04739 12.4269 3.13627C12.5534 3.22514 12.6523 3.35148 12.7112 3.49956Z"
      fill="white"></path>
    <path
      d="M12.7112 3.49956L14.6355 8.34832C14.6894 8.48667 14.779 8.60616 14.8941 8.69313C15.0092 8.7801 15.1451 8.83104 15.2863 8.84008L20.297 9.26304C20.4472 9.27544 20.5906 9.3346 20.709 9.43316C20.8275 9.53173 20.9156 9.6652 20.9624 9.81675C21.0091 9.9683 21.0124 10.1311 20.9717 10.2846C20.9311 10.4381 20.8483 10.5755 20.7339 10.6792L16.9224 14.092C16.8146 14.1869 16.734 14.3118 16.6896 14.4525C16.6453 14.5933 16.639 14.7444 16.6714 14.8887L17.8334 20.0029C17.8692 20.1586 17.8604 20.322 17.8081 20.4723C17.7557 20.6226 17.6623 20.753 17.5396 20.8469C17.417 20.9408 17.2706 20.9939 17.1193 20.9995C16.968 21.0051 16.8186 20.9629 16.69 20.8783L12.4044 18.1342C12.2821 18.0571 12.1424 18.0164 12 18.0164C11.8576 18.0164 11.7179 18.0571 11.5956 18.1342L7.31001 20.8783C7.18146 20.9629 7.032 21.0051 6.88069 20.9995C6.72937 20.9939 6.58304 20.9408 6.46038 20.8469C6.33772 20.753 6.24428 20.6226 6.19194 20.4723C6.13961 20.322 6.13077 20.1586 6.16655 20.0029L7.3286 14.8887C7.36103 14.7444 7.3547 14.5933 7.31035 14.4525C7.26601 14.3118 7.18541 14.1869 7.0776 14.092L3.2661 10.6792C3.15171 10.5755 3.06893 10.4381 3.02827 10.2846C2.98761 10.1311 2.99088 9.9683 3.03763 9.81675C3.08439 9.6652 3.17255 9.53173 3.29098 9.43316C3.40941 9.3346 3.5528 9.27544 3.70303 9.26304L8.71374 8.84008C8.85491 8.83104 8.99084 8.7801 9.10593 8.69313C9.22102 8.60616 9.31063 8.48667 9.3645 8.34832L11.2888 3.49956C11.3478 3.35148 11.4466 3.22514 11.5731 3.13627C11.6996 3.04739 11.8481 3 12 3C12.1519 3 12.3004 3.04739 12.4269 3.13627C12.5534 3.22514 12.6523 3.35148 12.7112 3.49956Z"
      stroke="#246BEB" stroke-width="3" stroke-linecap="round" stroke-linejoin="round"
      mask="url(#icon_navigation_bookmark_after_0)"></path>
  </svg>
  <svg viewBox="0 0 24 24" fill="none" id="icon_navigation_bookmark_before">
    <mask id="icon_navigation_bookmark_before_0" maskUnits="userSpaceOnUse" x="1" y="1" width="22"
      height="22" fill="black">
      <rect fill="white" x="1" y="1" width="22" height="22"></rect>
      <path
        d="M12.7112 3.49956L14.6355 8.34832C14.6894 8.48667 14.779 8.60616 14.8941 8.69313C15.0092 8.7801 15.1451 8.83104 15.2863 8.84008L20.297 9.26304C20.4472 9.27544 20.5906 9.3346 20.709 9.43316C20.8275 9.53173 20.9156 9.6652 20.9624 9.81675C21.0091 9.9683 21.0124 10.1311 20.9717 10.2846C20.9311 10.4381 20.8483 10.5755 20.7339 10.6792L16.9224 14.092C16.8146 14.1869 16.734 14.3118 16.6896 14.4525C16.6453 14.5933 16.639 14.7444 16.6714 14.8887L17.8334 20.0029C17.8692 20.1586 17.8604 20.322 17.8081 20.4723C17.7557 20.6226 17.6623 20.753 17.5396 20.8469C17.417 20.9408 17.2706 20.9939 17.1193 20.9995C16.968 21.0051 16.8186 20.9629 16.69 20.8783L12.4044 18.1342C12.2821 18.0571 12.1424 18.0164 12 18.0164C11.8576 18.0164 11.7179 18.0571 11.5956 18.1342L7.31001 20.8783C7.18146 20.9629 7.032 21.0051 6.88069 20.9995C6.72937 20.9939 6.58304 20.9408 6.46038 20.8469C6.33772 20.753 6.24428 20.6226 6.19194 20.4723C6.13961 20.322 6.13077 20.1586 6.16655 20.0029L7.3286 14.8887C7.36103 14.7444 7.3547 14.5933 7.31035 14.4525C7.26601 14.3118 7.18541 14.1869 7.0776 14.092L3.2661 10.6792C3.15171 10.5755 3.06893 10.4381 3.02827 10.2846C2.98761 10.1311 2.99088 9.9683 3.03763 9.81675C3.08439 9.6652 3.17255 9.53173 3.29098 9.43316C3.40941 9.3346 3.5528 9.27544 3.70303 9.26304L8.71374 8.84008C8.85491 8.83104 8.99084 8.7801 9.10593 8.69313C9.22102 8.60616 9.31063 8.48667 9.3645 8.34832L11.2888 3.49956C11.3478 3.35148 11.4466 3.22514 11.5731 3.13627C11.6996 3.04739 11.8481 3 12 3C12.1519 3 12.3004 3.04739 12.4269 3.13627C12.5534 3.22514 12.6523 3.35148 12.7112 3.49956Z"></path>
    </mask>
    <path
      d="M12.7112 3.49956L14.6355 8.34832C14.6894 8.48667 14.779 8.60616 14.8941 8.69313C15.0092 8.7801 15.1451 8.83104 15.2863 8.84008L20.297 9.26304C20.4472 9.27544 20.5906 9.3346 20.709 9.43316C20.8275 9.53173 20.9156 9.6652 20.9624 9.81675C21.0091 9.9683 21.0124 10.1311 20.9717 10.2846C20.9311 10.4381 20.8483 10.5755 20.7339 10.6792L16.9224 14.092C16.8146 14.1869 16.734 14.3118 16.6896 14.4525C16.6453 14.5933 16.639 14.7444 16.6714 14.8887L17.8334 20.0029C17.8692 20.1586 17.8604 20.322 17.8081 20.4723C17.7557 20.6226 17.6623 20.753 17.5396 20.8469C17.417 20.9408 17.2706 20.9939 17.1193 20.9995C16.968 21.0051 16.8186 20.9629 16.69 20.8783L12.4044 18.1342C12.2821 18.0571 12.1424 18.0164 12 18.0164C11.8576 18.0164 11.7179 18.0571 11.5956 18.1342L7.31001 20.8783C7.18146 20.9629 7.032 21.0051 6.88069 20.9995C6.72937 20.9939 6.58304 20.9408 6.46038 20.8469C6.33772 20.753 6.24428 20.6226 6.19194 20.4723C6.13961 20.322 6.13077 20.1586 6.16655 20.0029L7.3286 14.8887C7.36103 14.7444 7.3547 14.5933 7.31035 14.4525C7.26601 14.3118 7.18541 14.1869 7.0776 14.092L3.2661 10.6792C3.15171 10.5755 3.06893 10.4381 3.02827 10.2846C2.98761 10.1311 2.99088 9.9683 3.03763 9.81675C3.08439 9.6652 3.17255 9.53173 3.29098 9.43316C3.40941 9.3346 3.5528 9.27544 3.70303 9.26304L8.71374 8.84008C8.85491 8.83104 8.99084 8.7801 9.10593 8.69313C9.22102 8.60616 9.31063 8.48667 9.3645 8.34832L11.2888 3.49956C11.3478 3.35148 11.4466 3.22514 11.5731 3.13627C11.6996 3.04739 11.8481 3 12 3C12.1519 3 12.3004 3.04739 12.4269 3.13627C12.5534 3.22514 12.6523 3.35148 12.7112 3.49956Z"
      fill="white"></path>
    <path
      d="M12.7112 3.49956L14.6355 8.34832C14.6894 8.48667 14.779 8.60616 14.8941 8.69313C15.0092 8.7801 15.1451 8.83104 15.2863 8.84008L20.297 9.26304C20.4472 9.27544 20.5906 9.3346 20.709 9.43316C20.8275 9.53173 20.9156 9.6652 20.9624 9.81675C21.0091 9.9683 21.0124 10.1311 20.9717 10.2846C20.9311 10.4381 20.8483 10.5755 20.7339 10.6792L16.9224 14.092C16.8146 14.1869 16.734 14.3118 16.6896 14.4525C16.6453 14.5933 16.639 14.7444 16.6714 14.8887L17.8334 20.0029C17.8692 20.1586 17.8604 20.322 17.8081 20.4723C17.7557 20.6226 17.6623 20.753 17.5396 20.8469C17.417 20.9408 17.2706 20.9939 17.1193 20.9995C16.968 21.0051 16.8186 20.9629 16.69 20.8783L12.4044 18.1342C12.2821 18.0571 12.1424 18.0164 12 18.0164C11.8576 18.0164 11.7179 18.0571 11.5956 18.1342L7.31001 20.8783C7.18146 20.9629 7.032 21.0051 6.88069 20.9995C6.72937 20.9939 6.58304 20.9408 6.46038 20.8469C6.33772 20.753 6.24428 20.6226 6.19194 20.4723C6.13961 20.322 6.13077 20.1586 6.16655 20.0029L7.3286 14.8887C7.36103 14.7444 7.3547 14.5933 7.31035 14.4525C7.26601 14.3118 7.18541 14.1869 7.0776 14.092L3.2661 10.6792C3.15171 10.5755 3.06893 10.4381 3.02827 10.2846C2.98761 10.1311 2.99088 9.9683 3.03763 9.81675C3.08439 9.6652 3.17255 9.53173 3.29098 9.43316C3.40941 9.3346 3.5528 9.27544 3.70303 9.26304L8.71374 8.84008C8.85491 8.83104 8.99084 8.7801 9.10593 8.69313C9.22102 8.60616 9.31063 8.48667 9.3645 8.34832L11.2888 3.49956C11.3478 3.35148 11.4466 3.22514 11.5731 3.13627C11.6996 3.04739 11.8481 3 12 3C12.1519 3 12.3004 3.04739 12.4269 3.13627C12.5534 3.22514 12.6523 3.35148 12.7112 3.49956Z"
      stroke="currentColor" stroke-width="1.5" stroke-linecap="round" stroke-linejoin="round"
      mask="url(#icon_navigation_bookmark_before_0)"></path>
  </svg>
  <svg viewBox="0 0 24 24" fill="none" id="icon_navigation_home_after">
    <path
      d="M10.9571 3.63733L3.9571 7.91511C3.36259 8.27842 3 8.92494 3 9.62167V19.5C3 20.6046 3.89543 21.5 5 21.5H7.66667C8.40305 21.5 9 20.903 9 20.1667V16.5C9 14.8431 10.3431 13.5 12 13.5C13.6569 13.5 15 14.8431 15 16.5V20.1667C15 20.903 15.597 21.5 16.3333 21.5H19C20.1046 21.5 21 20.6046 21 19.5V9.62167C21 8.92494 20.6374 8.27842 20.0429 7.91511L13.0429 3.63733C12.4027 3.24608 11.5973 3.24608 10.9571 3.63733Z"
      stroke="currentColor" stroke-width="1.5"></path>
  </svg>
  <svg viewBox="0 0 24 24" fill="none" id="icon_navigation_home_before">
    <path
      d="M10.9571 3.63733L3.9571 7.91511C3.36259 8.27842 3 8.92494 3 9.62167V19.5C3 20.6046 3.89543 21.5 5 21.5H7.66667C8.40305 21.5 9 20.903 9 20.1667V16.5C9 14.8431 10.3431 13.5 12 13.5C13.6569 13.5 15 14.8431 15 16.5V20.1667C15 20.903 15.597 21.5 16.3333 21.5H19C20.1046 21.5 21 20.6046 21 19.5V9.62167C21 8.92494 20.6374 8.27842 20.0429 7.91511L13.0429 3.63733C12.4027 3.24608 11.5973 3.24608 10.9571 3.63733Z"
      stroke="currentColor" stroke-width="1.5"></path>
  </svg>
  <svg viewBox="0 0 24 24" fill="none" id="icon_navigation_profile_after">
    <circle cx="12" cy="8" r="5.25" stroke="#246BEB" stroke-width="1.5"></circle>
    <path d="M20 21.5C20 17.0817 16.4183 13.5 12 13.5C7.58172 13.5 4 17.0817 4 21.5"
      stroke="#246BEB" stroke-width="1.5" stroke-linecap="round"></path>
  </svg>
  <svg viewBox="0 0 24 24" fill="none" id="icon_navigation_profile_before">
    <circle cx="12" cy="8" r="5.25" stroke="currentColor" stroke-width="1.5"></circle>
    <path d="M20 21.5C20 17.0817 16.4183 13.5 12 13.5C7.58172 13.5 4 17.0817 4 21.5"
      stroke="currentColor" stroke-width="1.5" stroke-linecap="round"></path>
  </svg>
  <svg viewBox="0 0 16 16" fill="none" id="icon_pencil">
    <path fill-rule="evenodd" clip-rule="evenodd"
      d="M8.27353 3.85273L2.62189 9.50437L1.85105 12.3795L1.34401 14.2735C1.32992 14.3264 1.32999 14.3821 1.34421 14.435C1.35843 14.4879 1.38629 14.5361 1.42501 14.5748C1.46373 14.6135 1.51195 14.6414 1.56483 14.6556C1.61771 14.6698 1.6734 14.6699 1.72631 14.6558L3.61913 14.1482L6.49484 13.3773H6.49547L12.1471 7.72568L8.27415 3.85273H8.27353ZM14.484 4.50758L11.4929 1.51587C11.435 1.4579 11.3663 1.41191 11.2906 1.38054C11.215 1.34916 11.1339 1.33301 11.052 1.33301C10.97 1.33301 10.8889 1.34916 10.8133 1.38054C10.7376 1.41191 10.6689 1.4579 10.611 1.51587L9.06745 3.05881L12.941 6.93238L14.484 5.38882C14.5419 5.33095 14.5879 5.26222 14.6193 5.18656C14.6507 5.1109 14.6668 5.02979 14.6668 4.94789C14.6668 4.86598 14.6507 4.78487 14.6193 4.70921C14.5879 4.63355 14.5419 4.56482 14.484 4.50696"
      fill="#246BEB"></path>
  </svg>
  <svg viewBox="0 0 11 11" fill="none" id="icon_pin">
    <g id="icon_pin_0" clip-path="url(#icon_pin_2)">
      <path id="icon_pin_1" fill-rule="evenodd" clip-rule="evenodd"
        d="M5.33319 5.66293C5.17287 5.666 5.01354 5.63708 4.86453 5.57786C4.71551 5.51864 4.5798 5.43029 4.46534 5.318C4.35087 5.20571 4.25994 5.07172 4.19786 4.92387C4.13579 4.77602 4.10382 4.61728 4.10382 4.45693C4.10382 4.29657 4.13579 4.13783 4.19786 3.98998C4.25994 3.84213 4.35087 3.70814 4.46534 3.59585C4.5798 3.48356 4.71551 3.39522 4.86453 3.33599C5.01354 3.27677 5.17287 3.24785 5.33319 3.25093C5.64903 3.25699 5.94989 3.38671 6.17111 3.61222C6.39233 3.83773 6.51626 4.14103 6.51626 4.45693C6.51626 4.77283 6.39233 5.07612 6.17111 5.30163C5.94989 5.52714 5.64903 5.65686 5.33319 5.66293ZM4.38919 0.460704C2.49141 0.884259 1.16075 2.67048 1.23541 4.61359C1.29408 6.13981 2.23052 7.50515 5.01675 10.1838C5.19275 10.3527 5.47452 10.3536 5.65097 10.1843C8.53275 7.41404 9.43586 6.0487 9.43586 4.4567C9.43586 1.88337 7.06564 -0.13663 4.38919 0.461148"
        fill="#C6C6C6"></path>
    </g>
    <defs>
      <clipPath id="icon_pin_2">
        <rect width="10.6667" height="10.6667" fill="white"></rect>
      </clipPath>
    </defs>
  </svg>
  <svg viewBox="0 0 24 24" fill="none" id="icon_share">
    <path
      d="M10 5H7C5.89543 5 5 5.89543 5 7V17C5 18.1046 5.89543 19 7 19H17C18.1046 19 19 18.1046 19 17V14"
      stroke="#2D2D2D" stroke-width="1.5" stroke-linecap="round" stroke-linejoin="round"></path>
    <path d="M14 5H19V10" stroke="#2D2D2D" stroke-width="1.5" stroke-linecap="round"
      stroke-linejoin="round"></path>
    <path d="M19.0005 5L12.0005 12" stroke="#2D2D2D" stroke-width="1.5" stroke-linecap="round"
      stroke-linejoin="round"></path>
  </svg>
  <svg viewBox="0 0 198 122" fill="none" id="logo">
    <path fill-rule="evenodd" clip-rule="evenodd"
      d="M99 0C110.598 0 120 9.40202 120 21C120 22.4157 119.86 23.7986 119.593 25.1358C117.739 39.1032 99.1104 55 99.1104 55C99.1104 55 83.2569 41.4717 79.3446 28.4096C78.4755 26.1054 78 23.6083 78 21C78 9.40202 87.402 0 99 0Z"
      fill="#246BEB"></path>
    <path
      d="M107 21C107 16.5817 103.418 13 99 13C94.5817 13 91 16.5817 91 21C91 25.4183 94.5817 29 99 29C103.418 29 107 25.4183 107 21Z"
      fill="white"></path>
    <text fill="#246BEB" xml:space="preserve" style="white-space: pre"
      font-family="Pretendard GOV Variable" font-size="36" font-weight="bold" letter-spacing="0em"><tspan x="0" y="113.297">109 &#xd50c;&#xb808;&#xc774;&#xc2a4;</tspan></text>
  </svg>
  <svg viewBox="0 0 48 49" fill="none" id="maker_favorite">
    <g filter="url(#maker_favorite_1)">
      <path fill-rule="evenodd" clip-rule="evenodd"
        d="M24 3.5C14.0589 3.5 6 11.5589 6 21.5C6 30.0951 12.0243 37.2831 20.0808 39.0721L22.07 42.2548C23.0274 43.7867 25.2583 43.7867 26.2157 42.2548L28.2534 38.9945C36.1418 37.0834 42 29.9758 42 21.5C42 11.5589 33.9411 3.5 24 3.5Z"
        fill="#246BEB"></path>
      <path
        d="M20.0808 39.0721L20.42 38.8601L20.3311 38.7179L20.1675 38.6816L20.0808 39.0721ZM22.07 42.2548L22.4092 42.0428L22.4092 42.0428L22.07 42.2548ZM26.2157 42.2548L26.5549 42.4668L26.2157 42.2548ZM28.2534 38.9945L28.1593 38.6058L28.0007 38.6442L27.9142 38.7825L28.2534 38.9945ZM6.4 21.5C6.4 11.7798 14.2798 3.9 24 3.9V3.1C13.838 3.1 5.6 11.338 5.6 21.5H6.4ZM20.1675 38.6816C12.2901 36.9324 6.4 29.9036 6.4 21.5H5.6C5.6 30.2866 11.7584 37.6339 19.9941 39.4626L20.1675 38.6816ZM22.4092 42.0428L20.42 38.8601L19.7416 39.2841L21.7308 42.4668L22.4092 42.0428ZM25.8765 42.0428C25.0758 43.324 23.2099 43.324 22.4092 42.0428L21.7308 42.4668C22.8448 44.2493 25.4409 44.2493 26.5549 42.4668L25.8765 42.0428ZM27.9142 38.7825L25.8765 42.0428L26.5549 42.4668L28.5926 39.2065L27.9142 38.7825ZM41.6 21.5C41.6 29.7869 35.8723 36.7371 28.1593 38.6058L28.3476 39.3833C36.4112 37.4297 42.4 30.1647 42.4 21.5H41.6ZM24 3.9C33.7202 3.9 41.6 11.7798 41.6 21.5H42.4C42.4 11.338 34.162 3.1 24 3.1V3.9Z"
        fill="#1D56BC"></path>
    </g>
    <mask id="maker_favorite_0" maskUnits="userSpaceOnUse" x="13" y="10" width="22" height="22"
      fill="black">
      <rect fill="white" x="13" y="10" width="22" height="22"></rect>
      <path
        d="M24.7112 12.4996L26.6355 17.3483C26.6894 17.4867 26.779 17.6062 26.8941 17.6931C27.0092 17.7801 27.1451 17.831 27.2863 17.8401L32.297 18.263C32.4472 18.2754 32.5906 18.3346 32.709 18.4332C32.8275 18.5317 32.9156 18.6652 32.9624 18.8167C33.0091 18.9683 33.0124 19.1311 32.9717 19.2846C32.9311 19.4381 32.8483 19.5755 32.7339 19.6792L28.9224 23.092C28.8146 23.1869 28.734 23.3118 28.6896 23.4525C28.6453 23.5933 28.639 23.7444 28.6714 23.8887L29.8334 29.0029C29.8692 29.1586 29.8604 29.322 29.8081 29.4723C29.7557 29.6226 29.6623 29.753 29.5396 29.8469C29.417 29.9408 29.2706 29.9939 29.1193 29.9995C28.968 30.0051 28.8186 29.9629 28.69 29.8783L24.4044 27.1342C24.2821 27.0571 24.1424 27.0164 24 27.0164C23.8576 27.0164 23.7179 27.0571 23.5956 27.1342L19.31 29.8783C19.1815 29.9629 19.032 30.0051 18.8807 29.9995C18.7294 29.9939 18.583 29.9408 18.4604 29.8469C18.3377 29.753 18.2443 29.6226 18.1919 29.4723C18.1396 29.322 18.1308 29.1586 18.1666 29.0029L19.3286 23.8887C19.361 23.7444 19.3547 23.5933 19.3104 23.4525C19.266 23.3118 19.1854 23.1869 19.0776 23.092L15.2661 19.6792C15.1517 19.5755 15.0689 19.4381 15.0283 19.2846C14.9876 19.1311 14.9909 18.9683 15.0376 18.8167C15.0844 18.6652 15.1725 18.5317 15.291 18.4332C15.4094 18.3346 15.5528 18.2754 15.703 18.263L20.7137 17.8401C20.8549 17.831 20.9908 17.7801 21.1059 17.6931C21.221 17.6062 21.3106 17.4867 21.3645 17.3483L23.2888 12.4996C23.3478 12.3515 23.4466 12.2251 23.5731 12.1363C23.6996 12.0474 23.8481 12 24 12C24.1519 12 24.3004 12.0474 24.4269 12.1363C24.5534 12.2251 24.6523 12.3515 24.7112 12.4996Z"></path>
    </mask>
    <path
      d="M24.7112 12.4996L26.6355 17.3483C26.6894 17.4867 26.779 17.6062 26.8941 17.6931C27.0092 17.7801 27.1451 17.831 27.2863 17.8401L32.297 18.263C32.4472 18.2754 32.5906 18.3346 32.709 18.4332C32.8275 18.5317 32.9156 18.6652 32.9624 18.8167C33.0091 18.9683 33.0124 19.1311 32.9717 19.2846C32.9311 19.4381 32.8483 19.5755 32.7339 19.6792L28.9224 23.092C28.8146 23.1869 28.734 23.3118 28.6896 23.4525C28.6453 23.5933 28.639 23.7444 28.6714 23.8887L29.8334 29.0029C29.8692 29.1586 29.8604 29.322 29.8081 29.4723C29.7557 29.6226 29.6623 29.753 29.5396 29.8469C29.417 29.9408 29.2706 29.9939 29.1193 29.9995C28.968 30.0051 28.8186 29.9629 28.69 29.8783L24.4044 27.1342C24.2821 27.0571 24.1424 27.0164 24 27.0164C23.8576 27.0164 23.7179 27.0571 23.5956 27.1342L19.31 29.8783C19.1815 29.9629 19.032 30.0051 18.8807 29.9995C18.7294 29.9939 18.583 29.9408 18.4604 29.8469C18.3377 29.753 18.2443 29.6226 18.1919 29.4723C18.1396 29.322 18.1308 29.1586 18.1666 29.0029L19.3286 23.8887C19.361 23.7444 19.3547 23.5933 19.3104 23.4525C19.266 23.3118 19.1854 23.1869 19.0776 23.092L15.2661 19.6792C15.1517 19.5755 15.0689 19.4381 15.0283 19.2846C14.9876 19.1311 14.9909 18.9683 15.0376 18.8167C15.0844 18.6652 15.1725 18.5317 15.291 18.4332C15.4094 18.3346 15.5528 18.2754 15.703 18.263L20.7137 17.8401C20.8549 17.831 20.9908 17.7801 21.1059 17.6931C21.221 17.6062 21.3106 17.4867 21.3645 17.3483L23.2888 12.4996C23.3478 12.3515 23.4466 12.2251 23.5731 12.1363C23.6996 12.0474 23.8481 12 24 12C24.1519 12 24.3004 12.0474 24.4269 12.1363C24.5534 12.2251 24.6523 12.3515 24.7112 12.4996Z"
      fill="white"></path>
    <path
      d="M24.7112 12.4996L26.6355 17.3483C26.6894 17.4867 26.779 17.6062 26.8941 17.6931C27.0092 17.7801 27.1451 17.831 27.2863 17.8401L32.297 18.263C32.4472 18.2754 32.5906 18.3346 32.709 18.4332C32.8275 18.5317 32.9156 18.6652 32.9624 18.8167C33.0091 18.9683 33.0124 19.1311 32.9717 19.2846C32.9311 19.4381 32.8483 19.5755 32.7339 19.6792L28.9224 23.092C28.8146 23.1869 28.734 23.3118 28.6896 23.4525C28.6453 23.5933 28.639 23.7444 28.6714 23.8887L29.8334 29.0029C29.8692 29.1586 29.8604 29.322 29.8081 29.4723C29.7557 29.6226 29.6623 29.753 29.5396 29.8469C29.417 29.9408 29.2706 29.9939 29.1193 29.9995C28.968 30.0051 28.8186 29.9629 28.69 29.8783L24.4044 27.1342C24.2821 27.0571 24.1424 27.0164 24 27.0164C23.8576 27.0164 23.7179 27.0571 23.5956 27.1342L19.31 29.8783C19.1815 29.9629 19.032 30.0051 18.8807 29.9995C18.7294 29.9939 18.583 29.9408 18.4604 29.8469C18.3377 29.753 18.2443 29.6226 18.1919 29.4723C18.1396 29.322 18.1308 29.1586 18.1666 29.0029L19.3286 23.8887C19.361 23.7444 19.3547 23.5933 19.3104 23.4525C19.266 23.3118 19.1854 23.1869 19.0776 23.092L15.2661 19.6792C15.1517 19.5755 15.0689 19.4381 15.0283 19.2846C14.9876 19.1311 14.9909 18.9683 15.0376 18.8167C15.0844 18.6652 15.1725 18.5317 15.291 18.4332C15.4094 18.3346 15.5528 18.2754 15.703 18.263L20.7137 17.8401C20.8549 17.831 20.9908 17.7801 21.1059 17.6931C21.221 17.6062 21.3106 17.4867 21.3645 17.3483L23.2888 12.4996C23.3478 12.3515 23.4466 12.2251 23.5731 12.1363C23.6996 12.0474 23.8481 12 24 12C24.1519 12 24.3004 12.0474 24.4269 12.1363C24.5534 12.2251 24.6523 12.3515 24.7112 12.4996Z"
      stroke="white" stroke-width="2.6" stroke-linecap="round" stroke-linejoin="round"
      mask="url(#maker_favorite_0)"></path>
    <defs>
      <filter id="maker_favorite_1" x="3.15553" y="0.655165" width="41.6889" height="45.593"
        filterUnits="userSpaceOnUse" color-interpolation-filters="sRGB">
        <feFlood flood-opacity="0" result="BackgroundImageFix"></feFlood>
        <feColorMatrix in="SourceAlpha" type="matrix"
          values="0 0 0 0 0 0 0 0 0 0 0 0 0 0 0 0 0 0 127 0" result="hardAlpha"></feColorMatrix>
        <feOffset></feOffset>
        <feGaussianBlur stdDeviation="1.22222"></feGaussianBlur>
        <feColorMatrix type="matrix" values="0 0 0 0 0 0 0 0 0 0 0 0 0 0 0 0 0 0 0.2 0"></feColorMatrix>
        <feBlend mode="normal" in2="BackgroundImageFix" result="effect1_dropShadow_2012_8930"></feBlend>
        <feBlend mode="normal" in="SourceGraphic" in2="effect1_dropShadow_2012_8930" result="shape"></feBlend>
      </filter>
    </defs>
  </svg>
  <svg viewBox="0 0 48 49" fill="none" id="maker_review">
    <g filter="url(#maker_review_0)">
      <path fill-rule="evenodd" clip-rule="evenodd"
        d="M24 3.5C14.0589 3.5 6 11.5589 6 21.5C6 30.0951 12.0243 37.2831 20.0808 39.0721L22.07 42.2548C23.0274 43.7867 25.2583 43.7867 26.2157 42.2548L28.2534 38.9945C36.1418 37.0834 42 29.9758 42 21.5C42 11.5589 33.9411 3.5 24 3.5Z"
        fill="#246BEB"></path>
      <path
        d="M20.0808 39.0721L20.42 38.8601L20.3311 38.7179L20.1675 38.6816L20.0808 39.0721ZM22.07 42.2548L22.4092 42.0428L22.4092 42.0428L22.07 42.2548ZM26.2157 42.2548L26.5549 42.4668L26.2157 42.2548ZM28.2534 38.9945L28.1593 38.6058L28.0007 38.6442L27.9142 38.7825L28.2534 38.9945ZM6.4 21.5C6.4 11.7798 14.2798 3.9 24 3.9V3.1C13.838 3.1 5.6 11.338 5.6 21.5H6.4ZM20.1675 38.6816C12.2901 36.9324 6.4 29.9036 6.4 21.5H5.6C5.6 30.2866 11.7584 37.6339 19.9941 39.4626L20.1675 38.6816ZM22.4092 42.0428L20.42 38.8601L19.7416 39.2841L21.7308 42.4668L22.4092 42.0428ZM25.8765 42.0428C25.0758 43.324 23.2099 43.324 22.4092 42.0428L21.7308 42.4668C22.8448 44.2493 25.4409 44.2493 26.5549 42.4668L25.8765 42.0428ZM27.9142 38.7825L25.8765 42.0428L26.5549 42.4668L28.5926 39.2065L27.9142 38.7825ZM41.6 21.5C41.6 29.7869 35.8723 36.7371 28.1593 38.6058L28.3476 39.3833C36.4112 37.4297 42.4 30.1647 42.4 21.5H41.6ZM24 3.9C33.7202 3.9 41.6 11.7798 41.6 21.5H42.4C42.4 11.338 34.162 3.1 24 3.1V3.9Z"
        fill="#1D56BC"></path>
    </g>
    <path fill-rule="evenodd" clip-rule="evenodd"
      d="M24 32C30.0751 32 35 27.0751 35 21C35 14.9249 30.0751 10 24 10C17.9249 10 13 14.9249 13 21C13 27.0751 17.9249 32 24 32ZM19.5 18V20C19.5 20.55 19.95 21 20.5 21C21.05 21 21.5 20.55 21.5 20V18C21.5 17.45 21.05 17 20.5 17C19.95 17 19.5 17.45 19.5 18ZM24 27C25.55 27 26.935 26.295 27.85 25.19C28.24 24.715 27.88 24 27.27 24H27.2C26.99 24 26.8 24.1 26.665 24.26C26.025 25.02 25.065 25.5 24 25.5C22.935 25.5 21.975 25.015 21.335 24.26C21.2 24.105 21.01 24 20.8 24H20.73C20.12 24 19.76 24.72 20.15 25.19C21.065 26.295 22.45 27 24 27ZM27.5 21C28.05 21 28.5 20.55 28.5 20V18C28.5 17.45 28.05 17 27.5 17C26.95 17 26.5 17.45 26.5 18V20C26.5 20.55 26.95 21 27.5 21Z"
      fill="white"></path>
    <defs>
      <filter id="maker_review_0" x="3.15553" y="0.655165" width="41.6889" height="45.593"
        filterUnits="userSpaceOnUse" color-interpolation-filters="sRGB">
        <feFlood flood-opacity="0" result="BackgroundImageFix"></feFlood>
        <feColorMatrix in="SourceAlpha" type="matrix"
          values="0 0 0 0 0 0 0 0 0 0 0 0 0 0 0 0 0 0 127 0" result="hardAlpha"></feColorMatrix>
        <feOffset></feOffset>
        <feGaussianBlur stdDeviation="1.22222"></feGaussianBlur>
        <feColorMatrix type="matrix" values="0 0 0 0 0 0 0 0 0 0 0 0 0 0 0 0 0 0 0.2 0"></feColorMatrix>
        <feBlend mode="normal" in2="BackgroundImageFix" result="effect1_dropShadow_2012_8920"></feBlend>
        <feBlend mode="normal" in="SourceGraphic" in2="effect1_dropShadow_2012_8920" result="shape"></feBlend>
      </filter>
    </defs>
  </svg>
  <svg viewBox="0 0 24 24" fill="none" id="save">
    <mask id="save_0" maskUnits="userSpaceOnUse" x="1" y="1" width="22" height="22" fill="black">
      <rect fill="white" x="1" y="1" width="22" height="22"></rect>
      <path
        d="M12.7112 3.49956L14.6355 8.34832C14.6894 8.48667 14.779 8.60616 14.8941 8.69313C15.0092 8.7801 15.1451 8.83104 15.2863 8.84008L20.297 9.26304C20.4472 9.27544 20.5906 9.3346 20.709 9.43316C20.8275 9.53173 20.9156 9.6652 20.9624 9.81675C21.0091 9.9683 21.0124 10.1311 20.9717 10.2846C20.9311 10.4381 20.8483 10.5755 20.7339 10.6792L16.9224 14.092C16.8146 14.1869 16.734 14.3118 16.6896 14.4525C16.6453 14.5933 16.639 14.7444 16.6714 14.8887L17.8334 20.0029C17.8692 20.1586 17.8604 20.322 17.8081 20.4723C17.7557 20.6226 17.6623 20.753 17.5396 20.8469C17.417 20.9408 17.2706 20.9939 17.1193 20.9995C16.968 21.0051 16.8186 20.9629 16.69 20.8783L12.4044 18.1342C12.2821 18.0571 12.1424 18.0164 12 18.0164C11.8576 18.0164 11.7179 18.0571 11.5956 18.1342L7.31001 20.8783C7.18146 20.9629 7.032 21.0051 6.88069 20.9995C6.72937 20.9939 6.58304 20.9408 6.46038 20.8469C6.33772 20.753 6.24428 20.6226 6.19194 20.4723C6.13961 20.322 6.13077 20.1586 6.16655 20.0029L7.3286 14.8887C7.36103 14.7444 7.3547 14.5933 7.31035 14.4525C7.26601 14.3118 7.18541 14.1869 7.0776 14.092L3.2661 10.6792C3.15171 10.5755 3.06893 10.4381 3.02827 10.2846C2.98761 10.1311 2.99088 9.9683 3.03763 9.81675C3.08439 9.6652 3.17255 9.53173 3.29098 9.43316C3.40941 9.3346 3.5528 9.27544 3.70303 9.26304L8.71374 8.84008C8.85491 8.83104 8.99084 8.7801 9.10593 8.69313C9.22102 8.60616 9.31063 8.48667 9.3645 8.34832L11.2888 3.49956C11.3478 3.35148 11.4466 3.22514 11.5731 3.13627C11.6996 3.04739 11.8481 3 12 3C12.1519 3 12.3004 3.04739 12.4269 3.13627C12.5534 3.22514 12.6523 3.35148 12.7112 3.49956Z"></path>
    </mask>
    <path
      d="M12.7112 3.49956L14.6355 8.34832C14.6894 8.48667 14.779 8.60616 14.8941 8.69313C15.0092 8.7801 15.1451 8.83104 15.2863 8.84008L20.297 9.26304C20.4472 9.27544 20.5906 9.3346 20.709 9.43316C20.8275 9.53173 20.9156 9.6652 20.9624 9.81675C21.0091 9.9683 21.0124 10.1311 20.9717 10.2846C20.9311 10.4381 20.8483 10.5755 20.7339 10.6792L16.9224 14.092C16.8146 14.1869 16.734 14.3118 16.6896 14.4525C16.6453 14.5933 16.639 14.7444 16.6714 14.8887L17.8334 20.0029C17.8692 20.1586 17.8604 20.322 17.8081 20.4723C17.7557 20.6226 17.6623 20.753 17.5396 20.8469C17.417 20.9408 17.2706 20.9939 17.1193 20.9995C16.968 21.0051 16.8186 20.9629 16.69 20.8783L12.4044 18.1342C12.2821 18.0571 12.1424 18.0164 12 18.0164C11.8576 18.0164 11.7179 18.0571 11.5956 18.1342L7.31001 20.8783C7.18146 20.9629 7.032 21.0051 6.88069 20.9995C6.72937 20.9939 6.58304 20.9408 6.46038 20.8469C6.33772 20.753 6.24428 20.6226 6.19194 20.4723C6.13961 20.322 6.13077 20.1586 6.16655 20.0029L7.3286 14.8887C7.36103 14.7444 7.3547 14.5933 7.31035 14.4525C7.26601 14.3118 7.18541 14.1869 7.0776 14.092L3.2661 10.6792C3.15171 10.5755 3.06893 10.4381 3.02827 10.2846C2.98761 10.1311 2.99088 9.9683 3.03763 9.81675C3.08439 9.6652 3.17255 9.53173 3.29098 9.43316C3.40941 9.3346 3.5528 9.27544 3.70303 9.26304L8.71374 8.84008C8.85491 8.83104 8.99084 8.7801 9.10593 8.69313C9.22102 8.60616 9.31063 8.48667 9.3645 8.34832L11.2888 3.49956C11.3478 3.35148 11.4466 3.22514 11.5731 3.13627C11.6996 3.04739 11.8481 3 12 3C12.1519 3 12.3004 3.04739 12.4269 3.13627C12.5534 3.22514 12.6523 3.35148 12.7112 3.49956Z"
      stroke="#2D2D2D" stroke-width="3" stroke-linecap="round" stroke-linejoin="round"
      mask="url(#save_0)"></path>
  </svg>
  <svg viewBox="0 0 40 40" fill="none" id="top_before_arrow">
    <path
      d="M17 20L23.5 13.5C23.7761 13.2239 23.7761 12.7761 23.5 12.5C23.2239 12.2239 22.7761 12.2239 22.5 12.5L15.7071 19.2929C15.3166 19.6834 15.3166 20.3166 15.7071 20.7071L22.5 27.5C22.7761 27.7761 23.2239 27.7761 23.5 27.5C23.7761 27.2239 23.7761 26.7761 23.5 26.5L17 20Z"
      fill="#1D1D1D"></path>
  </svg>
  <svg viewBox="0 0 16 16" fill="none" id="under_arrow">
    <path d="M4.25 6.125L8 10.25L11.75 6.125" stroke="#2D2D2D" stroke-linecap="round"></path>
  </svg>
  <svg viewBox="0 0 32 32" fill="none" id="_button_swipe_left">
    <rect x="31.6" y="0.4" width="31.2" height="31.2" rx="15.6" transform="rotate(90 31.6 0.4)"
      fill="white" stroke="#D8D8D8" stroke-width="0.8"></rect>
    <path d="M10.3999 16.0006L21.5999 16.0006" stroke="#1D1D1D" stroke-width="1.12"
      stroke-linecap="round" stroke-linejoin="round"></path>
    <path d="M15.1999 20.8L10.3999 16" stroke="#1D1D1D" stroke-width="1.12" stroke-linecap="round"
      stroke-linejoin="round"></path>
    <path d="M15.1999 11.2002L10.3999 16.0002" stroke="#1D1D1D" stroke-width="1.12"
      stroke-linecap="round" stroke-linejoin="round"></path>
  </svg>
  <svg viewBox="0 0 32 32" fill="none" id="_button_swipe_right">
    <rect x="31.6" y="0.4" width="31.2" height="31.2" rx="15.6" transform="rotate(90 31.6 0.4)"
      fill="white" stroke="#D8D8D8" stroke-width="0.8"></rect>
    <path d="M21.6001 16.0006L10.4001 16.0006" stroke="#1D1D1D" stroke-width="1.12"
      stroke-linecap="round" stroke-linejoin="round"></path>
    <path d="M16.8001 20.8L21.6001 16" stroke="#1D1D1D" stroke-width="1.12" stroke-linecap="round"
      stroke-linejoin="round"></path>
    <path d="M16.8001 11.2002L21.6001 16.0002" stroke="#1D1D1D" stroke-width="1.12"
      stroke-linecap="round" stroke-linejoin="round"></path>
  </svg>
  <svg viewBox="0 0 40 40" fill="none" id="_button_top">
    <rect x="0.5" y="0.5" width="39" height="39" rx="19.5" fill="white" stroke="#D8D8D8"></rect>
    <path d="M20 13V27" stroke="#1D1D1D" stroke-width="1.4" stroke-linecap="round"
      stroke-linejoin="round"></path>
    <path d="M26 19L20 13" stroke="#1D1D1D" stroke-width="1.4" stroke-linecap="round"
      stroke-linejoin="round"></path>
    <path d="M14 19L20 13" stroke="#1D1D1D" stroke-width="1.4" stroke-linecap="round"
      stroke-linejoin="round"></path>
  </svg>
  <svg viewBox="0 0 24 24" fill="none" id="_icon_more">
    <path fill-rule="evenodd" clip-rule="evenodd"
      d="M13.5 5.5C13.5 6.32843 12.8284 7 12 7C11.1716 7 10.5 6.32843 10.5 5.5C10.5 4.67157 11.1716 4 12 4C12.8284 4 13.5 4.67157 13.5 5.5ZM12 13.5C12.8284 13.5 13.5 12.8284 13.5 12C13.5 11.1716 12.8284 10.5 12 10.5C11.1716 10.5 10.5 11.1716 10.5 12C10.5 12.8284 11.1716 13.5 12 13.5ZM12 20C12.8284 20 13.5 19.3284 13.5 18.5C13.5 17.6716 12.8284 17 12 17C11.1716 17 10.5 17.6716 10.5 18.5C10.5 19.3284 11.1716 20 12 20Z"
      fill="#C6C6C6"></path>
  </svg>
  <svg viewBox="0 0 24 24" fill="none" id="_icon_search">
    <rect x="2.75" y="2.75" width="16" height="16" rx="8" stroke="#1D1D1D" stroke-width="1.5"></rect>
    <path d="M17 17L21.4194 21.4194" stroke="#1D1D1D" stroke-width="1.5" stroke-linecap="round"></path>
  </svg>
</svg>